M48
;DRILL file {KiCad 4.0.3-stable} date 05/01/17 03:43:25
;FORMAT={-:-/ absolute / inch / decimal}
FMAT,2
INCH,TZ
T1C0.016
T2C0.028
T3C0.039
T4C0.051
%
G90
G05
M72
T1
X4.6343Y-3.3063
X4.7819Y-3.265
X4.7819Y-3.2965
X4.7819Y-3.328
X4.7819Y-3.3594
X4.7839Y-3.8957
X4.8146Y-3.863
X4.8732Y-4.2004
X4.9228Y-4.2004
X4.95Y-3.8917
X4.9661Y-3.315
X4.9748Y-3.872
X4.9874Y-3.0492
X4.9933Y-3.3933
X4.9933Y-3.4429
X4.9933Y-3.5689
X5.0079Y-4.0472
X5.011Y-3.3398
X5.0114Y-3.8098
X5.0512Y-3.911
X5.0539Y-3.2028
X5.0543Y-3.1559
X5.0606Y-3.7469
X5.076Y-3.8913
X5.1008Y-3.911
X5.1303Y-3.0232
X5.1457Y-3.6803
X5.1563Y-3.0413
X5.1579Y-3.1264
X5.1579Y-3.1764
X5.1772Y-3.6839
X5.1807Y-3.7154
X5.1831Y-3.202
X5.2079Y-3.1264
X5.2642Y-3.3465
X5.2827Y-3.2724
X5.2843Y-3.5768
X5.2843Y-3.6268
X5.3043Y-3.6756
X5.3232Y-3.8315
X5.3343Y-3.5768
X5.3575Y-3.3031
X5.3602Y-3.6528
X5.3618Y-3.7331
X5.3882Y-3.2035
X5.4079Y-3.2283
X5.4248Y-3.874
X5.4508Y-2.972
X5.4512Y-3.5425
X5.4744Y-3.8732
X5.5146Y-3.2035
X5.5244Y-4.0689
X5.5378Y-3.2283
X5.5398Y-4.0965
X5.5539Y-3.5425
X5.5606Y-3.5917
X5.5606Y-3.7382
X5.5823Y-3.785
X5.6327Y-3.911
X5.6535Y-3.2283
X5.6575Y-3.9358
X5.6732Y-3.2035
X5.7406Y-3.2283
X5.7602Y-3.2035
X5.8386Y-3.2213
X5.8386Y-3.3031
X5.85Y-4.0972
X5.8512Y-3.387
X5.8917Y-3.5469
X5.8992Y-3.5965
X5.9102Y-4.037
X5.9173Y-3.3606
X5.9232Y-3.5504
X5.9319Y-3.7598
X5.9382Y-2.9406
X5.9386Y-3.2445
X5.9386Y-3.3118
X5.939Y-3.213
X5.961Y-3.3343
X5.9701Y-3.837
X6.0209Y-2.9323
X6.0303Y-3.4433
X6.0303Y-3.4933
X6.0484Y-3.2461
X6.0693Y-3.5602
X6.0693Y-3.698
X6.0803Y-3.4433
X6.0803Y-3.5287
X6.1512Y-4.1012
X6.1831Y-3.5602
X6.2217Y-3.1161
X6.2217Y-3.1535
X6.2441Y-2.8413
X6.2929Y-4.1465
X6.3004Y-3.222
X6.3004Y-3.2992
X6.3303Y-4.0559
X6.4043Y-2.8551
X6.4047Y-3.1602
X6.4047Y-3.1976
T2
X5.2Y-3.0106
X5.2Y-3.4106
X5.3Y-3.0106
X5.3Y-3.4106
X5.4Y-3.0106
X5.4Y-3.4106
X5.5Y-3.0106
X5.5Y-3.4106
X5.6Y-3.0106
X5.6Y-3.4106
X5.7Y-3.0106
X5.7Y-3.4106
X5.8Y-3.0106
X5.8Y-3.4106
X5.9Y-3.0106
X5.9Y-3.4106
X6.313Y-4.2622
X6.4114Y-4.2622
T3
X4.6421Y-4.1413
X4.6421Y-4.3185
X4.898Y-4.1413
X4.898Y-4.3185
X4.9898Y-4.1004
X4.9898Y-4.2004
X4.9898Y-4.3004
X5.0894Y-4.1004
X5.0894Y-4.2004
X5.0894Y-4.3004
X5.2Y-4.2
X5.2Y-4.3
X5.3Y-4.2
X5.3Y-4.3
X5.4Y-4.2
X5.4Y-4.3
X5.5Y-4.2
X5.5Y-4.3
X5.6Y-4.2
X5.6Y-4.3
X5.7Y-4.2
X5.7Y-4.3
X5.8Y-4.2
X5.8Y-4.3
X5.9Y-4.2
X5.9Y-4.3
X6.Y-4.2
X6.Y-4.3
X6.1Y-4.2
X6.1Y-4.3
X6.45Y-3.3
X6.45Y-3.4
T4
X4.6571Y-3.5945
X4.6571Y-3.9055
T0
M30
