G04 #@! TF.FileFunction,Legend,Top*
%FSLAX46Y46*%
G04 Gerber Fmt 4.6, Leading zero omitted, Abs format (unit mm)*
G04 Created by KiCad (PCBNEW 4.0.3-stable) date 05/01/17 03:43:23*
%MOMM*%
%LPD*%
G01*
G04 APERTURE LIST*
%ADD10C,0.100000*%
%ADD11C,0.200000*%
%ADD12C,0.300000*%
%ADD13C,0.250000*%
%ADD14C,0.150000*%
%ADD15C,1.250000*%
%ADD16C,0.010000*%
G04 APERTURE END LIST*
D10*
D11*
X163830000Y-82050000D02*
X163830000Y-81050000D01*
X163330000Y-81550000D02*
X164330000Y-81550000D01*
X163330000Y-88630000D02*
X164330000Y-88630000D01*
X119707619Y-103642381D02*
X119374285Y-103166190D01*
X119136190Y-103642381D02*
X119136190Y-102642381D01*
X119517143Y-102642381D01*
X119612381Y-102690000D01*
X119660000Y-102737619D01*
X119707619Y-102832857D01*
X119707619Y-102975714D01*
X119660000Y-103070952D01*
X119612381Y-103118571D01*
X119517143Y-103166190D01*
X119136190Y-103166190D01*
X120136190Y-103118571D02*
X120469524Y-103118571D01*
X120612381Y-103642381D02*
X120136190Y-103642381D01*
X120136190Y-102642381D01*
X120612381Y-102642381D01*
X120993333Y-103594762D02*
X121136190Y-103642381D01*
X121374286Y-103642381D01*
X121469524Y-103594762D01*
X121517143Y-103547143D01*
X121564762Y-103451905D01*
X121564762Y-103356667D01*
X121517143Y-103261429D01*
X121469524Y-103213810D01*
X121374286Y-103166190D01*
X121183809Y-103118571D01*
X121088571Y-103070952D01*
X121040952Y-103023333D01*
X120993333Y-102928095D01*
X120993333Y-102832857D01*
X121040952Y-102737619D01*
X121088571Y-102690000D01*
X121183809Y-102642381D01*
X121421905Y-102642381D01*
X121564762Y-102690000D01*
X121993333Y-103118571D02*
X122326667Y-103118571D01*
X122469524Y-103642381D02*
X121993333Y-103642381D01*
X121993333Y-102642381D01*
X122469524Y-102642381D01*
X122755238Y-102642381D02*
X123326667Y-102642381D01*
X123040952Y-103642381D02*
X123040952Y-102642381D01*
D12*
X147832856Y-95058571D02*
X148118570Y-95058571D01*
X148261428Y-95130000D01*
X148404285Y-95272857D01*
X148475713Y-95558571D01*
X148475713Y-96058571D01*
X148404285Y-96344286D01*
X148261428Y-96487143D01*
X148118570Y-96558571D01*
X147832856Y-96558571D01*
X147689999Y-96487143D01*
X147547142Y-96344286D01*
X147475713Y-96058571D01*
X147475713Y-95558571D01*
X147547142Y-95272857D01*
X147689999Y-95130000D01*
X147832856Y-95058571D01*
X149118571Y-95058571D02*
X149118571Y-96272857D01*
X149189999Y-96415714D01*
X149261428Y-96487143D01*
X149404285Y-96558571D01*
X149689999Y-96558571D01*
X149832857Y-96487143D01*
X149904285Y-96415714D01*
X149975714Y-96272857D01*
X149975714Y-95058571D01*
X150475714Y-95058571D02*
X151332857Y-95058571D01*
X150904286Y-96558571D02*
X150904286Y-95058571D01*
X151832857Y-96558571D02*
X151832857Y-95058571D01*
X152404285Y-95058571D01*
X152547143Y-95130000D01*
X152618571Y-95201429D01*
X152690000Y-95344286D01*
X152690000Y-95558571D01*
X152618571Y-95701429D01*
X152547143Y-95772857D01*
X152404285Y-95844286D01*
X151832857Y-95844286D01*
X153332857Y-95058571D02*
X153332857Y-96272857D01*
X153404285Y-96415714D01*
X153475714Y-96487143D01*
X153618571Y-96558571D01*
X153904285Y-96558571D01*
X154047143Y-96487143D01*
X154118571Y-96415714D01*
X154190000Y-96272857D01*
X154190000Y-95058571D01*
X154690000Y-95058571D02*
X155547143Y-95058571D01*
X155118572Y-96558571D02*
X155118572Y-95058571D01*
D13*
X144030000Y-97130000D02*
X155690000Y-97130000D01*
D12*
X136847142Y-96558571D02*
X136847142Y-95058571D01*
X137561428Y-96558571D02*
X137561428Y-95058571D01*
X138418571Y-96558571D01*
X138418571Y-95058571D01*
X139132857Y-96558571D02*
X139132857Y-95058571D01*
X139704285Y-95058571D01*
X139847143Y-95130000D01*
X139918571Y-95201429D01*
X139990000Y-95344286D01*
X139990000Y-95558571D01*
X139918571Y-95701429D01*
X139847143Y-95772857D01*
X139704285Y-95844286D01*
X139132857Y-95844286D01*
X140632857Y-95058571D02*
X140632857Y-96272857D01*
X140704285Y-96415714D01*
X140775714Y-96487143D01*
X140918571Y-96558571D01*
X141204285Y-96558571D01*
X141347143Y-96487143D01*
X141418571Y-96415714D01*
X141490000Y-96272857D01*
X141490000Y-95058571D01*
X141990000Y-95058571D02*
X142847143Y-95058571D01*
X142418572Y-96558571D02*
X142418572Y-95058571D01*
D13*
X125990000Y-97130000D02*
X142990000Y-97130000D01*
D11*
X129732381Y-101415714D02*
X129732381Y-101891905D01*
X128732381Y-101891905D01*
X128732381Y-100891905D02*
X128732381Y-100701428D01*
X128780000Y-100606190D01*
X128875238Y-100510952D01*
X129065714Y-100463333D01*
X129399048Y-100463333D01*
X129589524Y-100510952D01*
X129684762Y-100606190D01*
X129732381Y-100701428D01*
X129732381Y-100891905D01*
X129684762Y-100987143D01*
X129589524Y-101082381D01*
X129399048Y-101130000D01*
X129065714Y-101130000D01*
X128875238Y-101082381D01*
X128780000Y-100987143D01*
X128732381Y-100891905D01*
X129684762Y-100082381D02*
X129732381Y-99939524D01*
X129732381Y-99701428D01*
X129684762Y-99606190D01*
X129637143Y-99558571D01*
X129541905Y-99510952D01*
X129446667Y-99510952D01*
X129351429Y-99558571D01*
X129303810Y-99606190D01*
X129256190Y-99701428D01*
X129208571Y-99891905D01*
X129160952Y-99987143D01*
X129113333Y-100034762D01*
X129018095Y-100082381D01*
X128922857Y-100082381D01*
X128827619Y-100034762D01*
X128780000Y-99987143D01*
X128732381Y-99891905D01*
X128732381Y-99653809D01*
X128780000Y-99510952D01*
X129208571Y-99082381D02*
X129208571Y-98749047D01*
X129732381Y-98606190D02*
X129732381Y-99082381D01*
X128732381Y-99082381D01*
X128732381Y-98606190D01*
X155344762Y-104469524D02*
X155392381Y-104326667D01*
X155392381Y-104088571D01*
X155344762Y-103993333D01*
X155297143Y-103945714D01*
X155201905Y-103898095D01*
X155106667Y-103898095D01*
X155011429Y-103945714D01*
X154963810Y-103993333D01*
X154916190Y-104088571D01*
X154868571Y-104279048D01*
X154820952Y-104374286D01*
X154773333Y-104421905D01*
X154678095Y-104469524D01*
X154582857Y-104469524D01*
X154487619Y-104421905D01*
X154440000Y-104374286D01*
X154392381Y-104279048D01*
X154392381Y-104040952D01*
X154440000Y-103898095D01*
X155392381Y-103469524D02*
X154392381Y-103469524D01*
X154392381Y-103088571D01*
X154440000Y-102993333D01*
X154487619Y-102945714D01*
X154582857Y-102898095D01*
X154725714Y-102898095D01*
X154820952Y-102945714D01*
X154868571Y-102993333D01*
X154916190Y-103088571D01*
X154916190Y-103469524D01*
X154868571Y-102469524D02*
X154868571Y-102136190D01*
X155392381Y-101993333D02*
X155392381Y-102469524D01*
X154392381Y-102469524D01*
X154392381Y-101993333D01*
X155106667Y-101612381D02*
X155106667Y-101136190D01*
X155392381Y-101707619D02*
X154392381Y-101374286D01*
X155392381Y-101040952D01*
X155392381Y-100707619D02*
X154392381Y-100707619D01*
X155392381Y-100136190D02*
X154820952Y-100564762D01*
X154392381Y-100136190D02*
X154963810Y-100707619D01*
X154868571Y-99707619D02*
X154868571Y-99374285D01*
X155392381Y-99231428D02*
X155392381Y-99707619D01*
X154392381Y-99707619D01*
X154392381Y-99231428D01*
X155392381Y-98231428D02*
X154916190Y-98564762D01*
X155392381Y-98802857D02*
X154392381Y-98802857D01*
X154392381Y-98421904D01*
X154440000Y-98326666D01*
X154487619Y-98279047D01*
X154582857Y-98231428D01*
X154725714Y-98231428D01*
X154820952Y-98279047D01*
X154868571Y-98326666D01*
X154916190Y-98421904D01*
X154916190Y-98802857D01*
X152852381Y-104421905D02*
X151852381Y-104421905D01*
X152566667Y-104088571D01*
X151852381Y-103755238D01*
X152852381Y-103755238D01*
X151852381Y-103088572D02*
X151852381Y-102898095D01*
X151900000Y-102802857D01*
X151995238Y-102707619D01*
X152185714Y-102660000D01*
X152519048Y-102660000D01*
X152709524Y-102707619D01*
X152804762Y-102802857D01*
X152852381Y-102898095D01*
X152852381Y-103088572D01*
X152804762Y-103183810D01*
X152709524Y-103279048D01*
X152519048Y-103326667D01*
X152185714Y-103326667D01*
X151995238Y-103279048D01*
X151900000Y-103183810D01*
X151852381Y-103088572D01*
X151852381Y-102374286D02*
X151852381Y-101802857D01*
X152852381Y-102088572D02*
X151852381Y-102088572D01*
X151852381Y-101279048D02*
X151852381Y-101088571D01*
X151900000Y-100993333D01*
X151995238Y-100898095D01*
X152185714Y-100850476D01*
X152519048Y-100850476D01*
X152709524Y-100898095D01*
X152804762Y-100993333D01*
X152852381Y-101088571D01*
X152852381Y-101279048D01*
X152804762Y-101374286D01*
X152709524Y-101469524D01*
X152519048Y-101517143D01*
X152185714Y-101517143D01*
X151995238Y-101469524D01*
X151900000Y-101374286D01*
X151852381Y-101279048D01*
X152852381Y-99850476D02*
X152376190Y-100183810D01*
X152852381Y-100421905D02*
X151852381Y-100421905D01*
X151852381Y-100040952D01*
X151900000Y-99945714D01*
X151947619Y-99898095D01*
X152042857Y-99850476D01*
X152185714Y-99850476D01*
X152280952Y-99898095D01*
X152328571Y-99945714D01*
X152376190Y-100040952D01*
X152376190Y-100421905D01*
X149788571Y-104088571D02*
X149836190Y-103945714D01*
X149883810Y-103898095D01*
X149979048Y-103850476D01*
X150121905Y-103850476D01*
X150217143Y-103898095D01*
X150264762Y-103945714D01*
X150312381Y-104040952D01*
X150312381Y-104421905D01*
X149312381Y-104421905D01*
X149312381Y-104088571D01*
X149360000Y-103993333D01*
X149407619Y-103945714D01*
X149502857Y-103898095D01*
X149598095Y-103898095D01*
X149693333Y-103945714D01*
X149740952Y-103993333D01*
X149788571Y-104088571D01*
X149788571Y-104421905D01*
X149312381Y-103421905D02*
X150121905Y-103421905D01*
X150217143Y-103374286D01*
X150264762Y-103326667D01*
X150312381Y-103231429D01*
X150312381Y-103040952D01*
X150264762Y-102945714D01*
X150217143Y-102898095D01*
X150121905Y-102850476D01*
X149312381Y-102850476D01*
X150312381Y-102374286D02*
X149312381Y-102374286D01*
X150026667Y-102040952D01*
X149312381Y-101707619D01*
X150312381Y-101707619D01*
X150312381Y-101231429D02*
X149312381Y-101231429D01*
X149312381Y-100850476D01*
X149360000Y-100755238D01*
X149407619Y-100707619D01*
X149502857Y-100660000D01*
X149645714Y-100660000D01*
X149740952Y-100707619D01*
X149788571Y-100755238D01*
X149836190Y-100850476D01*
X149836190Y-101231429D01*
X150407619Y-100469524D02*
X150407619Y-99707619D01*
X149407619Y-99517143D02*
X149360000Y-99469524D01*
X149312381Y-99374286D01*
X149312381Y-99136190D01*
X149360000Y-99040952D01*
X149407619Y-98993333D01*
X149502857Y-98945714D01*
X149598095Y-98945714D01*
X149740952Y-98993333D01*
X150312381Y-99564762D01*
X150312381Y-98945714D01*
X147248571Y-104088571D02*
X147296190Y-103945714D01*
X147343810Y-103898095D01*
X147439048Y-103850476D01*
X147581905Y-103850476D01*
X147677143Y-103898095D01*
X147724762Y-103945714D01*
X147772381Y-104040952D01*
X147772381Y-104421905D01*
X146772381Y-104421905D01*
X146772381Y-104088571D01*
X146820000Y-103993333D01*
X146867619Y-103945714D01*
X146962857Y-103898095D01*
X147058095Y-103898095D01*
X147153333Y-103945714D01*
X147200952Y-103993333D01*
X147248571Y-104088571D01*
X147248571Y-104421905D01*
X146772381Y-103421905D02*
X147581905Y-103421905D01*
X147677143Y-103374286D01*
X147724762Y-103326667D01*
X147772381Y-103231429D01*
X147772381Y-103040952D01*
X147724762Y-102945714D01*
X147677143Y-102898095D01*
X147581905Y-102850476D01*
X146772381Y-102850476D01*
X147772381Y-102374286D02*
X146772381Y-102374286D01*
X147486667Y-102040952D01*
X146772381Y-101707619D01*
X147772381Y-101707619D01*
X147772381Y-101231429D02*
X146772381Y-101231429D01*
X146772381Y-100850476D01*
X146820000Y-100755238D01*
X146867619Y-100707619D01*
X146962857Y-100660000D01*
X147105714Y-100660000D01*
X147200952Y-100707619D01*
X147248571Y-100755238D01*
X147296190Y-100850476D01*
X147296190Y-101231429D01*
X147867619Y-100469524D02*
X147867619Y-99707619D01*
X147772381Y-98945714D02*
X147772381Y-99517143D01*
X147772381Y-99231429D02*
X146772381Y-99231429D01*
X146915238Y-99326667D01*
X147010476Y-99421905D01*
X147058095Y-99517143D01*
X144708571Y-104088571D02*
X144756190Y-103945714D01*
X144803810Y-103898095D01*
X144899048Y-103850476D01*
X145041905Y-103850476D01*
X145137143Y-103898095D01*
X145184762Y-103945714D01*
X145232381Y-104040952D01*
X145232381Y-104421905D01*
X144232381Y-104421905D01*
X144232381Y-104088571D01*
X144280000Y-103993333D01*
X144327619Y-103945714D01*
X144422857Y-103898095D01*
X144518095Y-103898095D01*
X144613333Y-103945714D01*
X144660952Y-103993333D01*
X144708571Y-104088571D01*
X144708571Y-104421905D01*
X144232381Y-103421905D02*
X145041905Y-103421905D01*
X145137143Y-103374286D01*
X145184762Y-103326667D01*
X145232381Y-103231429D01*
X145232381Y-103040952D01*
X145184762Y-102945714D01*
X145137143Y-102898095D01*
X145041905Y-102850476D01*
X144232381Y-102850476D01*
X145232381Y-102374286D02*
X144232381Y-102374286D01*
X144946667Y-102040952D01*
X144232381Y-101707619D01*
X145232381Y-101707619D01*
X145232381Y-101231429D02*
X144232381Y-101231429D01*
X144232381Y-100850476D01*
X144280000Y-100755238D01*
X144327619Y-100707619D01*
X144422857Y-100660000D01*
X144565714Y-100660000D01*
X144660952Y-100707619D01*
X144708571Y-100755238D01*
X144756190Y-100850476D01*
X144756190Y-101231429D01*
X145327619Y-100469524D02*
X145327619Y-99707619D01*
X144232381Y-99279048D02*
X144232381Y-99183809D01*
X144280000Y-99088571D01*
X144327619Y-99040952D01*
X144422857Y-98993333D01*
X144613333Y-98945714D01*
X144851429Y-98945714D01*
X145041905Y-98993333D01*
X145137143Y-99040952D01*
X145184762Y-99088571D01*
X145232381Y-99183809D01*
X145232381Y-99279048D01*
X145184762Y-99374286D01*
X145137143Y-99421905D01*
X145041905Y-99469524D01*
X144851429Y-99517143D01*
X144613333Y-99517143D01*
X144422857Y-99469524D01*
X144327619Y-99421905D01*
X144280000Y-99374286D01*
X144232381Y-99279048D01*
X142168571Y-104088571D02*
X142216190Y-103945714D01*
X142263810Y-103898095D01*
X142359048Y-103850476D01*
X142501905Y-103850476D01*
X142597143Y-103898095D01*
X142644762Y-103945714D01*
X142692381Y-104040952D01*
X142692381Y-104421905D01*
X141692381Y-104421905D01*
X141692381Y-104088571D01*
X141740000Y-103993333D01*
X141787619Y-103945714D01*
X141882857Y-103898095D01*
X141978095Y-103898095D01*
X142073333Y-103945714D01*
X142120952Y-103993333D01*
X142168571Y-104088571D01*
X142168571Y-104421905D01*
X141692381Y-103421905D02*
X142501905Y-103421905D01*
X142597143Y-103374286D01*
X142644762Y-103326667D01*
X142692381Y-103231429D01*
X142692381Y-103040952D01*
X142644762Y-102945714D01*
X142597143Y-102898095D01*
X142501905Y-102850476D01*
X141692381Y-102850476D01*
X142692381Y-102374286D02*
X141692381Y-102374286D01*
X142406667Y-102040952D01*
X141692381Y-101707619D01*
X142692381Y-101707619D01*
X142692381Y-101231429D02*
X141692381Y-101231429D01*
X141692381Y-100850476D01*
X141740000Y-100755238D01*
X141787619Y-100707619D01*
X141882857Y-100660000D01*
X142025714Y-100660000D01*
X142120952Y-100707619D01*
X142168571Y-100755238D01*
X142216190Y-100850476D01*
X142216190Y-101231429D01*
X142787619Y-100469524D02*
X142787619Y-99707619D01*
X141787619Y-99517143D02*
X141740000Y-99469524D01*
X141692381Y-99374286D01*
X141692381Y-99136190D01*
X141740000Y-99040952D01*
X141787619Y-98993333D01*
X141882857Y-98945714D01*
X141978095Y-98945714D01*
X142120952Y-98993333D01*
X142692381Y-99564762D01*
X142692381Y-98945714D01*
X139628571Y-104088571D02*
X139676190Y-103945714D01*
X139723810Y-103898095D01*
X139819048Y-103850476D01*
X139961905Y-103850476D01*
X140057143Y-103898095D01*
X140104762Y-103945714D01*
X140152381Y-104040952D01*
X140152381Y-104421905D01*
X139152381Y-104421905D01*
X139152381Y-104088571D01*
X139200000Y-103993333D01*
X139247619Y-103945714D01*
X139342857Y-103898095D01*
X139438095Y-103898095D01*
X139533333Y-103945714D01*
X139580952Y-103993333D01*
X139628571Y-104088571D01*
X139628571Y-104421905D01*
X139152381Y-103421905D02*
X139961905Y-103421905D01*
X140057143Y-103374286D01*
X140104762Y-103326667D01*
X140152381Y-103231429D01*
X140152381Y-103040952D01*
X140104762Y-102945714D01*
X140057143Y-102898095D01*
X139961905Y-102850476D01*
X139152381Y-102850476D01*
X140152381Y-102374286D02*
X139152381Y-102374286D01*
X139866667Y-102040952D01*
X139152381Y-101707619D01*
X140152381Y-101707619D01*
X140152381Y-101231429D02*
X139152381Y-101231429D01*
X139152381Y-100850476D01*
X139200000Y-100755238D01*
X139247619Y-100707619D01*
X139342857Y-100660000D01*
X139485714Y-100660000D01*
X139580952Y-100707619D01*
X139628571Y-100755238D01*
X139676190Y-100850476D01*
X139676190Y-101231429D01*
X140247619Y-100469524D02*
X140247619Y-99707619D01*
X140152381Y-98945714D02*
X140152381Y-99517143D01*
X140152381Y-99231429D02*
X139152381Y-99231429D01*
X139295238Y-99326667D01*
X139390476Y-99421905D01*
X139438095Y-99517143D01*
X137088571Y-104088571D02*
X137136190Y-103945714D01*
X137183810Y-103898095D01*
X137279048Y-103850476D01*
X137421905Y-103850476D01*
X137517143Y-103898095D01*
X137564762Y-103945714D01*
X137612381Y-104040952D01*
X137612381Y-104421905D01*
X136612381Y-104421905D01*
X136612381Y-104088571D01*
X136660000Y-103993333D01*
X136707619Y-103945714D01*
X136802857Y-103898095D01*
X136898095Y-103898095D01*
X136993333Y-103945714D01*
X137040952Y-103993333D01*
X137088571Y-104088571D01*
X137088571Y-104421905D01*
X136612381Y-103421905D02*
X137421905Y-103421905D01*
X137517143Y-103374286D01*
X137564762Y-103326667D01*
X137612381Y-103231429D01*
X137612381Y-103040952D01*
X137564762Y-102945714D01*
X137517143Y-102898095D01*
X137421905Y-102850476D01*
X136612381Y-102850476D01*
X137612381Y-102374286D02*
X136612381Y-102374286D01*
X137326667Y-102040952D01*
X136612381Y-101707619D01*
X137612381Y-101707619D01*
X137612381Y-101231429D02*
X136612381Y-101231429D01*
X136612381Y-100850476D01*
X136660000Y-100755238D01*
X136707619Y-100707619D01*
X136802857Y-100660000D01*
X136945714Y-100660000D01*
X137040952Y-100707619D01*
X137088571Y-100755238D01*
X137136190Y-100850476D01*
X137136190Y-101231429D01*
X137707619Y-100469524D02*
X137707619Y-99707619D01*
X136612381Y-99279048D02*
X136612381Y-99183809D01*
X136660000Y-99088571D01*
X136707619Y-99040952D01*
X136802857Y-98993333D01*
X136993333Y-98945714D01*
X137231429Y-98945714D01*
X137421905Y-98993333D01*
X137517143Y-99040952D01*
X137564762Y-99088571D01*
X137612381Y-99183809D01*
X137612381Y-99279048D01*
X137564762Y-99374286D01*
X137517143Y-99421905D01*
X137421905Y-99469524D01*
X137231429Y-99517143D01*
X136993333Y-99517143D01*
X136802857Y-99469524D01*
X136707619Y-99421905D01*
X136660000Y-99374286D01*
X136612381Y-99279048D01*
X134548571Y-104088571D02*
X134548571Y-104421905D01*
X135072381Y-104421905D02*
X134072381Y-104421905D01*
X134072381Y-103945714D01*
X135072381Y-103088571D02*
X135072381Y-103564762D01*
X134072381Y-103564762D01*
X135072381Y-102755238D02*
X134072381Y-102755238D01*
X135072381Y-102279048D02*
X134072381Y-102279048D01*
X134072381Y-101898095D01*
X134120000Y-101802857D01*
X134167619Y-101755238D01*
X134262857Y-101707619D01*
X134405714Y-101707619D01*
X134500952Y-101755238D01*
X134548571Y-101802857D01*
X134596190Y-101898095D01*
X134596190Y-102279048D01*
X135167619Y-101517143D02*
X135167619Y-100755238D01*
X135072381Y-99945714D02*
X134596190Y-100279048D01*
X135072381Y-100517143D02*
X134072381Y-100517143D01*
X134072381Y-100136190D01*
X134120000Y-100040952D01*
X134167619Y-99993333D01*
X134262857Y-99945714D01*
X134405714Y-99945714D01*
X134500952Y-99993333D01*
X134548571Y-100040952D01*
X134596190Y-100136190D01*
X134596190Y-100517143D01*
X132008571Y-104088571D02*
X132008571Y-104421905D01*
X132532381Y-104421905D02*
X131532381Y-104421905D01*
X131532381Y-103945714D01*
X132532381Y-103088571D02*
X132532381Y-103564762D01*
X131532381Y-103564762D01*
X132532381Y-102755238D02*
X131532381Y-102755238D01*
X132532381Y-102279048D02*
X131532381Y-102279048D01*
X131532381Y-101898095D01*
X131580000Y-101802857D01*
X131627619Y-101755238D01*
X131722857Y-101707619D01*
X131865714Y-101707619D01*
X131960952Y-101755238D01*
X132008571Y-101802857D01*
X132056190Y-101898095D01*
X132056190Y-102279048D01*
X132627619Y-101517143D02*
X132627619Y-100755238D01*
X132532381Y-100040952D02*
X132532381Y-100517143D01*
X131532381Y-100517143D01*
X127192381Y-101320476D02*
X126716190Y-101653810D01*
X127192381Y-101891905D02*
X126192381Y-101891905D01*
X126192381Y-101510952D01*
X126240000Y-101415714D01*
X126287619Y-101368095D01*
X126382857Y-101320476D01*
X126525714Y-101320476D01*
X126620952Y-101368095D01*
X126668571Y-101415714D01*
X126716190Y-101510952D01*
X126716190Y-101891905D01*
X126906667Y-100939524D02*
X126906667Y-100463333D01*
X127192381Y-101034762D02*
X126192381Y-100701429D01*
X127192381Y-100368095D01*
X127192381Y-100034762D02*
X126192381Y-100034762D01*
X126906667Y-99701428D01*
X126192381Y-99368095D01*
X127192381Y-99368095D01*
X127192381Y-98891905D02*
X126192381Y-98891905D01*
X126192381Y-98510952D01*
X126240000Y-98415714D01*
X126287619Y-98368095D01*
X126382857Y-98320476D01*
X126525714Y-98320476D01*
X126620952Y-98368095D01*
X126668571Y-98415714D01*
X126716190Y-98510952D01*
X126716190Y-98891905D01*
D14*
X164750000Y-108260000D02*
G75*
G03X164750000Y-108260000I-3150000J0D01*
G01*
D15*
X132130000Y-85106000D02*
G75*
G03X132130000Y-85106000I-50000J0D01*
G01*
D14*
X120870000Y-75150000D02*
X161070000Y-75150000D01*
X161070000Y-75150000D02*
X161070000Y-87950000D01*
X161070000Y-87950000D02*
X120870000Y-87950000D01*
X120870000Y-87950000D02*
X120870000Y-75150000D01*
X156210000Y-110490000D02*
X130810000Y-110490000D01*
X130810000Y-105410000D02*
X156210000Y-105410000D01*
X156210000Y-110490000D02*
X156210000Y-105410000D01*
X130810000Y-105410000D02*
X130810000Y-110490000D01*
X128010000Y-102880000D02*
X125470000Y-102880000D01*
X125470000Y-102880000D02*
X125470000Y-110500000D01*
X125470000Y-110500000D02*
X128010000Y-110500000D01*
X128010000Y-110500000D02*
X128010000Y-102880000D01*
X130540000Y-102880000D02*
X128000000Y-102880000D01*
X128000000Y-102880000D02*
X128000000Y-110500000D01*
X128000000Y-110500000D02*
X130540000Y-110500000D01*
X130540000Y-110500000D02*
X130540000Y-102880000D01*
X120890000Y-98800000D02*
X120890000Y-99000000D01*
X120890000Y-99000000D02*
X119690000Y-99000000D01*
X120890000Y-91700000D02*
X120890000Y-91500000D01*
X120890000Y-91500000D02*
X119690000Y-91500000D01*
X165100000Y-82550000D02*
X165100000Y-87630000D01*
X165100000Y-87630000D02*
X162560000Y-87630000D01*
X162560000Y-87630000D02*
X162560000Y-82550000D01*
X162560000Y-82550000D02*
X165100000Y-82550000D01*
X123760000Y-104440000D02*
X118560000Y-104440000D01*
X123760000Y-110440000D02*
X118560000Y-110440000D01*
X118160000Y-108640000D02*
X118160000Y-106240000D01*
X124160000Y-108640000D02*
X124160000Y-106240000D01*
D16*
G36*
X153588787Y-89519196D02*
X153758378Y-89527230D01*
X153902996Y-89541850D01*
X154000875Y-89561376D01*
X154096970Y-89595514D01*
X154153985Y-89634861D01*
X154190767Y-89693430D01*
X154196619Y-89706917D01*
X154228050Y-89831017D01*
X154236818Y-89979845D01*
X154222355Y-90123863D01*
X154205843Y-90185965D01*
X154175604Y-90248494D01*
X154128818Y-90296411D01*
X154057413Y-90332412D01*
X153953315Y-90359191D01*
X153808452Y-90379446D01*
X153614748Y-90395870D01*
X153567641Y-90399050D01*
X153369163Y-90414360D01*
X153222202Y-90432206D01*
X153119685Y-90454940D01*
X153054536Y-90484912D01*
X153019681Y-90524473D01*
X153008046Y-90575973D01*
X153007866Y-90585041D01*
X153007866Y-90657024D01*
X153630415Y-90664931D01*
X154252964Y-90672837D01*
X154262057Y-90782699D01*
X154271149Y-90892561D01*
X152738368Y-90892561D01*
X152748608Y-90631215D01*
X152756469Y-90496516D01*
X152772935Y-90393227D01*
X152805193Y-90316473D01*
X152860432Y-90261379D01*
X152945839Y-90223072D01*
X153068604Y-90196676D01*
X153235914Y-90177316D01*
X153441934Y-90161055D01*
X153630560Y-90144064D01*
X153767714Y-90122466D01*
X153860489Y-90093449D01*
X153915977Y-90054202D01*
X153941272Y-90001915D01*
X153944903Y-89961724D01*
X153931607Y-89871146D01*
X153884541Y-89814821D01*
X153797003Y-89778761D01*
X153701727Y-89761864D01*
X153574354Y-89752740D01*
X153434893Y-89751315D01*
X153303353Y-89757514D01*
X153199743Y-89771263D01*
X153164176Y-89781129D01*
X153080627Y-89827353D01*
X153043155Y-89892748D01*
X153037611Y-89947751D01*
X153030535Y-89988618D01*
X152999714Y-90007971D01*
X152929658Y-90013529D01*
X152905329Y-90013668D01*
X152773495Y-90013668D01*
X152773540Y-89903806D01*
X152795752Y-89756495D01*
X152859024Y-89641925D01*
X152958509Y-89567791D01*
X152993218Y-89555020D01*
X153096437Y-89535660D01*
X153241189Y-89523306D01*
X153410848Y-89517853D01*
X153588787Y-89519196D01*
X153588787Y-89519196D01*
G37*
X153588787Y-89519196D02*
X153758378Y-89527230D01*
X153902996Y-89541850D01*
X154000875Y-89561376D01*
X154096970Y-89595514D01*
X154153985Y-89634861D01*
X154190767Y-89693430D01*
X154196619Y-89706917D01*
X154228050Y-89831017D01*
X154236818Y-89979845D01*
X154222355Y-90123863D01*
X154205843Y-90185965D01*
X154175604Y-90248494D01*
X154128818Y-90296411D01*
X154057413Y-90332412D01*
X153953315Y-90359191D01*
X153808452Y-90379446D01*
X153614748Y-90395870D01*
X153567641Y-90399050D01*
X153369163Y-90414360D01*
X153222202Y-90432206D01*
X153119685Y-90454940D01*
X153054536Y-90484912D01*
X153019681Y-90524473D01*
X153008046Y-90575973D01*
X153007866Y-90585041D01*
X153007866Y-90657024D01*
X153630415Y-90664931D01*
X154252964Y-90672837D01*
X154262057Y-90782699D01*
X154271149Y-90892561D01*
X152738368Y-90892561D01*
X152748608Y-90631215D01*
X152756469Y-90496516D01*
X152772935Y-90393227D01*
X152805193Y-90316473D01*
X152860432Y-90261379D01*
X152945839Y-90223072D01*
X153068604Y-90196676D01*
X153235914Y-90177316D01*
X153441934Y-90161055D01*
X153630560Y-90144064D01*
X153767714Y-90122466D01*
X153860489Y-90093449D01*
X153915977Y-90054202D01*
X153941272Y-90001915D01*
X153944903Y-89961724D01*
X153931607Y-89871146D01*
X153884541Y-89814821D01*
X153797003Y-89778761D01*
X153701727Y-89761864D01*
X153574354Y-89752740D01*
X153434893Y-89751315D01*
X153303353Y-89757514D01*
X153199743Y-89771263D01*
X153164176Y-89781129D01*
X153080627Y-89827353D01*
X153043155Y-89892748D01*
X153037611Y-89947751D01*
X153030535Y-89988618D01*
X152999714Y-90007971D01*
X152929658Y-90013529D01*
X152905329Y-90013668D01*
X152773495Y-90013668D01*
X152773540Y-89903806D01*
X152795752Y-89756495D01*
X152859024Y-89641925D01*
X152958509Y-89567791D01*
X152993218Y-89555020D01*
X153096437Y-89535660D01*
X153241189Y-89523306D01*
X153410848Y-89517853D01*
X153588787Y-89519196D01*
G36*
X135462345Y-88618346D02*
X135667562Y-88635494D01*
X135829459Y-88663731D01*
X135952854Y-88703501D01*
X135977464Y-88714905D01*
X136084017Y-88783129D01*
X136154221Y-88870064D01*
X136195525Y-88988848D01*
X136214023Y-89132096D01*
X136228888Y-89339850D01*
X136019876Y-89339850D01*
X135911450Y-89338768D01*
X135848973Y-89332644D01*
X135819807Y-89317166D01*
X135811312Y-89288020D01*
X135810865Y-89268516D01*
X135804678Y-89178970D01*
X135781932Y-89109255D01*
X135736352Y-89056989D01*
X135661663Y-89019791D01*
X135551591Y-88995278D01*
X135399858Y-88981067D01*
X135200191Y-88974778D01*
X135034510Y-88973810D01*
X134822689Y-88975092D01*
X134660573Y-88980115D01*
X134539301Y-88990869D01*
X134450010Y-89009344D01*
X134383839Y-89037529D01*
X134331927Y-89077413D01*
X134285411Y-89130988D01*
X134275437Y-89144248D01*
X134251487Y-89181423D01*
X134234706Y-89224493D01*
X134223840Y-89284055D01*
X134217638Y-89370705D01*
X134214846Y-89495040D01*
X134214210Y-89662111D01*
X134214888Y-89833243D01*
X134217759Y-89956387D01*
X134224074Y-90042140D01*
X134235087Y-90101100D01*
X134252051Y-90143863D01*
X134275437Y-90179974D01*
X134321947Y-90236696D01*
X134371980Y-90279307D01*
X134434400Y-90309799D01*
X134518067Y-90330159D01*
X134631844Y-90342379D01*
X134784592Y-90348447D01*
X134985172Y-90350354D01*
X135034510Y-90350412D01*
X135263162Y-90348768D01*
X135440431Y-90342649D01*
X135573453Y-90330518D01*
X135669365Y-90310836D01*
X135735301Y-90282065D01*
X135778398Y-90242668D01*
X135805793Y-90191105D01*
X135808521Y-90183576D01*
X135831377Y-90096646D01*
X135840161Y-90023944D01*
X135843750Y-89987935D01*
X135863009Y-89967322D01*
X135910673Y-89957829D01*
X135999479Y-89955178D01*
X136045236Y-89955075D01*
X136250311Y-89955075D01*
X136250311Y-90094426D01*
X136230819Y-90288218D01*
X136170947Y-90440830D01*
X136068600Y-90555435D01*
X135921686Y-90635207D01*
X135885289Y-90647732D01*
X135792431Y-90666917D01*
X135653017Y-90682793D01*
X135479001Y-90695151D01*
X135282339Y-90703785D01*
X135074986Y-90708485D01*
X134868895Y-90709045D01*
X134676023Y-90705255D01*
X134508323Y-90696910D01*
X134377750Y-90683800D01*
X134327545Y-90674816D01*
X134150722Y-90624899D01*
X134021399Y-90564344D01*
X133928713Y-90487724D01*
X133910852Y-90466517D01*
X133864115Y-90399105D01*
X133829178Y-90325717D01*
X133804428Y-90236828D01*
X133788254Y-90122912D01*
X133779045Y-89974443D01*
X133775188Y-89781897D01*
X133774764Y-89662111D01*
X133775746Y-89464960D01*
X133779263Y-89315926D01*
X133786173Y-89204558D01*
X133797331Y-89120405D01*
X133813596Y-89053014D01*
X133828137Y-89011098D01*
X133879557Y-88903056D01*
X133945906Y-88816498D01*
X134033756Y-88749006D01*
X134149676Y-88698162D01*
X134300238Y-88661546D01*
X134492013Y-88636740D01*
X134731570Y-88621325D01*
X134902676Y-88615533D01*
X135208989Y-88611841D01*
X135462345Y-88618346D01*
X135462345Y-88618346D01*
G37*
X135462345Y-88618346D02*
X135667562Y-88635494D01*
X135829459Y-88663731D01*
X135952854Y-88703501D01*
X135977464Y-88714905D01*
X136084017Y-88783129D01*
X136154221Y-88870064D01*
X136195525Y-88988848D01*
X136214023Y-89132096D01*
X136228888Y-89339850D01*
X136019876Y-89339850D01*
X135911450Y-89338768D01*
X135848973Y-89332644D01*
X135819807Y-89317166D01*
X135811312Y-89288020D01*
X135810865Y-89268516D01*
X135804678Y-89178970D01*
X135781932Y-89109255D01*
X135736352Y-89056989D01*
X135661663Y-89019791D01*
X135551591Y-88995278D01*
X135399858Y-88981067D01*
X135200191Y-88974778D01*
X135034510Y-88973810D01*
X134822689Y-88975092D01*
X134660573Y-88980115D01*
X134539301Y-88990869D01*
X134450010Y-89009344D01*
X134383839Y-89037529D01*
X134331927Y-89077413D01*
X134285411Y-89130988D01*
X134275437Y-89144248D01*
X134251487Y-89181423D01*
X134234706Y-89224493D01*
X134223840Y-89284055D01*
X134217638Y-89370705D01*
X134214846Y-89495040D01*
X134214210Y-89662111D01*
X134214888Y-89833243D01*
X134217759Y-89956387D01*
X134224074Y-90042140D01*
X134235087Y-90101100D01*
X134252051Y-90143863D01*
X134275437Y-90179974D01*
X134321947Y-90236696D01*
X134371980Y-90279307D01*
X134434400Y-90309799D01*
X134518067Y-90330159D01*
X134631844Y-90342379D01*
X134784592Y-90348447D01*
X134985172Y-90350354D01*
X135034510Y-90350412D01*
X135263162Y-90348768D01*
X135440431Y-90342649D01*
X135573453Y-90330518D01*
X135669365Y-90310836D01*
X135735301Y-90282065D01*
X135778398Y-90242668D01*
X135805793Y-90191105D01*
X135808521Y-90183576D01*
X135831377Y-90096646D01*
X135840161Y-90023944D01*
X135843750Y-89987935D01*
X135863009Y-89967322D01*
X135910673Y-89957829D01*
X135999479Y-89955178D01*
X136045236Y-89955075D01*
X136250311Y-89955075D01*
X136250311Y-90094426D01*
X136230819Y-90288218D01*
X136170947Y-90440830D01*
X136068600Y-90555435D01*
X135921686Y-90635207D01*
X135885289Y-90647732D01*
X135792431Y-90666917D01*
X135653017Y-90682793D01*
X135479001Y-90695151D01*
X135282339Y-90703785D01*
X135074986Y-90708485D01*
X134868895Y-90709045D01*
X134676023Y-90705255D01*
X134508323Y-90696910D01*
X134377750Y-90683800D01*
X134327545Y-90674816D01*
X134150722Y-90624899D01*
X134021399Y-90564344D01*
X133928713Y-90487724D01*
X133910852Y-90466517D01*
X133864115Y-90399105D01*
X133829178Y-90325717D01*
X133804428Y-90236828D01*
X133788254Y-90122912D01*
X133779045Y-89974443D01*
X133775188Y-89781897D01*
X133774764Y-89662111D01*
X133775746Y-89464960D01*
X133779263Y-89315926D01*
X133786173Y-89204558D01*
X133797331Y-89120405D01*
X133813596Y-89053014D01*
X133828137Y-89011098D01*
X133879557Y-88903056D01*
X133945906Y-88816498D01*
X134033756Y-88749006D01*
X134149676Y-88698162D01*
X134300238Y-88661546D01*
X134492013Y-88636740D01*
X134731570Y-88621325D01*
X134902676Y-88615533D01*
X135208989Y-88611841D01*
X135462345Y-88618346D01*
G36*
X140999480Y-88622368D02*
X141230669Y-88646736D01*
X141405468Y-88684885D01*
X141492889Y-88719158D01*
X141595406Y-88801474D01*
X141673881Y-88924357D01*
X141720017Y-89071935D01*
X141728743Y-89170279D01*
X141728743Y-89310554D01*
X141300550Y-89310554D01*
X141272951Y-89186044D01*
X141254142Y-89118804D01*
X141226430Y-89067391D01*
X141182446Y-89029707D01*
X141114819Y-89003650D01*
X141016179Y-88987120D01*
X140879157Y-88978018D01*
X140696381Y-88974243D01*
X140527589Y-88973645D01*
X140313417Y-88974780D01*
X140149086Y-88979468D01*
X140025869Y-88989634D01*
X139935039Y-89007202D01*
X139867866Y-89034096D01*
X139815622Y-89072242D01*
X139769581Y-89123564D01*
X139753869Y-89144248D01*
X139729820Y-89181608D01*
X139713003Y-89224909D01*
X139702147Y-89284813D01*
X139695982Y-89371983D01*
X139693237Y-89497083D01*
X139692641Y-89658223D01*
X139694545Y-89851396D01*
X139702233Y-89995598D01*
X139718671Y-90100380D01*
X139746826Y-90175296D01*
X139789663Y-90229900D01*
X139850148Y-90273743D01*
X139890668Y-90296036D01*
X139963707Y-90318130D01*
X140082172Y-90336417D01*
X140232991Y-90350396D01*
X140403090Y-90359566D01*
X140579397Y-90363426D01*
X140748838Y-90361474D01*
X140898341Y-90353208D01*
X141010423Y-90338972D01*
X141146774Y-90303109D01*
X141235378Y-90250132D01*
X141286664Y-90169877D01*
X141311063Y-90052182D01*
X141311738Y-90045409D01*
X141326048Y-89896482D01*
X140381107Y-89896482D01*
X140381107Y-89574222D01*
X141764064Y-89574222D01*
X141753696Y-89933103D01*
X141747205Y-90097200D01*
X141737444Y-90215998D01*
X141722415Y-90302775D01*
X141700118Y-90370813D01*
X141682079Y-90408814D01*
X141591144Y-90522834D01*
X141451700Y-90608963D01*
X141262061Y-90668095D01*
X141157462Y-90686481D01*
X141038216Y-90698056D01*
X140877694Y-90706137D01*
X140690270Y-90710756D01*
X140490315Y-90711942D01*
X140292203Y-90709725D01*
X140110305Y-90704136D01*
X139958994Y-90695204D01*
X139857309Y-90683757D01*
X139680911Y-90643818D01*
X139538958Y-90584999D01*
X139428513Y-90501833D01*
X139346639Y-90388850D01*
X139290397Y-90240581D01*
X139256852Y-90051558D01*
X139243064Y-89816313D01*
X139245595Y-89544925D01*
X139256004Y-89326703D01*
X139273512Y-89157547D01*
X139300657Y-89028108D01*
X139339976Y-88929036D01*
X139394008Y-88850983D01*
X139448236Y-88798480D01*
X139525919Y-88743344D01*
X139617685Y-88700421D01*
X139731938Y-88668039D01*
X139877085Y-88644522D01*
X140061534Y-88628197D01*
X140293691Y-88617391D01*
X140369281Y-88615101D01*
X140712238Y-88611813D01*
X140999480Y-88622368D01*
X140999480Y-88622368D01*
G37*
X140999480Y-88622368D02*
X141230669Y-88646736D01*
X141405468Y-88684885D01*
X141492889Y-88719158D01*
X141595406Y-88801474D01*
X141673881Y-88924357D01*
X141720017Y-89071935D01*
X141728743Y-89170279D01*
X141728743Y-89310554D01*
X141300550Y-89310554D01*
X141272951Y-89186044D01*
X141254142Y-89118804D01*
X141226430Y-89067391D01*
X141182446Y-89029707D01*
X141114819Y-89003650D01*
X141016179Y-88987120D01*
X140879157Y-88978018D01*
X140696381Y-88974243D01*
X140527589Y-88973645D01*
X140313417Y-88974780D01*
X140149086Y-88979468D01*
X140025869Y-88989634D01*
X139935039Y-89007202D01*
X139867866Y-89034096D01*
X139815622Y-89072242D01*
X139769581Y-89123564D01*
X139753869Y-89144248D01*
X139729820Y-89181608D01*
X139713003Y-89224909D01*
X139702147Y-89284813D01*
X139695982Y-89371983D01*
X139693237Y-89497083D01*
X139692641Y-89658223D01*
X139694545Y-89851396D01*
X139702233Y-89995598D01*
X139718671Y-90100380D01*
X139746826Y-90175296D01*
X139789663Y-90229900D01*
X139850148Y-90273743D01*
X139890668Y-90296036D01*
X139963707Y-90318130D01*
X140082172Y-90336417D01*
X140232991Y-90350396D01*
X140403090Y-90359566D01*
X140579397Y-90363426D01*
X140748838Y-90361474D01*
X140898341Y-90353208D01*
X141010423Y-90338972D01*
X141146774Y-90303109D01*
X141235378Y-90250132D01*
X141286664Y-90169877D01*
X141311063Y-90052182D01*
X141311738Y-90045409D01*
X141326048Y-89896482D01*
X140381107Y-89896482D01*
X140381107Y-89574222D01*
X141764064Y-89574222D01*
X141753696Y-89933103D01*
X141747205Y-90097200D01*
X141737444Y-90215998D01*
X141722415Y-90302775D01*
X141700118Y-90370813D01*
X141682079Y-90408814D01*
X141591144Y-90522834D01*
X141451700Y-90608963D01*
X141262061Y-90668095D01*
X141157462Y-90686481D01*
X141038216Y-90698056D01*
X140877694Y-90706137D01*
X140690270Y-90710756D01*
X140490315Y-90711942D01*
X140292203Y-90709725D01*
X140110305Y-90704136D01*
X139958994Y-90695204D01*
X139857309Y-90683757D01*
X139680911Y-90643818D01*
X139538958Y-90584999D01*
X139428513Y-90501833D01*
X139346639Y-90388850D01*
X139290397Y-90240581D01*
X139256852Y-90051558D01*
X139243064Y-89816313D01*
X139245595Y-89544925D01*
X139256004Y-89326703D01*
X139273512Y-89157547D01*
X139300657Y-89028108D01*
X139339976Y-88929036D01*
X139394008Y-88850983D01*
X139448236Y-88798480D01*
X139525919Y-88743344D01*
X139617685Y-88700421D01*
X139731938Y-88668039D01*
X139877085Y-88644522D01*
X140061534Y-88628197D01*
X140293691Y-88617391D01*
X140369281Y-88615101D01*
X140712238Y-88611813D01*
X140999480Y-88622368D01*
G36*
X148466920Y-88644033D02*
X148734680Y-88654557D01*
X148949754Y-88672226D01*
X149117879Y-88699708D01*
X149244791Y-88739676D01*
X149336226Y-88794798D01*
X149397920Y-88867746D01*
X149435610Y-88961190D01*
X149455032Y-89077800D01*
X149457298Y-89105085D01*
X149470041Y-89281257D01*
X149246797Y-89281257D01*
X149133900Y-89280292D01*
X149067363Y-89274838D01*
X149034952Y-89261062D01*
X149024439Y-89235129D01*
X149023552Y-89211262D01*
X148996232Y-89114321D01*
X148920533Y-89036719D01*
X148805846Y-88988019D01*
X148803829Y-88987546D01*
X148714898Y-88975110D01*
X148583636Y-88966723D01*
X148426165Y-88962400D01*
X148258607Y-88962156D01*
X148097085Y-88966006D01*
X147957722Y-88973967D01*
X147856639Y-88986051D01*
X147853432Y-88986657D01*
X147739932Y-89023861D01*
X147674212Y-89087793D01*
X147648010Y-89188078D01*
X147646620Y-89227588D01*
X147649820Y-89288507D01*
X147663697Y-89336448D01*
X147694673Y-89373277D01*
X147749169Y-89400858D01*
X147833603Y-89421055D01*
X147954396Y-89435734D01*
X148117968Y-89446760D01*
X148330740Y-89455996D01*
X148447416Y-89460175D01*
X148644111Y-89468317D01*
X148827635Y-89478405D01*
X148987578Y-89489673D01*
X149113535Y-89501353D01*
X149195095Y-89512677D01*
X149211671Y-89516544D01*
X149338421Y-89572505D01*
X149429886Y-89658351D01*
X149488529Y-89779606D01*
X149516816Y-89941793D01*
X149517212Y-90150436D01*
X149514403Y-90194880D01*
X149488121Y-90362616D01*
X149432129Y-90489022D01*
X149339812Y-90580510D01*
X149204553Y-90643491D01*
X149019736Y-90684378D01*
X149007406Y-90686199D01*
X148891142Y-90697485D01*
X148730759Y-90705508D01*
X148540640Y-90710287D01*
X148335168Y-90711840D01*
X148128725Y-90710183D01*
X147935693Y-90705335D01*
X147770456Y-90697313D01*
X147647395Y-90686135D01*
X147635717Y-90684520D01*
X147452948Y-90639792D01*
X147318939Y-90564325D01*
X147230795Y-90455034D01*
X147185622Y-90308833D01*
X147177923Y-90196771D01*
X147177878Y-90042964D01*
X147617324Y-90042964D01*
X147617324Y-90127608D01*
X147643952Y-90235297D01*
X147720030Y-90317030D01*
X147837047Y-90365972D01*
X147922850Y-90377856D01*
X148051844Y-90386108D01*
X148208740Y-90390717D01*
X148378251Y-90391671D01*
X148545085Y-90388958D01*
X148693955Y-90382568D01*
X148809571Y-90372488D01*
X148846711Y-90366738D01*
X148972968Y-90320872D01*
X149051363Y-90241328D01*
X149081733Y-90128283D01*
X149082145Y-90111034D01*
X149078437Y-90028873D01*
X149063060Y-89964257D01*
X149029638Y-89914777D01*
X148971796Y-89878028D01*
X148883158Y-89851603D01*
X148757346Y-89833095D01*
X148587985Y-89820097D01*
X148368698Y-89810204D01*
X148276494Y-89806944D01*
X148082618Y-89798872D01*
X147899799Y-89788484D01*
X147739383Y-89776641D01*
X147612712Y-89764201D01*
X147531131Y-89752022D01*
X147521702Y-89749818D01*
X147379773Y-89686483D01*
X147277495Y-89583703D01*
X147220999Y-89447780D01*
X147219238Y-89438916D01*
X147208513Y-89327561D01*
X147210453Y-89195039D01*
X147223144Y-89060693D01*
X147244674Y-88943863D01*
X147273127Y-88863890D01*
X147276713Y-88857998D01*
X147340649Y-88787750D01*
X147433616Y-88732244D01*
X147560501Y-88690602D01*
X147726194Y-88661944D01*
X147935581Y-88645393D01*
X148193552Y-88640069D01*
X148466920Y-88644033D01*
X148466920Y-88644033D01*
G37*
X148466920Y-88644033D02*
X148734680Y-88654557D01*
X148949754Y-88672226D01*
X149117879Y-88699708D01*
X149244791Y-88739676D01*
X149336226Y-88794798D01*
X149397920Y-88867746D01*
X149435610Y-88961190D01*
X149455032Y-89077800D01*
X149457298Y-89105085D01*
X149470041Y-89281257D01*
X149246797Y-89281257D01*
X149133900Y-89280292D01*
X149067363Y-89274838D01*
X149034952Y-89261062D01*
X149024439Y-89235129D01*
X149023552Y-89211262D01*
X148996232Y-89114321D01*
X148920533Y-89036719D01*
X148805846Y-88988019D01*
X148803829Y-88987546D01*
X148714898Y-88975110D01*
X148583636Y-88966723D01*
X148426165Y-88962400D01*
X148258607Y-88962156D01*
X148097085Y-88966006D01*
X147957722Y-88973967D01*
X147856639Y-88986051D01*
X147853432Y-88986657D01*
X147739932Y-89023861D01*
X147674212Y-89087793D01*
X147648010Y-89188078D01*
X147646620Y-89227588D01*
X147649820Y-89288507D01*
X147663697Y-89336448D01*
X147694673Y-89373277D01*
X147749169Y-89400858D01*
X147833603Y-89421055D01*
X147954396Y-89435734D01*
X148117968Y-89446760D01*
X148330740Y-89455996D01*
X148447416Y-89460175D01*
X148644111Y-89468317D01*
X148827635Y-89478405D01*
X148987578Y-89489673D01*
X149113535Y-89501353D01*
X149195095Y-89512677D01*
X149211671Y-89516544D01*
X149338421Y-89572505D01*
X149429886Y-89658351D01*
X149488529Y-89779606D01*
X149516816Y-89941793D01*
X149517212Y-90150436D01*
X149514403Y-90194880D01*
X149488121Y-90362616D01*
X149432129Y-90489022D01*
X149339812Y-90580510D01*
X149204553Y-90643491D01*
X149019736Y-90684378D01*
X149007406Y-90686199D01*
X148891142Y-90697485D01*
X148730759Y-90705508D01*
X148540640Y-90710287D01*
X148335168Y-90711840D01*
X148128725Y-90710183D01*
X147935693Y-90705335D01*
X147770456Y-90697313D01*
X147647395Y-90686135D01*
X147635717Y-90684520D01*
X147452948Y-90639792D01*
X147318939Y-90564325D01*
X147230795Y-90455034D01*
X147185622Y-90308833D01*
X147177923Y-90196771D01*
X147177878Y-90042964D01*
X147617324Y-90042964D01*
X147617324Y-90127608D01*
X147643952Y-90235297D01*
X147720030Y-90317030D01*
X147837047Y-90365972D01*
X147922850Y-90377856D01*
X148051844Y-90386108D01*
X148208740Y-90390717D01*
X148378251Y-90391671D01*
X148545085Y-90388958D01*
X148693955Y-90382568D01*
X148809571Y-90372488D01*
X148846711Y-90366738D01*
X148972968Y-90320872D01*
X149051363Y-90241328D01*
X149081733Y-90128283D01*
X149082145Y-90111034D01*
X149078437Y-90028873D01*
X149063060Y-89964257D01*
X149029638Y-89914777D01*
X148971796Y-89878028D01*
X148883158Y-89851603D01*
X148757346Y-89833095D01*
X148587985Y-89820097D01*
X148368698Y-89810204D01*
X148276494Y-89806944D01*
X148082618Y-89798872D01*
X147899799Y-89788484D01*
X147739383Y-89776641D01*
X147612712Y-89764201D01*
X147531131Y-89752022D01*
X147521702Y-89749818D01*
X147379773Y-89686483D01*
X147277495Y-89583703D01*
X147220999Y-89447780D01*
X147219238Y-89438916D01*
X147208513Y-89327561D01*
X147210453Y-89195039D01*
X147223144Y-89060693D01*
X147244674Y-88943863D01*
X147273127Y-88863890D01*
X147276713Y-88857998D01*
X147340649Y-88787750D01*
X147433616Y-88732244D01*
X147560501Y-88690602D01*
X147726194Y-88661944D01*
X147935581Y-88645393D01*
X148193552Y-88640069D01*
X148466920Y-88644033D01*
G36*
X151250081Y-88644033D02*
X151517840Y-88654557D01*
X151732915Y-88672226D01*
X151901039Y-88699708D01*
X152027951Y-88739676D01*
X152119386Y-88794798D01*
X152181081Y-88867746D01*
X152218771Y-88961190D01*
X152238192Y-89077800D01*
X152240458Y-89105085D01*
X152253201Y-89281257D01*
X152029957Y-89281257D01*
X151917061Y-89280292D01*
X151850523Y-89274838D01*
X151818113Y-89261062D01*
X151807599Y-89235129D01*
X151806713Y-89211262D01*
X151779392Y-89114321D01*
X151703693Y-89036719D01*
X151589007Y-88988019D01*
X151586990Y-88987546D01*
X151498059Y-88975110D01*
X151366796Y-88966723D01*
X151209325Y-88962400D01*
X151041768Y-88962156D01*
X150880246Y-88966006D01*
X150740882Y-88973967D01*
X150639800Y-88986051D01*
X150636592Y-88986657D01*
X150523092Y-89023861D01*
X150457372Y-89087793D01*
X150431171Y-89188078D01*
X150429781Y-89227588D01*
X150432980Y-89288507D01*
X150446858Y-89336448D01*
X150477834Y-89373277D01*
X150532329Y-89400858D01*
X150616763Y-89421055D01*
X150737556Y-89435734D01*
X150901129Y-89446760D01*
X151113901Y-89455996D01*
X151230577Y-89460175D01*
X151427271Y-89468317D01*
X151610795Y-89478405D01*
X151770739Y-89489673D01*
X151896695Y-89501353D01*
X151978256Y-89512677D01*
X151994831Y-89516544D01*
X152121581Y-89572505D01*
X152213046Y-89658351D01*
X152271689Y-89779606D01*
X152299977Y-89941793D01*
X152300373Y-90150436D01*
X152297563Y-90194880D01*
X152271281Y-90362616D01*
X152215289Y-90489022D01*
X152122972Y-90580510D01*
X151987713Y-90643491D01*
X151802896Y-90684378D01*
X151790567Y-90686199D01*
X151674302Y-90697485D01*
X151513919Y-90705508D01*
X151323800Y-90710287D01*
X151118328Y-90711840D01*
X150911885Y-90710183D01*
X150718853Y-90705335D01*
X150553616Y-90697313D01*
X150430555Y-90686135D01*
X150418878Y-90684520D01*
X150236108Y-90639792D01*
X150102099Y-90564325D01*
X150013956Y-90455034D01*
X149968783Y-90308833D01*
X149961084Y-90196771D01*
X149961038Y-90042964D01*
X150400484Y-90042964D01*
X150400484Y-90127608D01*
X150427112Y-90235297D01*
X150503190Y-90317030D01*
X150620208Y-90365972D01*
X150706010Y-90377856D01*
X150835004Y-90386108D01*
X150991901Y-90390717D01*
X151161411Y-90391671D01*
X151328246Y-90388958D01*
X151477115Y-90382568D01*
X151592731Y-90372488D01*
X151629871Y-90366738D01*
X151756128Y-90320872D01*
X151834524Y-90241328D01*
X151864894Y-90128283D01*
X151865306Y-90111034D01*
X151861597Y-90028873D01*
X151846220Y-89964257D01*
X151812799Y-89914777D01*
X151754957Y-89878028D01*
X151666318Y-89851603D01*
X151540506Y-89833095D01*
X151371145Y-89820097D01*
X151151859Y-89810204D01*
X151059654Y-89806944D01*
X150865778Y-89798872D01*
X150682960Y-89788484D01*
X150522543Y-89776641D01*
X150395873Y-89764201D01*
X150314291Y-89752022D01*
X150304862Y-89749818D01*
X150162934Y-89686483D01*
X150060656Y-89583703D01*
X150004160Y-89447780D01*
X150002399Y-89438916D01*
X149991673Y-89327561D01*
X149993613Y-89195039D01*
X150006305Y-89060693D01*
X150027834Y-88943863D01*
X150056288Y-88863890D01*
X150059873Y-88857998D01*
X150123809Y-88787750D01*
X150216776Y-88732244D01*
X150343662Y-88690602D01*
X150509354Y-88661944D01*
X150718742Y-88645393D01*
X150976712Y-88640069D01*
X151250081Y-88644033D01*
X151250081Y-88644033D01*
G37*
X151250081Y-88644033D02*
X151517840Y-88654557D01*
X151732915Y-88672226D01*
X151901039Y-88699708D01*
X152027951Y-88739676D01*
X152119386Y-88794798D01*
X152181081Y-88867746D01*
X152218771Y-88961190D01*
X152238192Y-89077800D01*
X152240458Y-89105085D01*
X152253201Y-89281257D01*
X152029957Y-89281257D01*
X151917061Y-89280292D01*
X151850523Y-89274838D01*
X151818113Y-89261062D01*
X151807599Y-89235129D01*
X151806713Y-89211262D01*
X151779392Y-89114321D01*
X151703693Y-89036719D01*
X151589007Y-88988019D01*
X151586990Y-88987546D01*
X151498059Y-88975110D01*
X151366796Y-88966723D01*
X151209325Y-88962400D01*
X151041768Y-88962156D01*
X150880246Y-88966006D01*
X150740882Y-88973967D01*
X150639800Y-88986051D01*
X150636592Y-88986657D01*
X150523092Y-89023861D01*
X150457372Y-89087793D01*
X150431171Y-89188078D01*
X150429781Y-89227588D01*
X150432980Y-89288507D01*
X150446858Y-89336448D01*
X150477834Y-89373277D01*
X150532329Y-89400858D01*
X150616763Y-89421055D01*
X150737556Y-89435734D01*
X150901129Y-89446760D01*
X151113901Y-89455996D01*
X151230577Y-89460175D01*
X151427271Y-89468317D01*
X151610795Y-89478405D01*
X151770739Y-89489673D01*
X151896695Y-89501353D01*
X151978256Y-89512677D01*
X151994831Y-89516544D01*
X152121581Y-89572505D01*
X152213046Y-89658351D01*
X152271689Y-89779606D01*
X152299977Y-89941793D01*
X152300373Y-90150436D01*
X152297563Y-90194880D01*
X152271281Y-90362616D01*
X152215289Y-90489022D01*
X152122972Y-90580510D01*
X151987713Y-90643491D01*
X151802896Y-90684378D01*
X151790567Y-90686199D01*
X151674302Y-90697485D01*
X151513919Y-90705508D01*
X151323800Y-90710287D01*
X151118328Y-90711840D01*
X150911885Y-90710183D01*
X150718853Y-90705335D01*
X150553616Y-90697313D01*
X150430555Y-90686135D01*
X150418878Y-90684520D01*
X150236108Y-90639792D01*
X150102099Y-90564325D01*
X150013956Y-90455034D01*
X149968783Y-90308833D01*
X149961084Y-90196771D01*
X149961038Y-90042964D01*
X150400484Y-90042964D01*
X150400484Y-90127608D01*
X150427112Y-90235297D01*
X150503190Y-90317030D01*
X150620208Y-90365972D01*
X150706010Y-90377856D01*
X150835004Y-90386108D01*
X150991901Y-90390717D01*
X151161411Y-90391671D01*
X151328246Y-90388958D01*
X151477115Y-90382568D01*
X151592731Y-90372488D01*
X151629871Y-90366738D01*
X151756128Y-90320872D01*
X151834524Y-90241328D01*
X151864894Y-90128283D01*
X151865306Y-90111034D01*
X151861597Y-90028873D01*
X151846220Y-89964257D01*
X151812799Y-89914777D01*
X151754957Y-89878028D01*
X151666318Y-89851603D01*
X151540506Y-89833095D01*
X151371145Y-89820097D01*
X151151859Y-89810204D01*
X151059654Y-89806944D01*
X150865778Y-89798872D01*
X150682960Y-89788484D01*
X150522543Y-89776641D01*
X150395873Y-89764201D01*
X150314291Y-89752022D01*
X150304862Y-89749818D01*
X150162934Y-89686483D01*
X150060656Y-89583703D01*
X150004160Y-89447780D01*
X150002399Y-89438916D01*
X149991673Y-89327561D01*
X149993613Y-89195039D01*
X150006305Y-89060693D01*
X150027834Y-88943863D01*
X150056288Y-88863890D01*
X150059873Y-88857998D01*
X150123809Y-88787750D01*
X150216776Y-88732244D01*
X150343662Y-88690602D01*
X150509354Y-88661944D01*
X150718742Y-88645393D01*
X150976712Y-88640069D01*
X151250081Y-88644033D01*
G36*
X129226494Y-88642267D02*
X129491924Y-88644893D01*
X129705462Y-88647576D01*
X129873806Y-88650764D01*
X130003657Y-88654907D01*
X130101713Y-88660455D01*
X130174673Y-88667858D01*
X130229237Y-88677565D01*
X130272103Y-88690026D01*
X130309971Y-88705691D01*
X130332434Y-88716495D01*
X130435074Y-88777906D01*
X130500825Y-88849767D01*
X130538544Y-88947300D01*
X130557090Y-89085726D01*
X130558383Y-89104780D01*
X130552346Y-89281218D01*
X130507111Y-89419028D01*
X130419654Y-89525672D01*
X130373920Y-89560115D01*
X130283572Y-89620417D01*
X130392975Y-89667139D01*
X130492427Y-89725489D01*
X130558987Y-89807268D01*
X130598705Y-89923647D01*
X130617378Y-90081328D01*
X130609658Y-90278378D01*
X130560639Y-90434799D01*
X130469564Y-90552270D01*
X130376378Y-90614245D01*
X130341457Y-90630074D01*
X130302247Y-90642884D01*
X130252261Y-90653067D01*
X130185011Y-90661014D01*
X130094011Y-90667117D01*
X129972774Y-90671768D01*
X129814812Y-90675358D01*
X129613638Y-90678279D01*
X129362764Y-90680923D01*
X129255790Y-90681912D01*
X128252388Y-90690987D01*
X128252388Y-90365225D01*
X128691834Y-90365225D01*
X129285086Y-90364526D01*
X129473613Y-90363022D01*
X129649162Y-90359243D01*
X129800652Y-90353612D01*
X129917003Y-90346553D01*
X129987133Y-90338491D01*
X129991783Y-90337507D01*
X130083407Y-90310091D01*
X130137186Y-90270623D01*
X130165148Y-90203535D01*
X130179178Y-90094948D01*
X130182151Y-89990544D01*
X130166565Y-89920056D01*
X130133040Y-89866870D01*
X130074036Y-89793945D01*
X129382935Y-89785116D01*
X128691834Y-89776286D01*
X128691834Y-90365225D01*
X128252388Y-90365225D01*
X128252388Y-89489448D01*
X128691834Y-89489448D01*
X129353641Y-89480566D01*
X129566917Y-89477550D01*
X129729332Y-89474419D01*
X129848612Y-89470332D01*
X129932486Y-89464449D01*
X129988680Y-89455929D01*
X130024921Y-89443934D01*
X130048937Y-89427622D01*
X130068455Y-89406153D01*
X130071403Y-89402521D01*
X130116728Y-89305241D01*
X130124734Y-89189135D01*
X130095421Y-89080551D01*
X130071403Y-89042807D01*
X130051896Y-89020512D01*
X130029023Y-89003496D01*
X129995058Y-88990921D01*
X129942273Y-88981944D01*
X129862941Y-88975727D01*
X129749335Y-88971430D01*
X129593728Y-88968211D01*
X129388393Y-88965230D01*
X129353641Y-88964763D01*
X128691834Y-88955881D01*
X128691834Y-89489448D01*
X128252388Y-89489448D01*
X128252388Y-88633150D01*
X129226494Y-88642267D01*
X129226494Y-88642267D01*
G37*
X129226494Y-88642267D02*
X129491924Y-88644893D01*
X129705462Y-88647576D01*
X129873806Y-88650764D01*
X130003657Y-88654907D01*
X130101713Y-88660455D01*
X130174673Y-88667858D01*
X130229237Y-88677565D01*
X130272103Y-88690026D01*
X130309971Y-88705691D01*
X130332434Y-88716495D01*
X130435074Y-88777906D01*
X130500825Y-88849767D01*
X130538544Y-88947300D01*
X130557090Y-89085726D01*
X130558383Y-89104780D01*
X130552346Y-89281218D01*
X130507111Y-89419028D01*
X130419654Y-89525672D01*
X130373920Y-89560115D01*
X130283572Y-89620417D01*
X130392975Y-89667139D01*
X130492427Y-89725489D01*
X130558987Y-89807268D01*
X130598705Y-89923647D01*
X130617378Y-90081328D01*
X130609658Y-90278378D01*
X130560639Y-90434799D01*
X130469564Y-90552270D01*
X130376378Y-90614245D01*
X130341457Y-90630074D01*
X130302247Y-90642884D01*
X130252261Y-90653067D01*
X130185011Y-90661014D01*
X130094011Y-90667117D01*
X129972774Y-90671768D01*
X129814812Y-90675358D01*
X129613638Y-90678279D01*
X129362764Y-90680923D01*
X129255790Y-90681912D01*
X128252388Y-90690987D01*
X128252388Y-90365225D01*
X128691834Y-90365225D01*
X129285086Y-90364526D01*
X129473613Y-90363022D01*
X129649162Y-90359243D01*
X129800652Y-90353612D01*
X129917003Y-90346553D01*
X129987133Y-90338491D01*
X129991783Y-90337507D01*
X130083407Y-90310091D01*
X130137186Y-90270623D01*
X130165148Y-90203535D01*
X130179178Y-90094948D01*
X130182151Y-89990544D01*
X130166565Y-89920056D01*
X130133040Y-89866870D01*
X130074036Y-89793945D01*
X129382935Y-89785116D01*
X128691834Y-89776286D01*
X128691834Y-90365225D01*
X128252388Y-90365225D01*
X128252388Y-89489448D01*
X128691834Y-89489448D01*
X129353641Y-89480566D01*
X129566917Y-89477550D01*
X129729332Y-89474419D01*
X129848612Y-89470332D01*
X129932486Y-89464449D01*
X129988680Y-89455929D01*
X130024921Y-89443934D01*
X130048937Y-89427622D01*
X130068455Y-89406153D01*
X130071403Y-89402521D01*
X130116728Y-89305241D01*
X130124734Y-89189135D01*
X130095421Y-89080551D01*
X130071403Y-89042807D01*
X130051896Y-89020512D01*
X130029023Y-89003496D01*
X129995058Y-88990921D01*
X129942273Y-88981944D01*
X129862941Y-88975727D01*
X129749335Y-88971430D01*
X129593728Y-88968211D01*
X129388393Y-88965230D01*
X129353641Y-88964763D01*
X128691834Y-88955881D01*
X128691834Y-89489448D01*
X128252388Y-89489448D01*
X128252388Y-88633150D01*
X129226494Y-88642267D01*
G36*
X132485721Y-88637178D02*
X132866574Y-89346103D01*
X132977739Y-89553034D01*
X133089797Y-89761640D01*
X133196760Y-89960774D01*
X133292640Y-90139286D01*
X133371448Y-90286028D01*
X133417213Y-90371257D01*
X133586999Y-90687486D01*
X133087034Y-90687486D01*
X132880486Y-90277336D01*
X131505027Y-90277336D01*
X131298479Y-90687486D01*
X131064476Y-90687486D01*
X130955727Y-90685257D01*
X130873871Y-90679335D01*
X130832783Y-90670866D01*
X130830473Y-90668155D01*
X130844041Y-90639003D01*
X130882734Y-90564098D01*
X130943535Y-90449080D01*
X131023427Y-90299590D01*
X131119393Y-90121268D01*
X131221562Y-89932415D01*
X131684952Y-89932415D01*
X131709427Y-89939719D01*
X131783374Y-89946045D01*
X131897676Y-89950982D01*
X132043213Y-89954122D01*
X132190315Y-89955075D01*
X132356698Y-89954028D01*
X132500707Y-89951121D01*
X132612989Y-89946708D01*
X132684192Y-89941142D01*
X132705444Y-89935623D01*
X132692557Y-89904531D01*
X132657428Y-89831935D01*
X132605354Y-89728048D01*
X132541633Y-89603082D01*
X132471562Y-89467250D01*
X132400439Y-89330765D01*
X132333562Y-89203840D01*
X132276227Y-89096688D01*
X132233734Y-89019522D01*
X132211379Y-88982554D01*
X132210571Y-88981586D01*
X132193358Y-89001050D01*
X132154178Y-89062975D01*
X132098249Y-89157919D01*
X132030793Y-89276438D01*
X131957028Y-89409090D01*
X131882175Y-89546433D01*
X131811454Y-89679024D01*
X131750085Y-89797420D01*
X131703286Y-89892180D01*
X131684952Y-89932415D01*
X131221562Y-89932415D01*
X131228414Y-89919751D01*
X131347475Y-89700682D01*
X131379029Y-89642780D01*
X131927585Y-88636736D01*
X132485721Y-88637178D01*
X132485721Y-88637178D01*
G37*
X132485721Y-88637178D02*
X132866574Y-89346103D01*
X132977739Y-89553034D01*
X133089797Y-89761640D01*
X133196760Y-89960774D01*
X133292640Y-90139286D01*
X133371448Y-90286028D01*
X133417213Y-90371257D01*
X133586999Y-90687486D01*
X133087034Y-90687486D01*
X132880486Y-90277336D01*
X131505027Y-90277336D01*
X131298479Y-90687486D01*
X131064476Y-90687486D01*
X130955727Y-90685257D01*
X130873871Y-90679335D01*
X130832783Y-90670866D01*
X130830473Y-90668155D01*
X130844041Y-90639003D01*
X130882734Y-90564098D01*
X130943535Y-90449080D01*
X131023427Y-90299590D01*
X131119393Y-90121268D01*
X131221562Y-89932415D01*
X131684952Y-89932415D01*
X131709427Y-89939719D01*
X131783374Y-89946045D01*
X131897676Y-89950982D01*
X132043213Y-89954122D01*
X132190315Y-89955075D01*
X132356698Y-89954028D01*
X132500707Y-89951121D01*
X132612989Y-89946708D01*
X132684192Y-89941142D01*
X132705444Y-89935623D01*
X132692557Y-89904531D01*
X132657428Y-89831935D01*
X132605354Y-89728048D01*
X132541633Y-89603082D01*
X132471562Y-89467250D01*
X132400439Y-89330765D01*
X132333562Y-89203840D01*
X132276227Y-89096688D01*
X132233734Y-89019522D01*
X132211379Y-88982554D01*
X132210571Y-88981586D01*
X132193358Y-89001050D01*
X132154178Y-89062975D01*
X132098249Y-89157919D01*
X132030793Y-89276438D01*
X131957028Y-89409090D01*
X131882175Y-89546433D01*
X131811454Y-89679024D01*
X131750085Y-89797420D01*
X131703286Y-89892180D01*
X131684952Y-89932415D01*
X131221562Y-89932415D01*
X131228414Y-89919751D01*
X131347475Y-89700682D01*
X131379029Y-89642780D01*
X131927585Y-88636736D01*
X132485721Y-88637178D01*
G36*
X137158501Y-89486332D02*
X137495409Y-89486050D01*
X138487347Y-88636736D01*
X138780917Y-88636736D01*
X138903840Y-88639026D01*
X138994383Y-88645273D01*
X139042722Y-88654547D01*
X139046655Y-88661944D01*
X139019454Y-88684624D01*
X138954433Y-88738089D01*
X138858950Y-88816329D01*
X138740367Y-88913340D01*
X138606043Y-89023112D01*
X138463339Y-89139640D01*
X138319613Y-89256916D01*
X138182227Y-89368932D01*
X138058540Y-89469683D01*
X137955913Y-89553160D01*
X137881706Y-89613357D01*
X137843277Y-89644267D01*
X137839824Y-89646932D01*
X137860258Y-89665281D01*
X137921516Y-89714621D01*
X138017816Y-89790432D01*
X138143376Y-89888195D01*
X138292412Y-90003391D01*
X138459143Y-90131500D01*
X138491669Y-90156410D01*
X138661530Y-90286883D01*
X138815159Y-90405755D01*
X138946684Y-90508412D01*
X139050235Y-90590244D01*
X139119940Y-90646636D01*
X139149930Y-90672977D01*
X139150657Y-90674161D01*
X139123395Y-90679670D01*
X139049741Y-90684070D01*
X138941892Y-90686823D01*
X138847785Y-90687486D01*
X138544913Y-90687486D01*
X138010102Y-90262687D01*
X137475291Y-89837889D01*
X137158501Y-89837889D01*
X137158501Y-90687486D01*
X136719054Y-90687486D01*
X136719054Y-88636736D01*
X137158501Y-88636736D01*
X137158501Y-89486332D01*
X137158501Y-89486332D01*
G37*
X137158501Y-89486332D02*
X137495409Y-89486050D01*
X138487347Y-88636736D01*
X138780917Y-88636736D01*
X138903840Y-88639026D01*
X138994383Y-88645273D01*
X139042722Y-88654547D01*
X139046655Y-88661944D01*
X139019454Y-88684624D01*
X138954433Y-88738089D01*
X138858950Y-88816329D01*
X138740367Y-88913340D01*
X138606043Y-89023112D01*
X138463339Y-89139640D01*
X138319613Y-89256916D01*
X138182227Y-89368932D01*
X138058540Y-89469683D01*
X137955913Y-89553160D01*
X137881706Y-89613357D01*
X137843277Y-89644267D01*
X137839824Y-89646932D01*
X137860258Y-89665281D01*
X137921516Y-89714621D01*
X138017816Y-89790432D01*
X138143376Y-89888195D01*
X138292412Y-90003391D01*
X138459143Y-90131500D01*
X138491669Y-90156410D01*
X138661530Y-90286883D01*
X138815159Y-90405755D01*
X138946684Y-90508412D01*
X139050235Y-90590244D01*
X139119940Y-90646636D01*
X139149930Y-90672977D01*
X139150657Y-90674161D01*
X139123395Y-90679670D01*
X139049741Y-90684070D01*
X138941892Y-90686823D01*
X138847785Y-90687486D01*
X138544913Y-90687486D01*
X138010102Y-90262687D01*
X137475291Y-89837889D01*
X137158501Y-89837889D01*
X137158501Y-90687486D01*
X136719054Y-90687486D01*
X136719054Y-88636736D01*
X137158501Y-88636736D01*
X137158501Y-89486332D01*
G36*
X142636932Y-90335929D02*
X143266805Y-90335929D01*
X143451739Y-90336901D01*
X143615146Y-90339622D01*
X143748580Y-90343796D01*
X143843594Y-90349129D01*
X143891742Y-90355326D01*
X143895994Y-90357901D01*
X143882571Y-90393792D01*
X143848636Y-90463467D01*
X143815329Y-90526355D01*
X143735348Y-90672837D01*
X142966417Y-90680648D01*
X142197486Y-90688458D01*
X142197486Y-88636736D01*
X142636932Y-88636736D01*
X142636932Y-90335929D01*
X142636932Y-90335929D01*
G37*
X142636932Y-90335929D02*
X143266805Y-90335929D01*
X143451739Y-90336901D01*
X143615146Y-90339622D01*
X143748580Y-90343796D01*
X143843594Y-90349129D01*
X143891742Y-90355326D01*
X143895994Y-90357901D01*
X143882571Y-90393792D01*
X143848636Y-90463467D01*
X143815329Y-90526355D01*
X143735348Y-90672837D01*
X142966417Y-90680648D01*
X142197486Y-90688458D01*
X142197486Y-88636736D01*
X142636932Y-88636736D01*
X142636932Y-90335929D01*
G36*
X145565823Y-88636957D02*
X145844890Y-88637178D01*
X146225744Y-89346103D01*
X146336908Y-89553034D01*
X146448966Y-89761640D01*
X146555930Y-89960774D01*
X146651809Y-90139286D01*
X146730617Y-90286028D01*
X146776383Y-90371257D01*
X146946168Y-90687486D01*
X146446204Y-90687486D01*
X146342930Y-90482411D01*
X146239655Y-90277336D01*
X144864197Y-90277336D01*
X144657649Y-90687486D01*
X144423645Y-90687486D01*
X144314897Y-90685257D01*
X144233041Y-90679335D01*
X144191952Y-90670866D01*
X144189642Y-90668155D01*
X144203211Y-90639003D01*
X144241904Y-90564098D01*
X144302705Y-90449080D01*
X144382597Y-90299590D01*
X144478562Y-90121268D01*
X144580732Y-89932415D01*
X145044121Y-89932415D01*
X145068597Y-89939719D01*
X145142544Y-89946045D01*
X145256845Y-89950982D01*
X145402382Y-89954122D01*
X145549485Y-89955075D01*
X145715867Y-89954028D01*
X145859876Y-89951121D01*
X145972159Y-89946708D01*
X146043362Y-89941142D01*
X146064614Y-89935623D01*
X146051727Y-89904531D01*
X146016597Y-89831935D01*
X145964523Y-89728048D01*
X145900802Y-89603082D01*
X145830731Y-89467250D01*
X145759609Y-89330765D01*
X145692731Y-89203840D01*
X145635397Y-89096688D01*
X145592904Y-89019522D01*
X145570548Y-88982554D01*
X145569741Y-88981586D01*
X145552528Y-89001050D01*
X145513347Y-89062975D01*
X145457419Y-89157919D01*
X145389962Y-89276438D01*
X145316198Y-89409090D01*
X145241345Y-89546433D01*
X145170624Y-89679024D01*
X145109254Y-89797420D01*
X145062456Y-89892180D01*
X145044121Y-89932415D01*
X144580732Y-89932415D01*
X144587584Y-89919751D01*
X144706645Y-89700682D01*
X144738199Y-89642780D01*
X145286755Y-88636736D01*
X145565823Y-88636957D01*
X145565823Y-88636957D01*
G37*
X145565823Y-88636957D02*
X145844890Y-88637178D01*
X146225744Y-89346103D01*
X146336908Y-89553034D01*
X146448966Y-89761640D01*
X146555930Y-89960774D01*
X146651809Y-90139286D01*
X146730617Y-90286028D01*
X146776383Y-90371257D01*
X146946168Y-90687486D01*
X146446204Y-90687486D01*
X146342930Y-90482411D01*
X146239655Y-90277336D01*
X144864197Y-90277336D01*
X144657649Y-90687486D01*
X144423645Y-90687486D01*
X144314897Y-90685257D01*
X144233041Y-90679335D01*
X144191952Y-90670866D01*
X144189642Y-90668155D01*
X144203211Y-90639003D01*
X144241904Y-90564098D01*
X144302705Y-90449080D01*
X144382597Y-90299590D01*
X144478562Y-90121268D01*
X144580732Y-89932415D01*
X145044121Y-89932415D01*
X145068597Y-89939719D01*
X145142544Y-89946045D01*
X145256845Y-89950982D01*
X145402382Y-89954122D01*
X145549485Y-89955075D01*
X145715867Y-89954028D01*
X145859876Y-89951121D01*
X145972159Y-89946708D01*
X146043362Y-89941142D01*
X146064614Y-89935623D01*
X146051727Y-89904531D01*
X146016597Y-89831935D01*
X145964523Y-89728048D01*
X145900802Y-89603082D01*
X145830731Y-89467250D01*
X145759609Y-89330765D01*
X145692731Y-89203840D01*
X145635397Y-89096688D01*
X145592904Y-89019522D01*
X145570548Y-88982554D01*
X145569741Y-88981586D01*
X145552528Y-89001050D01*
X145513347Y-89062975D01*
X145457419Y-89157919D01*
X145389962Y-89276438D01*
X145316198Y-89409090D01*
X145241345Y-89546433D01*
X145170624Y-89679024D01*
X145109254Y-89797420D01*
X145062456Y-89892180D01*
X145044121Y-89932415D01*
X144580732Y-89932415D01*
X144587584Y-89919751D01*
X144706645Y-89700682D01*
X144738199Y-89642780D01*
X145286755Y-88636736D01*
X145565823Y-88636957D01*
M02*
