G04 #@! TF.FileFunction,Copper,L2,Bot,Signal*
%FSLAX46Y46*%
G04 Gerber Fmt 4.6, Leading zero omitted, Abs format (unit mm)*
G04 Created by KiCad (PCBNEW 4.0.3-stable) date 04/12/17 00:36:20*
%MOMM*%
%LPD*%
G01*
G04 APERTURE LIST*
%ADD10C,0.100000*%
%ADD11O,1.550000X0.550000*%
%ADD12O,0.550000X1.550000*%
%ADD13R,0.950000X1.000000*%
%ADD14R,1.000000X0.950000*%
%ADD15R,1.300000X1.300000*%
%ADD16C,1.300000*%
%ADD17R,1.050000X1.400000*%
%ADD18O,0.600000X1.300000*%
%ADD19O,1.300000X0.600000*%
%ADD20R,1.250000X2.700000*%
%ADD21R,1.500000X1.500000*%
%ADD22C,1.500000*%
%ADD23C,2.100000*%
%ADD24R,0.800000X0.800000*%
%ADD25C,0.800000*%
%ADD26O,0.400000X0.950000*%
%ADD27R,0.900000X1.950000*%
%ADD28R,3.200000X1.950000*%
%ADD29R,0.800000X0.900000*%
%ADD30R,0.550000X0.900000*%
%ADD31R,1.400000X1.300000*%
%ADD32C,0.600000*%
%ADD33C,0.550000*%
%ADD34C,0.250000*%
%ADD35C,0.600000*%
%ADD36C,0.400000*%
G04 APERTURE END LIST*
D10*
D11*
X124450000Y-99170000D03*
X124450000Y-98370000D03*
X124450000Y-97570000D03*
X124450000Y-96770000D03*
X124450000Y-95970000D03*
X124450000Y-95170000D03*
X124450000Y-94370000D03*
X124450000Y-93570000D03*
D12*
X125900000Y-92120000D03*
X126700000Y-92120000D03*
X127500000Y-92120000D03*
X128300000Y-92120000D03*
X129100000Y-92120000D03*
X129900000Y-92120000D03*
X130700000Y-92120000D03*
X131500000Y-92120000D03*
D11*
X132950000Y-93570000D03*
X132950000Y-94370000D03*
X132950000Y-95170000D03*
X132950000Y-95970000D03*
X132950000Y-96770000D03*
X132950000Y-97570000D03*
X132950000Y-98370000D03*
X132950000Y-99170000D03*
D12*
X131500000Y-100620000D03*
X130700000Y-100620000D03*
X129900000Y-100620000D03*
X129100000Y-100620000D03*
X128300000Y-100620000D03*
X127500000Y-100620000D03*
X126700000Y-100620000D03*
X125900000Y-100620000D03*
D13*
X117710000Y-84980000D03*
X117710000Y-86480000D03*
X121160000Y-106690000D03*
X121160000Y-108190000D03*
D14*
X151130000Y-104980000D03*
X152630000Y-104980000D03*
D15*
X162850000Y-108260000D03*
D16*
X160350000Y-108260000D03*
D14*
X126680000Y-78430000D03*
X128180000Y-78430000D03*
D13*
X135210000Y-96320000D03*
X135210000Y-94820000D03*
X122290000Y-95620000D03*
X122290000Y-97120000D03*
X154160000Y-92930000D03*
X154160000Y-91430000D03*
X141240000Y-92230000D03*
X141240000Y-93730000D03*
D14*
X160030000Y-82820000D03*
X161530000Y-82820000D03*
D13*
X159580000Y-72170000D03*
X159580000Y-73670000D03*
D17*
X158030000Y-81300000D03*
X156230000Y-81300000D03*
D15*
X162850000Y-101130000D03*
D16*
X160350000Y-101130000D03*
D14*
X121880000Y-73970000D03*
X120380000Y-73970000D03*
D13*
X124580000Y-76020000D03*
X124580000Y-77520000D03*
D18*
X152730000Y-101130000D03*
X154630000Y-101130000D03*
X153680000Y-103430000D03*
D19*
X161520000Y-74420000D03*
X161520000Y-72520000D03*
X163820000Y-73470000D03*
D18*
X152680000Y-81300000D03*
X154580000Y-81300000D03*
X153630000Y-83600000D03*
D15*
X132080000Y-86630000D03*
D16*
X134620000Y-86630000D03*
X137160000Y-86630000D03*
X139700000Y-86630000D03*
X142240000Y-86630000D03*
X144780000Y-86630000D03*
X147320000Y-86630000D03*
X149860000Y-86630000D03*
X149860000Y-76470000D03*
X147320000Y-76470000D03*
X144780000Y-76470000D03*
X142240000Y-76470000D03*
X139700000Y-76470000D03*
X137160000Y-76470000D03*
X134620000Y-76470000D03*
X132080000Y-76470000D03*
D20*
X161230000Y-76870000D03*
X164130000Y-76870000D03*
D21*
X132080000Y-109220000D03*
D22*
X134620000Y-109220000D03*
X137160000Y-109220000D03*
X139700000Y-109220000D03*
X142240000Y-109220000D03*
X144780000Y-109220000D03*
X147320000Y-109220000D03*
X149860000Y-109220000D03*
X152400000Y-109220000D03*
X154940000Y-109220000D03*
X154940000Y-106680000D03*
X152400000Y-106680000D03*
X149860000Y-106680000D03*
X147320000Y-106680000D03*
X144780000Y-106680000D03*
X142240000Y-106680000D03*
X139700000Y-106680000D03*
X137160000Y-106680000D03*
X134620000Y-106680000D03*
X132080000Y-106680000D03*
D21*
X126740000Y-104150000D03*
D22*
X126740000Y-106690000D03*
X126740000Y-109230000D03*
D21*
X129270000Y-104150000D03*
D22*
X129270000Y-106690000D03*
X129270000Y-109230000D03*
D23*
X118290000Y-91300000D03*
X118290000Y-99200000D03*
D21*
X163830000Y-83820000D03*
D22*
X163830000Y-86360000D03*
D24*
X129740000Y-79410000D03*
D25*
X129740000Y-80680000D03*
X131010000Y-79410000D03*
X131010000Y-80680000D03*
X132280000Y-79410000D03*
X132280000Y-80680000D03*
D24*
X132950000Y-90850000D03*
D25*
X132950000Y-92120000D03*
X134220000Y-90850000D03*
X134220000Y-92120000D03*
X135490000Y-90850000D03*
X135490000Y-92120000D03*
D24*
X151900000Y-87460000D03*
D25*
X151900000Y-88730000D03*
X153170000Y-87460000D03*
X153170000Y-88730000D03*
X154440000Y-87460000D03*
X154440000Y-88730000D03*
D18*
X149130000Y-101130000D03*
X151030000Y-101130000D03*
X150080000Y-103430000D03*
X161900000Y-103550000D03*
X163800000Y-103550000D03*
X162850000Y-105850000D03*
X162850000Y-103550000D03*
X163800000Y-105850000D03*
X161900000Y-105850000D03*
D26*
X134880000Y-82800000D03*
X135530000Y-82800000D03*
X136180000Y-82800000D03*
X136180000Y-85000000D03*
X134880000Y-85000000D03*
X135530000Y-85000000D03*
X148300000Y-82800000D03*
X148950000Y-82800000D03*
X149600000Y-82800000D03*
X149600000Y-85000000D03*
X148300000Y-85000000D03*
X148950000Y-85000000D03*
D14*
X128180000Y-76470000D03*
X126680000Y-76470000D03*
X146310000Y-74690000D03*
X144810000Y-74690000D03*
D13*
X119660000Y-106690000D03*
X119660000Y-108190000D03*
X122660000Y-106690000D03*
X122660000Y-108190000D03*
D14*
X148330000Y-74690000D03*
X149830000Y-74690000D03*
X158700000Y-109400000D03*
X157200000Y-109400000D03*
D13*
X156470000Y-103950000D03*
X156470000Y-105450000D03*
X159580000Y-75670000D03*
X159580000Y-77170000D03*
X159580000Y-79170000D03*
X159580000Y-80670000D03*
D22*
X124410000Y-105190000D03*
X117910000Y-105190000D03*
X117910000Y-109690000D03*
X124410000Y-109690000D03*
D12*
X121630000Y-80680000D03*
X122430000Y-80680000D03*
X123230000Y-80680000D03*
X124030000Y-80680000D03*
X124830000Y-80680000D03*
X125630000Y-80680000D03*
X126430000Y-80680000D03*
X127230000Y-80680000D03*
D11*
X128680000Y-82130000D03*
X128680000Y-82930000D03*
X128680000Y-83730000D03*
X128680000Y-84530000D03*
X128680000Y-85330000D03*
X128680000Y-86130000D03*
X128680000Y-86930000D03*
X128680000Y-87730000D03*
D12*
X127230000Y-89180000D03*
X126430000Y-89180000D03*
X125630000Y-89180000D03*
X124830000Y-89180000D03*
X124030000Y-89180000D03*
X123230000Y-89180000D03*
X122430000Y-89180000D03*
X121630000Y-89180000D03*
D11*
X120180000Y-87730000D03*
X120180000Y-86930000D03*
X120180000Y-86130000D03*
X120180000Y-85330000D03*
X120180000Y-84530000D03*
X120180000Y-83730000D03*
X120180000Y-82930000D03*
X120180000Y-82130000D03*
X143400000Y-95780000D03*
X143400000Y-94980000D03*
X143400000Y-94180000D03*
X143400000Y-93380000D03*
X143400000Y-92580000D03*
X143400000Y-91780000D03*
X143400000Y-90980000D03*
X143400000Y-90180000D03*
D12*
X144850000Y-88730000D03*
X145650000Y-88730000D03*
X146450000Y-88730000D03*
X147250000Y-88730000D03*
X148050000Y-88730000D03*
X148850000Y-88730000D03*
X149650000Y-88730000D03*
X150450000Y-88730000D03*
D11*
X151900000Y-90180000D03*
X151900000Y-90980000D03*
X151900000Y-91780000D03*
X151900000Y-92580000D03*
X151900000Y-93380000D03*
X151900000Y-94180000D03*
X151900000Y-94980000D03*
X151900000Y-95780000D03*
D12*
X150450000Y-97230000D03*
X149650000Y-97230000D03*
X148850000Y-97230000D03*
X148050000Y-97230000D03*
X147250000Y-97230000D03*
X146450000Y-97230000D03*
X145650000Y-97230000D03*
X144850000Y-97230000D03*
D18*
X158300000Y-103550000D03*
X160200000Y-103550000D03*
X159250000Y-103550000D03*
X160200000Y-105850000D03*
X158300000Y-105850000D03*
D19*
X163830000Y-79320000D03*
X163830000Y-81220000D03*
X163830000Y-80270000D03*
X161530000Y-81220000D03*
X161530000Y-79320000D03*
D27*
X152930000Y-73000000D03*
D28*
X155230000Y-79100000D03*
D27*
X155230000Y-73000000D03*
X157530000Y-73000000D03*
D29*
X145005000Y-102280000D03*
D30*
X146730000Y-102280000D03*
X145930000Y-102280000D03*
D29*
X147655000Y-102280000D03*
D30*
X145930000Y-104080000D03*
D29*
X145005000Y-104080000D03*
D30*
X146730000Y-104080000D03*
D29*
X147655000Y-104080000D03*
X143455000Y-83000000D03*
D30*
X145180000Y-83000000D03*
X144380000Y-83000000D03*
D29*
X146105000Y-83000000D03*
D30*
X144380000Y-84800000D03*
D29*
X143455000Y-84800000D03*
D30*
X145180000Y-84800000D03*
D29*
X146105000Y-84800000D03*
X138375000Y-83000000D03*
D30*
X140100000Y-83000000D03*
X139300000Y-83000000D03*
D29*
X141025000Y-83000000D03*
D30*
X139300000Y-84800000D03*
D29*
X138375000Y-84800000D03*
D30*
X140100000Y-84800000D03*
D29*
X141025000Y-84800000D03*
D31*
X122880000Y-75620000D03*
X120380000Y-75620000D03*
X120380000Y-77520000D03*
X122880000Y-77520000D03*
D32*
X131590000Y-94370000D03*
X139050000Y-98380000D03*
X141790000Y-96140000D03*
X135490000Y-90850000D03*
X149840000Y-91350000D03*
X154440000Y-87460000D03*
X128300000Y-99340000D03*
X127200000Y-102800000D03*
X128540000Y-95170000D03*
X127290000Y-96770000D03*
X154160000Y-90430000D03*
X157050000Y-90430000D03*
X122290000Y-98120000D03*
X126830000Y-90650000D03*
X123780000Y-106690000D03*
X125040000Y-106690000D03*
X136190000Y-94820000D03*
X134730000Y-93360000D03*
X137790000Y-98400000D03*
X141240000Y-94950000D03*
X149230000Y-104710000D03*
X149780000Y-100290000D03*
X156690000Y-102390000D03*
X157670000Y-99530000D03*
X133710000Y-85000000D03*
X148620000Y-86030000D03*
X148300000Y-83900000D03*
X138450000Y-75490000D03*
X128930000Y-98840000D03*
X129560000Y-99340000D03*
X121460000Y-82930000D03*
X126830000Y-87450000D03*
X126830000Y-86190000D03*
X131010000Y-79410000D03*
X128370000Y-81350000D03*
X131010000Y-80680000D03*
X132280000Y-79410000D03*
X130970000Y-77250000D03*
X131500000Y-93570000D03*
X134220000Y-90850000D03*
X130700000Y-93480000D03*
X134220000Y-92120000D03*
X153170000Y-87460000D03*
X150450000Y-90180000D03*
X149650000Y-90090000D03*
X153170000Y-88730000D03*
X151640000Y-97460000D03*
X150670000Y-95500000D03*
X156200000Y-98730000D03*
X155880000Y-101940000D03*
X156860000Y-107460000D03*
X156200000Y-109000000D03*
X140660000Y-82000000D03*
X137360000Y-82000000D03*
X145810000Y-82000000D03*
X150840000Y-82410000D03*
X150840000Y-84120000D03*
X143600000Y-82000000D03*
X151410000Y-84690000D03*
X150850000Y-81610000D03*
X144100000Y-81370000D03*
X146310000Y-81370000D03*
X136860000Y-81370000D03*
X140070000Y-81370000D03*
X121460000Y-83730000D03*
X121460000Y-84530000D03*
X128380000Y-80160000D03*
X130310000Y-76790000D03*
X162680000Y-81220000D03*
X158030000Y-79150000D03*
X126140000Y-84200000D03*
X125730000Y-98850000D03*
X127280000Y-84830000D03*
X126360000Y-98350000D03*
X138460000Y-89980000D03*
X141070000Y-89980000D03*
X140320000Y-103350000D03*
X143700000Y-99970000D03*
X140710000Y-104050000D03*
X143070000Y-99340000D03*
X121510000Y-98950000D03*
X162670000Y-72520000D03*
X134180000Y-83120000D03*
X153630000Y-82450000D03*
X117710000Y-83980000D03*
X131650000Y-81330000D03*
X136150000Y-92780000D03*
X135210000Y-97320000D03*
X141240000Y-91230000D03*
X150300000Y-85360000D03*
X148300000Y-81820000D03*
X154440000Y-89630000D03*
X154160000Y-93930000D03*
X150830000Y-74690000D03*
X136080000Y-83900000D03*
X160200000Y-104700000D03*
X160030000Y-83800000D03*
X162850000Y-106800000D03*
X121460000Y-85330000D03*
X155430000Y-101130000D03*
X150080000Y-101130000D03*
X158030000Y-80100000D03*
X152930000Y-74480000D03*
X158600000Y-72170000D03*
X160030000Y-81840000D03*
X162680000Y-80270000D03*
X126680000Y-77450000D03*
D33*
X117710000Y-86480000D02*
X118780000Y-86480000D01*
X119130000Y-86130000D02*
X120180000Y-86130000D01*
X118780000Y-86480000D02*
X119130000Y-86130000D01*
D34*
X120690000Y-88670000D02*
X121730000Y-87630000D01*
X127580000Y-85880000D02*
X127580000Y-86650000D01*
X127580000Y-86650000D02*
X127410000Y-86820000D01*
X127410000Y-86820000D02*
X126570000Y-86820000D01*
X126570000Y-86820000D02*
X125760000Y-87630000D01*
X125760000Y-87630000D02*
X121730000Y-87630000D01*
X127580000Y-85880000D02*
X128130000Y-85330000D01*
X124040000Y-102900000D02*
X124040000Y-101250000D01*
X121160000Y-106690000D02*
X121160000Y-105780000D01*
X121160000Y-105780000D02*
X124040000Y-102900000D01*
X120690000Y-99020000D02*
X120690000Y-88670000D01*
X121250000Y-99580000D02*
X120690000Y-99020000D01*
X122370000Y-99580000D02*
X121250000Y-99580000D01*
X124040000Y-101250000D02*
X122370000Y-99580000D01*
X128680000Y-85330000D02*
X128130000Y-85330000D01*
X121160000Y-106690000D02*
X119660000Y-106690000D01*
X128300000Y-99340000D02*
X128300000Y-98580000D01*
X139050000Y-98380000D02*
X139050000Y-98130000D01*
X135490000Y-90850000D02*
X137270000Y-92630000D01*
X137270000Y-96350000D02*
X137270000Y-92630000D01*
X144500000Y-96130000D02*
X144150000Y-96480000D01*
X144500000Y-96130000D02*
X147250000Y-96130000D01*
X142130000Y-96480000D02*
X141790000Y-96140000D01*
X144150000Y-96480000D02*
X142130000Y-96480000D01*
X139050000Y-98130000D02*
X137270000Y-96350000D01*
X131400000Y-94560000D02*
X131590000Y-94370000D01*
X131400000Y-96220000D02*
X131400000Y-94560000D01*
X129410000Y-98210000D02*
X131400000Y-96220000D01*
X128670000Y-98210000D02*
X129410000Y-98210000D01*
X128300000Y-98580000D02*
X128670000Y-98210000D01*
X149840000Y-91350000D02*
X150220000Y-91730000D01*
X150220000Y-95000000D02*
X149090000Y-96130000D01*
X150220000Y-91730000D02*
X150220000Y-95000000D01*
X149090000Y-96130000D02*
X147250000Y-96130000D01*
X124410000Y-105190000D02*
X125660000Y-103940000D01*
X128300000Y-99340000D02*
X128300000Y-100620000D01*
X126010000Y-102800000D02*
X127200000Y-102800000D01*
X125660000Y-103150000D02*
X126010000Y-102800000D01*
X125660000Y-103940000D02*
X125660000Y-103150000D01*
X147250000Y-97230000D02*
X147250000Y-96130000D01*
X122660000Y-108190000D02*
X123390000Y-108190000D01*
X124410000Y-107170000D02*
X124410000Y-105190000D01*
X123390000Y-108190000D02*
X124410000Y-107170000D01*
X121160000Y-108190000D02*
X122660000Y-108190000D01*
D35*
X151130000Y-104980000D02*
X151130000Y-107950000D01*
X151130000Y-107950000D02*
X152400000Y-109220000D01*
X151130000Y-104980000D02*
X151130000Y-104180000D01*
X151130000Y-104180000D02*
X152730000Y-102580000D01*
X152730000Y-102580000D02*
X152730000Y-101130000D01*
X150080000Y-103430000D02*
X150740000Y-103430000D01*
X150740000Y-103430000D02*
X151880000Y-102290000D01*
X151880000Y-101130000D02*
X152730000Y-101130000D01*
X151880000Y-102290000D02*
X151880000Y-101130000D01*
X163800000Y-105850000D02*
X163800000Y-107310000D01*
X163800000Y-107310000D02*
X162850000Y-108260000D01*
X161900000Y-105850000D02*
X161900000Y-107310000D01*
X161900000Y-107310000D02*
X162850000Y-108260000D01*
D33*
X124450000Y-96770000D02*
X127290000Y-96770000D01*
X128540000Y-95170000D02*
X124450000Y-95170000D01*
D35*
X133070000Y-87780000D02*
X133230000Y-87620000D01*
X134090000Y-81430000D02*
X134090000Y-79300000D01*
X134090000Y-79300000D02*
X132840000Y-78050000D01*
X132840000Y-78050000D02*
X129610000Y-78050000D01*
X129610000Y-78050000D02*
X129010000Y-77450000D01*
X129010000Y-77450000D02*
X128180000Y-77450000D01*
X132390000Y-83130000D02*
X134090000Y-81430000D01*
X132390000Y-84810000D02*
X132390000Y-83130000D01*
X133230000Y-85650000D02*
X132390000Y-84810000D01*
X133230000Y-87620000D02*
X133230000Y-85650000D01*
X126830000Y-90650000D02*
X127360000Y-90650000D01*
X131820000Y-87780000D02*
X133070000Y-87780000D01*
X133070000Y-87780000D02*
X133060000Y-87780000D01*
X130190000Y-89410000D02*
X131820000Y-87780000D01*
X128600000Y-89410000D02*
X130190000Y-89410000D01*
X127360000Y-90650000D02*
X128600000Y-89410000D01*
D34*
X129740000Y-80680000D02*
X129630000Y-80680000D01*
X129630000Y-80680000D02*
X129010000Y-80060000D01*
X128180000Y-78430000D02*
X128940000Y-78430000D01*
X129010000Y-78500000D02*
X129010000Y-80060000D01*
X128940000Y-78430000D02*
X129010000Y-78500000D01*
D35*
X128180000Y-76470000D02*
X128180000Y-77450000D01*
X128180000Y-77450000D02*
X128180000Y-78430000D01*
X122660000Y-106690000D02*
X122660000Y-105170000D01*
X124670000Y-100990000D02*
X122290000Y-98610000D01*
X124670000Y-103160000D02*
X124670000Y-100990000D01*
X122660000Y-105170000D02*
X124670000Y-103160000D01*
X122290000Y-98120000D02*
X122290000Y-98610000D01*
X122290000Y-97120000D02*
X122290000Y-98120000D01*
D33*
X124450000Y-96770000D02*
X123440000Y-96770000D01*
X123090000Y-97120000D02*
X122290000Y-97120000D01*
X123440000Y-96770000D02*
X123090000Y-97120000D01*
D35*
X142870000Y-102840000D02*
X139670000Y-99640000D01*
X142870000Y-105510000D02*
X142870000Y-102840000D01*
X143510000Y-106150000D02*
X142870000Y-105510000D01*
X143510000Y-107950000D02*
X143510000Y-106150000D01*
X139670000Y-99640000D02*
X138530000Y-99640000D01*
X138530000Y-99640000D02*
X137790000Y-98900000D01*
X137790000Y-98900000D02*
X137790000Y-98400000D01*
X122660000Y-106690000D02*
X123780000Y-106690000D01*
X125040000Y-106690000D02*
X126740000Y-106690000D01*
D34*
X132950000Y-92120000D02*
X133850000Y-93020000D01*
X134390000Y-93020000D02*
X134730000Y-93360000D01*
X133850000Y-93020000D02*
X134390000Y-93020000D01*
D35*
X135210000Y-94820000D02*
X136190000Y-94820000D01*
X136190000Y-96800000D02*
X136190000Y-94820000D01*
X137790000Y-98400000D02*
X136190000Y-96800000D01*
D33*
X132950000Y-94370000D02*
X133960000Y-94370000D01*
X134410000Y-94820000D02*
X135210000Y-94820000D01*
X133960000Y-94370000D02*
X134410000Y-94820000D01*
D35*
X141240000Y-94950000D02*
X141240000Y-93730000D01*
X126740000Y-106690000D02*
X129270000Y-106690000D01*
X149230000Y-105480000D02*
X149230000Y-104710000D01*
X149230000Y-105480000D02*
X148590000Y-106120000D01*
X148590000Y-107210000D02*
X148590000Y-106120000D01*
X129270000Y-106690000D02*
X130530000Y-107950000D01*
X130530000Y-107950000D02*
X143510000Y-107950000D01*
X143510000Y-107950000D02*
X147850000Y-107950000D01*
X147850000Y-107950000D02*
X148590000Y-107210000D01*
X148590000Y-106120000D02*
X148590000Y-106150000D01*
D33*
X143400000Y-93380000D02*
X142390000Y-93380000D01*
X142390000Y-93380000D02*
X142040000Y-93730000D01*
X142040000Y-93730000D02*
X141240000Y-93730000D01*
D34*
X151900000Y-88730000D02*
X153600000Y-90430000D01*
D35*
X154160000Y-90430000D02*
X154160000Y-91430000D01*
D34*
X153600000Y-90430000D02*
X154160000Y-90430000D01*
D33*
X151900000Y-90980000D02*
X152910000Y-90980000D01*
X152910000Y-90980000D02*
X153360000Y-91430000D01*
D35*
X159080000Y-99530000D02*
X161230000Y-97380000D01*
X161230000Y-97380000D02*
X161230000Y-89770000D01*
X161230000Y-89770000D02*
X160530000Y-89070000D01*
X160530000Y-89070000D02*
X160530000Y-85440000D01*
X160530000Y-85440000D02*
X158690000Y-83600000D01*
X153630000Y-83600000D02*
X158690000Y-83600000D01*
X157470000Y-105650000D02*
X157470000Y-103120000D01*
X157670000Y-105850000D02*
X157470000Y-105650000D01*
X157670000Y-105850000D02*
X158300000Y-105850000D01*
X156740000Y-102390000D02*
X156690000Y-102390000D01*
X157470000Y-103120000D02*
X156740000Y-102390000D01*
X157670000Y-99530000D02*
X159080000Y-99530000D01*
D33*
X153360000Y-91430000D02*
X154160000Y-91430000D01*
D35*
X153630000Y-83600000D02*
X153000000Y-83600000D01*
X151650000Y-78260000D02*
X149860000Y-76470000D01*
X151650000Y-82250000D02*
X151650000Y-78260000D01*
X153000000Y-83600000D02*
X151650000Y-82250000D01*
D33*
X128180000Y-78430000D02*
X128180000Y-79400000D01*
X128180000Y-79400000D02*
X124300000Y-79400000D01*
X124030000Y-79670000D02*
X124300000Y-79400000D01*
X124030000Y-79670000D02*
X124030000Y-80680000D01*
X124030000Y-80680000D02*
X124030000Y-81690000D01*
X123590000Y-82130000D02*
X120180000Y-82130000D01*
X124030000Y-81690000D02*
X123590000Y-82130000D01*
D34*
X159580000Y-75670000D02*
X159580000Y-73670000D01*
D35*
X159580000Y-73470000D02*
X157530000Y-73470000D01*
X157530000Y-73470000D02*
X157530000Y-73000000D01*
X159580000Y-73470000D02*
X163820000Y-73470000D01*
D34*
X155230000Y-73000000D02*
X155230000Y-79100000D01*
D35*
X156230000Y-81300000D02*
X156230000Y-79100000D01*
X156230000Y-79100000D02*
X155230000Y-79100000D01*
X154580000Y-81300000D02*
X156230000Y-81300000D01*
D34*
X120380000Y-75620000D02*
X121340000Y-75620000D01*
X121630000Y-75910000D02*
X121630000Y-80680000D01*
X121340000Y-75620000D02*
X121630000Y-75910000D01*
X120380000Y-73970000D02*
X120380000Y-75620000D01*
X122880000Y-77520000D02*
X124580000Y-77520000D01*
X122430000Y-80680000D02*
X122430000Y-79340000D01*
X122880000Y-78890000D02*
X122880000Y-77520000D01*
X122430000Y-79340000D02*
X122880000Y-78890000D01*
D33*
X122880000Y-77520000D02*
X122970000Y-77430000D01*
D35*
X164130000Y-76870000D02*
X163830000Y-76570000D01*
X163830000Y-76570000D02*
X163830000Y-75190000D01*
X163060000Y-74420000D02*
X161520000Y-74420000D01*
X163830000Y-75190000D02*
X163060000Y-74420000D01*
X163830000Y-79320000D02*
X163830000Y-77170000D01*
X163830000Y-77170000D02*
X164130000Y-76870000D01*
D34*
X134880000Y-85000000D02*
X133710000Y-85000000D01*
X136180000Y-82800000D02*
X136640000Y-82800000D01*
X135780000Y-86630000D02*
X136710000Y-85700000D01*
X135780000Y-86630000D02*
X134620000Y-86630000D01*
X136710000Y-82870000D02*
X136710000Y-85700000D01*
X136640000Y-82800000D02*
X136710000Y-82870000D01*
X141025000Y-83000000D02*
X141025000Y-83705000D01*
X137160000Y-84580000D02*
X137160000Y-86630000D01*
X137840000Y-83900000D02*
X137160000Y-84580000D01*
X140830000Y-83900000D02*
X137840000Y-83900000D01*
X141025000Y-83705000D02*
X140830000Y-83900000D01*
X143455000Y-83000000D02*
X142800000Y-83000000D01*
X142240000Y-83560000D02*
X142240000Y-86630000D01*
X142800000Y-83000000D02*
X142240000Y-83560000D01*
X148300000Y-85710000D02*
X148620000Y-86030000D01*
X148300000Y-85710000D02*
X148300000Y-85000000D01*
X146105000Y-83000000D02*
X146760000Y-83000000D01*
X147320000Y-83560000D02*
X147320000Y-86630000D01*
X146760000Y-83000000D02*
X147320000Y-83560000D01*
X149600000Y-82090000D02*
X148700000Y-81190000D01*
X148700000Y-81190000D02*
X148040000Y-81190000D01*
X148040000Y-81190000D02*
X147670000Y-81560000D01*
X147670000Y-81560000D02*
X147670000Y-82080000D01*
X147670000Y-82080000D02*
X147770000Y-82180000D01*
X147770000Y-82180000D02*
X147770000Y-83370000D01*
X147770000Y-83370000D02*
X148300000Y-83900000D01*
X149600000Y-82800000D02*
X149600000Y-82090000D01*
X147320000Y-76470000D02*
X147320000Y-74690000D01*
X146310000Y-74690000D02*
X147320000Y-74690000D01*
X147320000Y-74690000D02*
X148330000Y-74690000D01*
X144380000Y-83000000D02*
X144380000Y-82290000D01*
X144730000Y-81940000D02*
X144730000Y-76520000D01*
X144380000Y-82290000D02*
X144730000Y-81940000D01*
X144730000Y-76520000D02*
X144780000Y-76470000D01*
X140100000Y-83000000D02*
X140100000Y-82290000D01*
X140100000Y-82290000D02*
X138880000Y-81070000D01*
X139700000Y-76470000D02*
X138880000Y-77290000D01*
X138880000Y-77290000D02*
X138880000Y-81070000D01*
X138375000Y-83000000D02*
X138375000Y-82295000D01*
X137980000Y-77290000D02*
X137160000Y-76470000D01*
X137980000Y-81900000D02*
X137980000Y-77290000D01*
X138375000Y-82295000D02*
X137980000Y-81900000D01*
X145180000Y-77450000D02*
X145180000Y-83000000D01*
X145760000Y-76870000D02*
X145180000Y-77450000D01*
X145760000Y-76070000D02*
X145760000Y-76870000D01*
X145180000Y-75490000D02*
X145760000Y-76070000D01*
X138450000Y-75490000D02*
X145180000Y-75490000D01*
X132080000Y-76470000D02*
X133060000Y-75490000D01*
X137560000Y-75490000D02*
X138430000Y-76360000D01*
X133060000Y-75490000D02*
X137560000Y-75490000D01*
X139300000Y-83000000D02*
X139300000Y-82290000D01*
X139300000Y-82290000D02*
X138430000Y-81420000D01*
X138430000Y-81420000D02*
X138430000Y-76360000D01*
X149860000Y-104450000D02*
X148590000Y-103180000D01*
X149860000Y-106680000D02*
X149860000Y-104450000D01*
X146730000Y-103370000D02*
X146920000Y-103180000D01*
X146920000Y-103180000D02*
X148590000Y-103180000D01*
X146730000Y-103370000D02*
X146730000Y-104080000D01*
X145930000Y-104080000D02*
X145930000Y-105290000D01*
X145930000Y-105290000D02*
X147320000Y-106680000D01*
X145005000Y-104080000D02*
X145005000Y-106455000D01*
X145005000Y-106455000D02*
X144780000Y-106680000D01*
X132950000Y-98370000D02*
X136370000Y-98370000D01*
X142240000Y-103100000D02*
X142240000Y-106680000D01*
X139410000Y-100270000D02*
X142240000Y-103100000D01*
X138270000Y-100270000D02*
X139410000Y-100270000D01*
X136370000Y-98370000D02*
X138270000Y-100270000D01*
X132950000Y-99170000D02*
X136530000Y-99170000D01*
X141790000Y-104590000D02*
X139700000Y-106680000D01*
X141790000Y-103290000D02*
X141790000Y-104590000D01*
X139220000Y-100720000D02*
X141790000Y-103290000D01*
X138080000Y-100720000D02*
X139220000Y-100720000D01*
X136530000Y-99170000D02*
X138080000Y-100720000D01*
X131500000Y-100620000D02*
X132030000Y-100620000D01*
X138240000Y-105600000D02*
X137160000Y-106680000D01*
X140140000Y-105600000D02*
X138240000Y-105600000D01*
X141340000Y-104400000D02*
X140140000Y-105600000D01*
X141340000Y-103480000D02*
X141340000Y-104400000D01*
X139030000Y-101170000D02*
X141340000Y-103480000D01*
X137890000Y-101170000D02*
X139030000Y-101170000D01*
X136690000Y-99970000D02*
X137890000Y-101170000D01*
X132680000Y-99970000D02*
X136690000Y-99970000D01*
X132030000Y-100620000D02*
X132680000Y-99970000D01*
X128540000Y-101720000D02*
X129440000Y-102620000D01*
X133540000Y-105600000D02*
X131640000Y-105600000D01*
X131640000Y-105600000D02*
X130800000Y-104760000D01*
X134620000Y-106680000D02*
X133540000Y-105600000D01*
X128540000Y-101720000D02*
X125980000Y-101720000D01*
X125900000Y-101640000D02*
X125980000Y-101720000D01*
X125900000Y-101640000D02*
X125900000Y-100620000D01*
X130800000Y-102960000D02*
X130800000Y-104760000D01*
X130460000Y-102620000D02*
X130800000Y-102960000D01*
X129440000Y-102620000D02*
X130460000Y-102620000D01*
X124450000Y-99170000D02*
X124450000Y-99700000D01*
X130350000Y-104950000D02*
X130350000Y-103150000D01*
X130350000Y-103150000D02*
X130270000Y-103070000D01*
X130350000Y-104950000D02*
X132080000Y-106680000D01*
X129250000Y-103070000D02*
X130270000Y-103070000D01*
X128350000Y-102170000D02*
X129250000Y-103070000D01*
X125790000Y-102170000D02*
X128350000Y-102170000D01*
X125300000Y-101680000D02*
X125790000Y-102170000D01*
X125300000Y-100550000D02*
X125300000Y-101680000D01*
X124450000Y-99700000D02*
X125300000Y-100550000D01*
X128930000Y-98840000D02*
X129060000Y-98710000D01*
X129060000Y-98710000D02*
X129550000Y-98710000D01*
X132950000Y-95170000D02*
X131930000Y-95170000D01*
X131850000Y-96410000D02*
X129550000Y-98710000D01*
X131850000Y-95250000D02*
X131850000Y-96410000D01*
X131930000Y-95170000D02*
X131850000Y-95250000D01*
X129560000Y-99340000D02*
X131330000Y-97570000D01*
X131330000Y-97570000D02*
X132950000Y-97570000D01*
D33*
X121460000Y-82930000D02*
X120180000Y-82930000D01*
X117710000Y-74620000D02*
X117750000Y-74110000D01*
X119170000Y-82930000D02*
X117710000Y-81470000D01*
X117710000Y-81470000D02*
X117710000Y-74620000D01*
X120180000Y-82930000D02*
X119170000Y-82930000D01*
X151950000Y-74890000D02*
X151950000Y-71990000D01*
X152680000Y-75620000D02*
X151950000Y-74890000D01*
X152680000Y-75620000D02*
X152680000Y-81300000D01*
X120340000Y-71990000D02*
X151950000Y-71990000D01*
X119810000Y-72040000D02*
X120340000Y-71990000D01*
X119320000Y-72190000D02*
X119810000Y-72040000D01*
X118870000Y-72440000D02*
X119320000Y-72190000D01*
X118470000Y-72770000D02*
X118870000Y-72440000D01*
X118150000Y-73160000D02*
X118470000Y-72770000D01*
X117910000Y-73610000D02*
X118150000Y-73160000D01*
X117750000Y-74110000D02*
X117910000Y-73610000D01*
D34*
X130680000Y-83950000D02*
X133460000Y-81170000D01*
X127760000Y-89180000D02*
X128160000Y-88780000D01*
X128160000Y-88780000D02*
X129930000Y-88780000D01*
X129930000Y-88780000D02*
X130680000Y-88030000D01*
X130680000Y-88030000D02*
X130680000Y-83950000D01*
X127230000Y-89180000D02*
X127760000Y-89180000D01*
X130470000Y-78680000D02*
X129740000Y-79410000D01*
X132580000Y-78680000D02*
X130470000Y-78680000D01*
X133460000Y-79560000D02*
X132580000Y-78680000D01*
X133460000Y-81170000D02*
X133460000Y-79560000D01*
X126650000Y-84570000D02*
X126650000Y-85090000D01*
X127610000Y-87450000D02*
X126830000Y-87450000D01*
X128130000Y-86930000D02*
X127610000Y-87450000D01*
X128010000Y-81350000D02*
X128370000Y-81350000D01*
X127130000Y-82230000D02*
X128010000Y-81350000D01*
X127130000Y-84090000D02*
X127130000Y-82230000D01*
X126650000Y-84570000D02*
X127130000Y-84090000D01*
X126830000Y-85270000D02*
X126830000Y-86190000D01*
X126650000Y-85090000D02*
X126830000Y-85270000D01*
X128680000Y-86930000D02*
X128130000Y-86930000D01*
X128680000Y-87730000D02*
X129700000Y-87730000D01*
X131010000Y-82340000D02*
X131010000Y-80680000D01*
X129780000Y-83570000D02*
X131010000Y-82340000D01*
X129780000Y-87650000D02*
X129780000Y-83570000D01*
X129700000Y-87730000D02*
X129780000Y-87650000D01*
X121630000Y-89180000D02*
X121630000Y-88630000D01*
X121630000Y-88630000D02*
X122180000Y-88080000D01*
X126680000Y-76470000D02*
X126680000Y-75740000D01*
X122180000Y-88080000D02*
X127580000Y-88080000D01*
X130230000Y-87840000D02*
X130230000Y-83760000D01*
X129740000Y-88330000D02*
X130230000Y-87840000D01*
X127830000Y-88330000D02*
X129740000Y-88330000D01*
X127580000Y-88080000D02*
X127830000Y-88330000D01*
X133010000Y-80140000D02*
X133010000Y-80980000D01*
X133010000Y-80980000D02*
X130230000Y-83760000D01*
X132280000Y-79410000D02*
X133010000Y-80140000D01*
X130970000Y-77260000D02*
X130970000Y-77250000D01*
X130810000Y-77420000D02*
X130970000Y-77260000D01*
X129870000Y-77420000D02*
X130810000Y-77420000D01*
X129010000Y-76560000D02*
X129870000Y-77420000D01*
X129010000Y-75740000D02*
X129010000Y-76560000D01*
X128940000Y-75670000D02*
X129010000Y-75740000D01*
X126750000Y-75670000D02*
X128940000Y-75670000D01*
X126680000Y-75740000D02*
X126750000Y-75670000D01*
X132950000Y-90850000D02*
X132950000Y-90120000D01*
X131500000Y-92120000D02*
X131500000Y-90920000D01*
X135790000Y-90120000D02*
X137730000Y-92060000D01*
X132300000Y-90120000D02*
X132950000Y-90120000D01*
X132950000Y-90120000D02*
X135790000Y-90120000D01*
X131500000Y-90920000D02*
X132300000Y-90120000D01*
X137730000Y-96170000D02*
X143060000Y-101500000D01*
X145860000Y-101500000D02*
X143060000Y-101500000D01*
X145930000Y-101570000D02*
X145860000Y-101500000D01*
X145930000Y-102280000D02*
X145930000Y-101570000D01*
X137730000Y-96170000D02*
X137730000Y-92060000D01*
X131500000Y-93570000D02*
X132950000Y-93570000D01*
X144020000Y-101950000D02*
X142870000Y-101950000D01*
X134030000Y-93570000D02*
X132950000Y-93570000D01*
X134450000Y-93990000D02*
X136460000Y-93990000D01*
X134030000Y-93570000D02*
X134450000Y-93990000D01*
X136820000Y-94350000D02*
X136460000Y-93990000D01*
X136820000Y-96540000D02*
X136820000Y-94350000D01*
X138420000Y-98140000D02*
X136820000Y-96540000D01*
X138420000Y-98640000D02*
X138420000Y-98140000D01*
X138790000Y-99010000D02*
X138420000Y-98640000D01*
X139930000Y-99010000D02*
X138790000Y-99010000D01*
X142870000Y-101950000D02*
X139930000Y-99010000D01*
X144350000Y-102280000D02*
X144020000Y-101950000D01*
X144020000Y-101950000D02*
X144020000Y-101950000D01*
X144020000Y-101950000D02*
X144020000Y-101950000D01*
X145005000Y-102280000D02*
X144350000Y-102280000D01*
X130700000Y-93480000D02*
X130700000Y-92120000D01*
X130700000Y-92120000D02*
X130700000Y-91080000D01*
X135980000Y-89670000D02*
X138190000Y-91880000D01*
X132110000Y-89670000D02*
X135980000Y-89670000D01*
X130700000Y-91080000D02*
X132110000Y-89670000D01*
X138190000Y-95990000D02*
X138190000Y-91880000D01*
X143250000Y-101050000D02*
X138190000Y-95990000D01*
X146210000Y-101050000D02*
X143250000Y-101050000D01*
X146730000Y-101570000D02*
X146210000Y-101050000D01*
X146730000Y-102280000D02*
X146730000Y-101570000D01*
X150450000Y-88730000D02*
X150450000Y-87710000D01*
X150700000Y-87460000D02*
X151900000Y-87460000D01*
X150450000Y-87710000D02*
X150700000Y-87460000D01*
X150450000Y-90180000D02*
X151900000Y-90180000D01*
X149650000Y-90090000D02*
X149650000Y-88730000D01*
X129900000Y-92120000D02*
X129900000Y-91100000D01*
X131920000Y-89220000D02*
X136170000Y-89220000D01*
X136170000Y-89220000D02*
X138640000Y-91690000D01*
X138640000Y-95800000D02*
X138640000Y-91690000D01*
X143440000Y-100600000D02*
X138640000Y-95800000D01*
X146400000Y-100600000D02*
X143440000Y-100600000D01*
X146930000Y-101130000D02*
X146400000Y-100600000D01*
X146930000Y-101130000D02*
X149130000Y-101130000D01*
X130120000Y-91020000D02*
X131920000Y-89220000D01*
X129980000Y-91020000D02*
X130120000Y-91020000D01*
X129900000Y-91100000D02*
X129980000Y-91020000D01*
X148050000Y-88730000D02*
X148050000Y-89740000D01*
X148050000Y-89740000D02*
X148340000Y-90030000D01*
X150670000Y-95500000D02*
X150670000Y-91290000D01*
X155870000Y-98400000D02*
X152580000Y-98400000D01*
X152580000Y-98400000D02*
X151640000Y-97460000D01*
X156200000Y-98730000D02*
X155870000Y-98400000D01*
X148700000Y-90030000D02*
X148340000Y-90030000D01*
X149390000Y-90720000D02*
X148700000Y-90030000D01*
X150100000Y-90720000D02*
X149390000Y-90720000D01*
X150670000Y-91290000D02*
X150100000Y-90720000D01*
X156470000Y-103060000D02*
X155880000Y-102470000D01*
X156470000Y-103950000D02*
X156470000Y-103060000D01*
X158670000Y-101760000D02*
X159250000Y-102340000D01*
X156060000Y-101760000D02*
X158670000Y-101760000D01*
X155880000Y-102470000D02*
X155880000Y-101940000D01*
X159250000Y-103550000D02*
X159250000Y-102340000D01*
X161900000Y-103550000D02*
X161900000Y-102660000D01*
X161900000Y-102660000D02*
X161580000Y-102340000D01*
X161580000Y-102340000D02*
X159250000Y-102340000D01*
X159250000Y-103550000D02*
X159250000Y-103200000D01*
X159250000Y-103550000D02*
X159250000Y-103900000D01*
X161900000Y-103550000D02*
X161900000Y-103910000D01*
X160200000Y-105850000D02*
X160200000Y-106740000D01*
X156440000Y-109400000D02*
X157200000Y-109400000D01*
X156200000Y-109160000D02*
X156200000Y-109000000D01*
X156440000Y-109400000D02*
X156200000Y-109160000D01*
X159480000Y-107460000D02*
X156860000Y-107460000D01*
X160200000Y-106740000D02*
X159480000Y-107460000D01*
X157200000Y-109400000D02*
X157200000Y-110130000D01*
X161600000Y-111110000D02*
X162170000Y-111050000D01*
X162170000Y-111050000D02*
X162700000Y-110890000D01*
X162700000Y-110890000D02*
X163200000Y-110620000D01*
X163200000Y-110620000D02*
X163620000Y-110270000D01*
X163620000Y-110270000D02*
X163970000Y-109840000D01*
X163970000Y-109840000D02*
X164240000Y-109340000D01*
X164240000Y-109340000D02*
X164400000Y-108810000D01*
X164400000Y-108810000D02*
X164450000Y-108260000D01*
X163800000Y-104440000D02*
X163800000Y-103550000D01*
X163800000Y-104440000D02*
X164450000Y-105090000D01*
X164450000Y-105090000D02*
X164450000Y-108260000D01*
X158180000Y-111110000D02*
X161600000Y-111110000D01*
X157200000Y-110130000D02*
X158180000Y-111110000D01*
X135530000Y-82090000D02*
X135620000Y-82000000D01*
X135620000Y-82000000D02*
X136400000Y-82000000D01*
X136400000Y-82000000D02*
X137360000Y-82000000D01*
X135530000Y-82800000D02*
X135530000Y-82090000D01*
X150560000Y-82410000D02*
X148890000Y-80740000D01*
X148890000Y-80740000D02*
X147850000Y-80740000D01*
X147850000Y-80740000D02*
X146590000Y-82000000D01*
X146590000Y-82000000D02*
X145810000Y-82000000D01*
X150840000Y-84120000D02*
X150780000Y-84180000D01*
X150780000Y-84950000D02*
X152560000Y-86730000D01*
X150780000Y-84180000D02*
X150780000Y-84950000D01*
X154000000Y-94980000D02*
X151900000Y-94980000D01*
X154740000Y-86730000D02*
X152560000Y-86730000D01*
X155170000Y-87160000D02*
X154740000Y-86730000D01*
X155170000Y-89030000D02*
X155170000Y-87160000D01*
X155070000Y-89130000D02*
X155170000Y-89030000D01*
X155070000Y-93910000D02*
X155070000Y-89130000D01*
X154000000Y-94980000D02*
X155070000Y-93910000D01*
X150840000Y-82410000D02*
X150560000Y-82410000D01*
X143600000Y-82000000D02*
X140660000Y-82000000D01*
X135530000Y-85000000D02*
X135530000Y-84290000D01*
X133920000Y-83750000D02*
X133550000Y-83380000D01*
X134990000Y-83750000D02*
X133920000Y-83750000D01*
X135530000Y-84290000D02*
X134990000Y-83750000D01*
X136860000Y-81370000D02*
X136680000Y-81550000D01*
X150850000Y-81610000D02*
X150400000Y-81610000D01*
X153840000Y-95780000D02*
X155520000Y-94100000D01*
X155520000Y-94100000D02*
X155520000Y-89320000D01*
X155520000Y-89320000D02*
X155620000Y-89220000D01*
X155620000Y-89220000D02*
X155620000Y-86970000D01*
X155620000Y-86970000D02*
X154930000Y-86280000D01*
X154930000Y-86280000D02*
X153000000Y-86280000D01*
X151900000Y-95780000D02*
X153840000Y-95780000D01*
X153000000Y-86280000D02*
X151410000Y-84690000D01*
X146580000Y-81370000D02*
X146310000Y-81370000D01*
X147660000Y-80290000D02*
X146580000Y-81370000D01*
X149080000Y-80290000D02*
X147660000Y-80290000D01*
X150400000Y-81610000D02*
X149080000Y-80290000D01*
X144100000Y-81370000D02*
X140070000Y-81370000D01*
X133550000Y-82860000D02*
X133550000Y-83380000D01*
X134860000Y-81550000D02*
X133550000Y-82860000D01*
X136680000Y-81550000D02*
X134860000Y-81550000D01*
X148950000Y-82800000D02*
X148950000Y-83510000D01*
X154070000Y-96830000D02*
X151380000Y-96830000D01*
X156520000Y-86590000D02*
X155310000Y-85380000D01*
X156520000Y-89600000D02*
X156520000Y-86590000D01*
X156420000Y-89700000D02*
X156520000Y-89600000D01*
X156420000Y-94480000D02*
X156420000Y-89700000D01*
X154070000Y-96830000D02*
X156420000Y-94480000D01*
X155310000Y-85380000D02*
X153630000Y-85380000D01*
X151290000Y-83040000D02*
X153630000Y-85380000D01*
X150380000Y-83040000D02*
X151290000Y-83040000D01*
X149820000Y-83600000D02*
X150380000Y-83040000D01*
X149040000Y-83600000D02*
X149820000Y-83600000D01*
X148950000Y-83510000D02*
X149040000Y-83600000D01*
X150450000Y-97230000D02*
X150980000Y-97230000D01*
X150980000Y-97230000D02*
X151380000Y-96830000D01*
X151380000Y-96830000D02*
X151380000Y-96830000D01*
X148950000Y-85000000D02*
X148950000Y-84290000D01*
X148950000Y-84290000D02*
X149190000Y-84050000D01*
X149190000Y-84050000D02*
X150010000Y-84050000D01*
X150570000Y-83490000D02*
X151100000Y-83490000D01*
X150010000Y-84050000D02*
X150570000Y-83490000D01*
X155120000Y-85830000D02*
X153440000Y-85830000D01*
X153880000Y-96380000D02*
X155970000Y-94290000D01*
X155970000Y-94290000D02*
X155970000Y-89510000D01*
X155970000Y-89510000D02*
X156070000Y-89410000D01*
X156070000Y-89410000D02*
X156070000Y-86780000D01*
X156070000Y-86780000D02*
X155120000Y-85830000D01*
X149650000Y-96210000D02*
X149650000Y-97230000D01*
X150800000Y-96130000D02*
X151050000Y-96380000D01*
X149730000Y-96130000D02*
X150800000Y-96130000D01*
X149650000Y-96210000D02*
X149730000Y-96130000D01*
X151050000Y-96380000D02*
X153880000Y-96380000D01*
X151100000Y-83490000D02*
X153440000Y-85830000D01*
X120180000Y-83730000D02*
X121460000Y-83730000D01*
X120180000Y-84530000D02*
X121460000Y-84530000D01*
X129700000Y-82930000D02*
X129780000Y-82850000D01*
X129780000Y-82850000D02*
X129780000Y-81870000D01*
X129780000Y-81870000D02*
X128380000Y-80470000D01*
X128380000Y-80470000D02*
X128380000Y-80160000D01*
X128680000Y-82930000D02*
X129700000Y-82930000D01*
X132410000Y-74690000D02*
X144810000Y-74690000D01*
X130310000Y-76790000D02*
X132410000Y-74690000D01*
X159560000Y-79150000D02*
X158030000Y-79150000D01*
X162680000Y-81220000D02*
X163830000Y-81220000D01*
X159560000Y-79150000D02*
X159580000Y-79170000D01*
X159580000Y-79170000D02*
X159580000Y-77170000D01*
X163830000Y-81220000D02*
X163480000Y-81220000D01*
X126680000Y-81790000D02*
X127230000Y-81240000D01*
X126140000Y-84200000D02*
X126680000Y-83660000D01*
X126680000Y-83660000D02*
X126680000Y-81790000D01*
X126700000Y-100620000D02*
X126700000Y-99600000D01*
X125950000Y-98850000D02*
X125730000Y-98850000D01*
X126700000Y-99600000D02*
X125950000Y-98850000D01*
X127230000Y-80680000D02*
X127230000Y-81240000D01*
X127580000Y-82680000D02*
X128130000Y-82130000D01*
X127580000Y-84530000D02*
X127580000Y-82680000D01*
X127280000Y-84830000D02*
X127580000Y-84530000D01*
X127500000Y-100620000D02*
X127500000Y-99490000D01*
X127500000Y-99490000D02*
X126360000Y-98350000D01*
X128680000Y-82130000D02*
X128130000Y-82130000D01*
X123230000Y-89180000D02*
X123230000Y-90200000D01*
X123230000Y-90200000D02*
X123310000Y-90280000D01*
X124450000Y-94370000D02*
X125000000Y-94370000D01*
X125000000Y-94370000D02*
X125550000Y-93820000D01*
X125550000Y-93820000D02*
X125550000Y-93220000D01*
X125550000Y-93220000D02*
X125300000Y-92970000D01*
X125300000Y-92970000D02*
X125300000Y-90730000D01*
X125300000Y-90730000D02*
X124850000Y-90280000D01*
X124850000Y-90280000D02*
X123310000Y-90280000D01*
X128300000Y-92120000D02*
X128300000Y-90600000D01*
X128860000Y-90040000D02*
X130460000Y-90040000D01*
X128300000Y-90600000D02*
X128860000Y-90040000D01*
X130460000Y-90040000D02*
X132040000Y-88460000D01*
X143400000Y-90980000D02*
X142380000Y-90980000D01*
X132040000Y-88460000D02*
X136940000Y-88460000D01*
X136940000Y-88460000D02*
X138460000Y-89980000D01*
X141380000Y-89980000D02*
X141070000Y-89980000D01*
X142380000Y-90980000D02*
X141380000Y-89980000D01*
X140320000Y-103350000D02*
X138970000Y-104700000D01*
X143700000Y-99970000D02*
X147130000Y-99970000D01*
X148850000Y-98250000D02*
X147130000Y-99970000D01*
X148850000Y-97230000D02*
X148850000Y-98250000D01*
X131700000Y-102580000D02*
X130840000Y-101720000D01*
X131700000Y-104380000D02*
X131700000Y-102580000D01*
X132020000Y-104700000D02*
X131700000Y-104380000D01*
X138970000Y-104700000D02*
X132020000Y-104700000D01*
X129980000Y-101720000D02*
X130840000Y-101720000D01*
X129900000Y-101640000D02*
X129980000Y-101720000D01*
X129900000Y-101640000D02*
X129900000Y-100620000D01*
X140710000Y-104050000D02*
X139610000Y-105150000D01*
X143070000Y-99340000D02*
X146960000Y-99340000D01*
X148050000Y-98250000D02*
X146960000Y-99340000D01*
X148050000Y-97230000D02*
X148050000Y-98250000D01*
X131250000Y-102770000D02*
X130650000Y-102170000D01*
X131250000Y-104570000D02*
X131250000Y-102770000D01*
X131830000Y-105150000D02*
X131250000Y-104570000D01*
X139610000Y-105150000D02*
X131830000Y-105150000D01*
X129630000Y-102170000D02*
X130650000Y-102170000D01*
X129100000Y-101640000D02*
X129630000Y-102170000D01*
X129100000Y-101640000D02*
X129100000Y-100620000D01*
D33*
X124450000Y-97570000D02*
X127590000Y-97570000D01*
X127590000Y-95970000D02*
X124450000Y-95970000D01*
X128070000Y-96450000D02*
X127590000Y-95970000D01*
X128070000Y-97090000D02*
X128070000Y-96450000D01*
X127590000Y-97570000D02*
X128070000Y-97090000D01*
D35*
X122290000Y-95620000D02*
X121490000Y-95620000D01*
X121320000Y-98760000D02*
X121510000Y-98950000D01*
X121320000Y-95790000D02*
X121320000Y-98760000D01*
X121490000Y-95620000D02*
X121320000Y-95790000D01*
D34*
X162670000Y-72520000D02*
X161520000Y-72520000D01*
D36*
X134880000Y-82800000D02*
X134390000Y-82800000D01*
X134180000Y-83010000D02*
X134180000Y-83120000D01*
X134390000Y-82800000D02*
X134180000Y-83010000D01*
D35*
X158030000Y-81300000D02*
X158030000Y-82330000D01*
X117710000Y-83980000D02*
X117710000Y-84980000D01*
X155330000Y-82450000D02*
X153630000Y-82450000D01*
X155380000Y-82500000D02*
X155330000Y-82450000D01*
X157860000Y-82500000D02*
X155380000Y-82500000D01*
X158030000Y-82330000D02*
X157860000Y-82500000D01*
D34*
X132280000Y-80680000D02*
X132280000Y-80700000D01*
X132280000Y-80700000D02*
X131650000Y-81330000D01*
D33*
X124450000Y-95970000D02*
X123440000Y-95970000D01*
X123090000Y-95620000D02*
X122290000Y-95620000D01*
X123440000Y-95970000D02*
X123090000Y-95620000D01*
X132950000Y-96770000D02*
X133960000Y-96770000D01*
X134410000Y-96320000D02*
X135210000Y-96320000D01*
X133960000Y-96770000D02*
X134410000Y-96320000D01*
D34*
X135490000Y-92120000D02*
X136150000Y-92780000D01*
D35*
X135210000Y-96320000D02*
X135210000Y-97320000D01*
X141240000Y-92230000D02*
X141240000Y-91230000D01*
D36*
X149600000Y-85000000D02*
X150090000Y-85000000D01*
X150300000Y-85210000D02*
X150300000Y-85360000D01*
X150090000Y-85000000D02*
X150300000Y-85210000D01*
X148300000Y-82800000D02*
X148300000Y-81820000D01*
D33*
X143400000Y-92580000D02*
X142390000Y-92580000D01*
X142040000Y-92230000D02*
X141240000Y-92230000D01*
X142390000Y-92580000D02*
X142040000Y-92230000D01*
D34*
X154440000Y-88730000D02*
X154440000Y-89630000D01*
D35*
X154160000Y-92930000D02*
X154160000Y-93930000D01*
D34*
X149830000Y-74690000D02*
X150830000Y-74690000D01*
D36*
X136180000Y-85000000D02*
X136180000Y-84000000D01*
X136180000Y-84000000D02*
X136080000Y-83900000D01*
D33*
X151900000Y-93380000D02*
X152910000Y-93380000D01*
X153360000Y-92930000D02*
X154160000Y-92930000D01*
X152910000Y-93380000D02*
X153360000Y-92930000D01*
D35*
X160030000Y-83800000D02*
X160030000Y-82820000D01*
X162850000Y-105850000D02*
X162850000Y-106800000D01*
X155430000Y-101130000D02*
X160350000Y-101130000D01*
D33*
X120180000Y-85330000D02*
X121460000Y-85330000D01*
D34*
X119660000Y-108190000D02*
X119660000Y-108950000D01*
X120400000Y-109690000D02*
X124410000Y-109690000D01*
X119660000Y-108950000D02*
X120400000Y-109690000D01*
X159250000Y-104700000D02*
X160200000Y-104700000D01*
X158300000Y-103550000D02*
X158300000Y-104440000D01*
X156470000Y-105450000D02*
X156470000Y-106210000D01*
X159250000Y-106200000D02*
X159250000Y-104700000D01*
X158570000Y-106880000D02*
X159250000Y-106200000D01*
X157140000Y-106880000D02*
X158570000Y-106880000D01*
X156470000Y-106210000D02*
X157140000Y-106880000D01*
D35*
X160200000Y-103550000D02*
X160200000Y-104700000D01*
D34*
X158560000Y-104700000D02*
X159250000Y-104700000D01*
X158300000Y-104440000D02*
X158560000Y-104700000D01*
D35*
X150080000Y-101130000D02*
X151030000Y-101130000D01*
D34*
X155430000Y-101130000D02*
X154630000Y-101130000D01*
X160200000Y-103550000D02*
X160200000Y-103900000D01*
X159580000Y-80670000D02*
X159580000Y-81430000D01*
X160030000Y-81850000D02*
X160030000Y-81840000D01*
X160000000Y-81850000D02*
X160030000Y-81850000D01*
X159580000Y-81430000D02*
X160000000Y-81850000D01*
D35*
X158030000Y-81300000D02*
X158030000Y-80100000D01*
X152930000Y-74480000D02*
X152930000Y-73000000D01*
X158600000Y-72170000D02*
X159580000Y-72170000D01*
D33*
X122880000Y-73970000D02*
X124580000Y-73970000D01*
X124580000Y-73970000D02*
X125690000Y-73970000D01*
X125690000Y-73970000D02*
X125690000Y-78430000D01*
X124580000Y-76020000D02*
X124580000Y-73970000D01*
D34*
X122880000Y-75620000D02*
X122880000Y-73970000D01*
X119670000Y-73120000D02*
X122590000Y-73120000D01*
X119300000Y-73490000D02*
X119670000Y-73120000D01*
X119300000Y-77400000D02*
X119300000Y-73490000D01*
X119420000Y-77520000D02*
X119300000Y-77400000D01*
X120380000Y-77520000D02*
X119420000Y-77520000D01*
X122590000Y-73120000D02*
X122880000Y-73410000D01*
X122880000Y-73970000D02*
X122880000Y-73410000D01*
D35*
X160030000Y-82820000D02*
X160030000Y-81840000D01*
X162680000Y-80270000D02*
X163830000Y-80270000D01*
X126680000Y-78430000D02*
X126680000Y-77450000D01*
D33*
X126680000Y-78430000D02*
X125690000Y-78430000D01*
X125690000Y-78630000D02*
X125690000Y-78430000D01*
X123230000Y-79400000D02*
X124000000Y-78630000D01*
X124000000Y-78630000D02*
X125690000Y-78630000D01*
X123230000Y-80680000D02*
X123230000Y-79400000D01*
X121880000Y-73970000D02*
X122880000Y-73970000D01*
X117710000Y-84980000D02*
X118780000Y-84980000D01*
X118780000Y-84980000D02*
X119130000Y-85330000D01*
X119130000Y-85330000D02*
X120180000Y-85330000D01*
D35*
X154940000Y-106680000D02*
X156520000Y-108260000D01*
X156520000Y-108260000D02*
X160350000Y-108260000D01*
X162850000Y-103550000D02*
X162850000Y-102670000D01*
X163240000Y-102280000D02*
X164230000Y-102280000D01*
X162850000Y-102670000D02*
X163240000Y-102280000D01*
X161420000Y-82930000D02*
X161530000Y-82820000D01*
D34*
X161510000Y-107820000D02*
X161510000Y-108800000D01*
X162850000Y-103550000D02*
X162850000Y-104440000D01*
X161050000Y-107360000D02*
X161510000Y-107820000D01*
X161050000Y-105260000D02*
X161050000Y-107360000D01*
X161610000Y-104700000D02*
X161050000Y-105260000D01*
X162590000Y-104700000D02*
X161610000Y-104700000D01*
X162850000Y-104440000D02*
X162590000Y-104700000D01*
X160910000Y-109400000D02*
X158700000Y-109400000D01*
X161510000Y-108800000D02*
X160910000Y-109400000D01*
X162850000Y-103550000D02*
X162850000Y-103900000D01*
D35*
X162850000Y-101130000D02*
X161870000Y-101130000D01*
X155520000Y-100330000D02*
X155020000Y-99830000D01*
X159420000Y-100330000D02*
X155520000Y-100330000D01*
X159880000Y-99870000D02*
X159420000Y-100330000D01*
X160870000Y-99870000D02*
X159880000Y-99870000D01*
X161600000Y-100600000D02*
X160870000Y-99870000D01*
X161600000Y-100860000D02*
X161600000Y-100600000D01*
X161870000Y-101130000D02*
X161600000Y-100860000D01*
X153680000Y-103430000D02*
X153680000Y-100380000D01*
X154230000Y-99830000D02*
X155020000Y-99830000D01*
X153680000Y-100380000D02*
X154230000Y-99830000D01*
X161530000Y-82820000D02*
X161530000Y-81220000D01*
X152630000Y-104980000D02*
X152630000Y-106450000D01*
X152630000Y-106450000D02*
X152400000Y-106680000D01*
X161530000Y-81220000D02*
X161530000Y-79320000D01*
X161530000Y-79320000D02*
X161530000Y-77170000D01*
X161530000Y-77170000D02*
X161230000Y-76870000D01*
X152630000Y-104980000D02*
X152630000Y-103820000D01*
X153020000Y-103430000D02*
X152630000Y-103820000D01*
X153020000Y-103430000D02*
X153680000Y-103430000D01*
D34*
X145650000Y-97230000D02*
X145650000Y-98250000D01*
X138660000Y-87070000D02*
X139540000Y-87950000D01*
X139300000Y-85510000D02*
X139300000Y-84800000D01*
X138660000Y-86150000D02*
X138660000Y-87070000D01*
X139300000Y-85510000D02*
X138660000Y-86150000D01*
X139540000Y-87950000D02*
X139540000Y-95420000D01*
X141800000Y-97680000D02*
X139540000Y-95420000D01*
X143950000Y-97680000D02*
X141800000Y-97680000D01*
X144600000Y-98330000D02*
X143950000Y-97680000D01*
X145570000Y-98330000D02*
X144600000Y-98330000D01*
X145650000Y-98250000D02*
X145570000Y-98330000D01*
X146450000Y-97230000D02*
X146450000Y-98250000D01*
X146450000Y-98250000D02*
X145920000Y-98780000D01*
X139090000Y-95610000D02*
X141610000Y-98130000D01*
X139090000Y-95610000D02*
X139090000Y-88140000D01*
X138200000Y-87250000D02*
X138200000Y-85680000D01*
X138375000Y-84800000D02*
X138375000Y-85505000D01*
X138375000Y-85505000D02*
X138200000Y-85680000D01*
X138200000Y-87250000D02*
X139090000Y-88140000D01*
X144410000Y-98780000D02*
X145920000Y-98780000D01*
X143760000Y-98130000D02*
X144410000Y-98780000D01*
X141610000Y-98130000D02*
X143760000Y-98130000D01*
X140740000Y-86150000D02*
X140740000Y-87070000D01*
X140100000Y-85510000D02*
X140740000Y-86150000D01*
X140100000Y-84800000D02*
X140100000Y-85510000D01*
X141990000Y-97230000D02*
X139990000Y-95230000D01*
X141990000Y-97230000D02*
X144850000Y-97230000D01*
X139990000Y-87820000D02*
X139990000Y-95230000D01*
X140740000Y-87070000D02*
X139990000Y-87820000D01*
X142370000Y-95780000D02*
X142100000Y-95510000D01*
X140980000Y-95580000D02*
X141500000Y-95580000D01*
X141230000Y-87220000D02*
X141230000Y-85710000D01*
X140440000Y-88010000D02*
X140440000Y-95040000D01*
X141230000Y-87220000D02*
X140440000Y-88010000D01*
X140440000Y-95040000D02*
X140980000Y-95580000D01*
X141570000Y-95510000D02*
X141500000Y-95580000D01*
X142100000Y-95510000D02*
X141570000Y-95510000D01*
X143400000Y-95780000D02*
X142370000Y-95780000D01*
X142370000Y-95780000D02*
X142380000Y-95780000D01*
X141025000Y-84800000D02*
X141025000Y-85505000D01*
X141025000Y-85505000D02*
X141230000Y-85710000D01*
X141230000Y-85710000D02*
X141200000Y-85680000D01*
X144380000Y-84800000D02*
X144380000Y-85510000D01*
X144380000Y-85510000D02*
X143740000Y-86150000D01*
X144850000Y-88730000D02*
X144320000Y-88730000D01*
X143740000Y-88150000D02*
X143740000Y-86150000D01*
X144320000Y-88730000D02*
X143740000Y-88150000D01*
X143400000Y-94980000D02*
X144420000Y-94980000D01*
X144420000Y-94980000D02*
X144600000Y-94800000D01*
X143455000Y-84800000D02*
X143455000Y-85505000D01*
X144600000Y-89930000D02*
X144600000Y-94800000D01*
X143280000Y-88610000D02*
X144600000Y-89930000D01*
X143280000Y-85680000D02*
X143280000Y-88610000D01*
X143455000Y-85505000D02*
X143280000Y-85680000D01*
X146105000Y-84800000D02*
X146105000Y-85505000D01*
X146450000Y-87710000D02*
X146280000Y-87540000D01*
X146450000Y-87710000D02*
X146450000Y-88730000D01*
X146280000Y-85680000D02*
X146280000Y-87540000D01*
X146105000Y-85505000D02*
X146280000Y-85680000D01*
X145180000Y-84800000D02*
X145180000Y-85510000D01*
X145180000Y-85510000D02*
X145820000Y-86150000D01*
X145650000Y-88730000D02*
X145650000Y-87710000D01*
X145820000Y-87540000D02*
X145820000Y-86150000D01*
X145650000Y-87710000D02*
X145820000Y-87540000D01*
D35*
G36*
X156550000Y-74220000D02*
X156561877Y-74303578D01*
X156596569Y-74380538D01*
X156651327Y-74444787D01*
X156721817Y-74491236D01*
X156802456Y-74516209D01*
X156851485Y-74519996D01*
X158570000Y-74511489D01*
X158570000Y-78525000D01*
X158534094Y-78525000D01*
X158412341Y-78442876D01*
X158267711Y-78382079D01*
X158114027Y-78350533D01*
X157957143Y-78349437D01*
X157803034Y-78378835D01*
X157657570Y-78437607D01*
X157526291Y-78523513D01*
X157414199Y-78633282D01*
X157325562Y-78762732D01*
X157263758Y-78906934D01*
X157231139Y-79060393D01*
X157228948Y-79217266D01*
X157257270Y-79371577D01*
X157315024Y-79517448D01*
X157384966Y-79625976D01*
X157325562Y-79712732D01*
X157296731Y-79780000D01*
X153455000Y-79780000D01*
X153455000Y-75620000D01*
X153448013Y-75548747D01*
X153441775Y-75477437D01*
X153440637Y-75473522D01*
X153440240Y-75469468D01*
X153419562Y-75400977D01*
X153399577Y-75332190D01*
X153397700Y-75328570D01*
X153396523Y-75324670D01*
X153362929Y-75261489D01*
X153329970Y-75197905D01*
X153327426Y-75194719D01*
X153325514Y-75191122D01*
X153317677Y-75181513D01*
X153424912Y-75113459D01*
X153538526Y-75005266D01*
X153628962Y-74877066D01*
X153652080Y-74825141D01*
X153881446Y-74337739D01*
X153906286Y-74257059D01*
X153910000Y-74210000D01*
X153910000Y-72320000D01*
X156550000Y-72320000D01*
X156550000Y-74220000D01*
X156550000Y-74220000D01*
G37*
X156550000Y-74220000D02*
X156561877Y-74303578D01*
X156596569Y-74380538D01*
X156651327Y-74444787D01*
X156721817Y-74491236D01*
X156802456Y-74516209D01*
X156851485Y-74519996D01*
X158570000Y-74511489D01*
X158570000Y-78525000D01*
X158534094Y-78525000D01*
X158412341Y-78442876D01*
X158267711Y-78382079D01*
X158114027Y-78350533D01*
X157957143Y-78349437D01*
X157803034Y-78378835D01*
X157657570Y-78437607D01*
X157526291Y-78523513D01*
X157414199Y-78633282D01*
X157325562Y-78762732D01*
X157263758Y-78906934D01*
X157231139Y-79060393D01*
X157228948Y-79217266D01*
X157257270Y-79371577D01*
X157315024Y-79517448D01*
X157384966Y-79625976D01*
X157325562Y-79712732D01*
X157296731Y-79780000D01*
X153455000Y-79780000D01*
X153455000Y-75620000D01*
X153448013Y-75548747D01*
X153441775Y-75477437D01*
X153440637Y-75473522D01*
X153440240Y-75469468D01*
X153419562Y-75400977D01*
X153399577Y-75332190D01*
X153397700Y-75328570D01*
X153396523Y-75324670D01*
X153362929Y-75261489D01*
X153329970Y-75197905D01*
X153327426Y-75194719D01*
X153325514Y-75191122D01*
X153317677Y-75181513D01*
X153424912Y-75113459D01*
X153538526Y-75005266D01*
X153628962Y-74877066D01*
X153652080Y-74825141D01*
X153881446Y-74337739D01*
X153906286Y-74257059D01*
X153910000Y-74210000D01*
X153910000Y-72320000D01*
X156550000Y-72320000D01*
X156550000Y-74220000D01*
G36*
X164230000Y-82570000D02*
X163960000Y-82570000D01*
X163835000Y-82695000D01*
X163835000Y-83815000D01*
X163855000Y-83815000D01*
X163855000Y-83825000D01*
X163835000Y-83825000D01*
X163835000Y-84945000D01*
X163960000Y-85070000D01*
X164280000Y-85070000D01*
X164280000Y-85193155D01*
X164201424Y-85160125D01*
X163961293Y-85110833D01*
X163716161Y-85109121D01*
X163475366Y-85155056D01*
X163248078Y-85246886D01*
X163042956Y-85381114D01*
X162867811Y-85552628D01*
X162729317Y-85754894D01*
X162632747Y-85980209D01*
X162581780Y-86219990D01*
X162578357Y-86465103D01*
X162622609Y-86706214D01*
X162712850Y-86934137D01*
X162845643Y-87140191D01*
X163015930Y-87316529D01*
X163217225Y-87456432D01*
X163441860Y-87554573D01*
X163681279Y-87607212D01*
X163926363Y-87612346D01*
X164167776Y-87569778D01*
X164230000Y-87545643D01*
X164230000Y-102280000D01*
X164000000Y-102280000D01*
X164000000Y-99701421D01*
X163999075Y-99677886D01*
X163997844Y-99662243D01*
X163990481Y-99615747D01*
X163986818Y-99600489D01*
X163972272Y-99555719D01*
X163966267Y-99541221D01*
X163944890Y-99499268D01*
X163936691Y-99485889D01*
X163909023Y-99447807D01*
X163898832Y-99435875D01*
X163882843Y-99418579D01*
X163530000Y-99065736D01*
X163530000Y-88981421D01*
X163529075Y-88957886D01*
X163527844Y-88942243D01*
X163520481Y-88895747D01*
X163516818Y-88880489D01*
X163502272Y-88835719D01*
X163496267Y-88821221D01*
X163474890Y-88779268D01*
X163466691Y-88765889D01*
X163439023Y-88727807D01*
X163428832Y-88715875D01*
X163412843Y-88698579D01*
X162360000Y-87645736D01*
X162360000Y-85710000D01*
X162358556Y-85680602D01*
X162356635Y-85661093D01*
X162345159Y-85603398D01*
X162339468Y-85584639D01*
X162316965Y-85530315D01*
X162307724Y-85513026D01*
X162275054Y-85464130D01*
X162262618Y-85448976D01*
X162221024Y-85407382D01*
X162205870Y-85394946D01*
X162156974Y-85362276D01*
X162139685Y-85353035D01*
X162085361Y-85330532D01*
X162066602Y-85324841D01*
X162008907Y-85313365D01*
X161989398Y-85311444D01*
X161930602Y-85311444D01*
X161911093Y-85313365D01*
X161853398Y-85324841D01*
X161834639Y-85330532D01*
X161780315Y-85353035D01*
X161763026Y-85362276D01*
X161714130Y-85394946D01*
X161698976Y-85407382D01*
X161657382Y-85448976D01*
X161644946Y-85464130D01*
X161612276Y-85513026D01*
X161603035Y-85530315D01*
X161580532Y-85584639D01*
X161574841Y-85603398D01*
X161563365Y-85661093D01*
X161561444Y-85680602D01*
X161560000Y-85710000D01*
X161560000Y-87808579D01*
X161560925Y-87832114D01*
X161562156Y-87847757D01*
X161569519Y-87894253D01*
X161573182Y-87909511D01*
X161587728Y-87954281D01*
X161593733Y-87968779D01*
X161615110Y-88010732D01*
X161623309Y-88024111D01*
X161650977Y-88062193D01*
X161661168Y-88074125D01*
X161677157Y-88091421D01*
X162730000Y-89144264D01*
X162730000Y-99228579D01*
X162730925Y-99252114D01*
X162732156Y-99267757D01*
X162739519Y-99314253D01*
X162743182Y-99329511D01*
X162757728Y-99374281D01*
X162763733Y-99388779D01*
X162785110Y-99430732D01*
X162793309Y-99444111D01*
X162820977Y-99482193D01*
X162831168Y-99494125D01*
X162847157Y-99511421D01*
X163200000Y-99864264D01*
X163200000Y-101480000D01*
X162500000Y-101480000D01*
X162500000Y-100321421D01*
X162499075Y-100297886D01*
X162497844Y-100282243D01*
X162490481Y-100235747D01*
X162486818Y-100220489D01*
X162472272Y-100175719D01*
X162466267Y-100161221D01*
X162444890Y-100119268D01*
X162436691Y-100105889D01*
X162409023Y-100067807D01*
X162398832Y-100055875D01*
X162382843Y-100038579D01*
X162030000Y-99685736D01*
X162030000Y-89601421D01*
X162029075Y-89577886D01*
X162027844Y-89562243D01*
X162020481Y-89515747D01*
X162016818Y-89500489D01*
X162002272Y-89455719D01*
X161996267Y-89441221D01*
X161974890Y-89399268D01*
X161966691Y-89385889D01*
X161939023Y-89347807D01*
X161928832Y-89335875D01*
X161912843Y-89318579D01*
X161330000Y-88735736D01*
X161330000Y-85440000D01*
X161322793Y-85366494D01*
X161316349Y-85292839D01*
X161315174Y-85288795D01*
X161314764Y-85284613D01*
X161293420Y-85213919D01*
X161272789Y-85142906D01*
X161270853Y-85139170D01*
X161269637Y-85135144D01*
X161234938Y-85069884D01*
X161200936Y-85004289D01*
X161198313Y-85001003D01*
X161196337Y-84997287D01*
X161149631Y-84940019D01*
X161103529Y-84882268D01*
X161097758Y-84876417D01*
X161097657Y-84876293D01*
X161097542Y-84876198D01*
X161095685Y-84874315D01*
X160591458Y-84370088D01*
X160638526Y-84325266D01*
X160728962Y-84197066D01*
X160792774Y-84053741D01*
X160816343Y-83950000D01*
X162580000Y-83950000D01*
X162580000Y-84770000D01*
X162600517Y-84879037D01*
X162664958Y-84979181D01*
X162763283Y-85046364D01*
X162880000Y-85070000D01*
X163700000Y-85070000D01*
X163825000Y-84945000D01*
X163825000Y-83825000D01*
X162705000Y-83825000D01*
X162580000Y-83950000D01*
X160816343Y-83950000D01*
X160827532Y-83900752D01*
X160828621Y-83822770D01*
X160829922Y-83811170D01*
X160830000Y-83800000D01*
X160830000Y-83795000D01*
X160930000Y-83795000D01*
X160959398Y-83793556D01*
X160968827Y-83792628D01*
X160980754Y-83795000D01*
X161400000Y-83795000D01*
X161525000Y-83670000D01*
X161525000Y-82825000D01*
X161535000Y-82825000D01*
X161535000Y-83670000D01*
X161660000Y-83795000D01*
X162230000Y-83795000D01*
X162339037Y-83774483D01*
X162439181Y-83710042D01*
X162506364Y-83611717D01*
X162530000Y-83495000D01*
X162530000Y-82950000D01*
X162450000Y-82870000D01*
X162580000Y-82870000D01*
X162580000Y-83690000D01*
X162705000Y-83815000D01*
X163825000Y-83815000D01*
X163825000Y-82695000D01*
X163700000Y-82570000D01*
X162880000Y-82570000D01*
X162770963Y-82590517D01*
X162670819Y-82654958D01*
X162603636Y-82753283D01*
X162580000Y-82870000D01*
X162450000Y-82870000D01*
X162405000Y-82825000D01*
X161535000Y-82825000D01*
X161525000Y-82825000D01*
X161505000Y-82825000D01*
X161505000Y-82815000D01*
X161525000Y-82815000D01*
X161525000Y-82795000D01*
X161535000Y-82795000D01*
X161535000Y-82815000D01*
X162405000Y-82815000D01*
X162530000Y-82690000D01*
X162530000Y-82474264D01*
X162984264Y-82020000D01*
X164230000Y-82020000D01*
X164230000Y-82570000D01*
X164230000Y-82570000D01*
G37*
X164230000Y-82570000D02*
X163960000Y-82570000D01*
X163835000Y-82695000D01*
X163835000Y-83815000D01*
X163855000Y-83815000D01*
X163855000Y-83825000D01*
X163835000Y-83825000D01*
X163835000Y-84945000D01*
X163960000Y-85070000D01*
X164280000Y-85070000D01*
X164280000Y-85193155D01*
X164201424Y-85160125D01*
X163961293Y-85110833D01*
X163716161Y-85109121D01*
X163475366Y-85155056D01*
X163248078Y-85246886D01*
X163042956Y-85381114D01*
X162867811Y-85552628D01*
X162729317Y-85754894D01*
X162632747Y-85980209D01*
X162581780Y-86219990D01*
X162578357Y-86465103D01*
X162622609Y-86706214D01*
X162712850Y-86934137D01*
X162845643Y-87140191D01*
X163015930Y-87316529D01*
X163217225Y-87456432D01*
X163441860Y-87554573D01*
X163681279Y-87607212D01*
X163926363Y-87612346D01*
X164167776Y-87569778D01*
X164230000Y-87545643D01*
X164230000Y-102280000D01*
X164000000Y-102280000D01*
X164000000Y-99701421D01*
X163999075Y-99677886D01*
X163997844Y-99662243D01*
X163990481Y-99615747D01*
X163986818Y-99600489D01*
X163972272Y-99555719D01*
X163966267Y-99541221D01*
X163944890Y-99499268D01*
X163936691Y-99485889D01*
X163909023Y-99447807D01*
X163898832Y-99435875D01*
X163882843Y-99418579D01*
X163530000Y-99065736D01*
X163530000Y-88981421D01*
X163529075Y-88957886D01*
X163527844Y-88942243D01*
X163520481Y-88895747D01*
X163516818Y-88880489D01*
X163502272Y-88835719D01*
X163496267Y-88821221D01*
X163474890Y-88779268D01*
X163466691Y-88765889D01*
X163439023Y-88727807D01*
X163428832Y-88715875D01*
X163412843Y-88698579D01*
X162360000Y-87645736D01*
X162360000Y-85710000D01*
X162358556Y-85680602D01*
X162356635Y-85661093D01*
X162345159Y-85603398D01*
X162339468Y-85584639D01*
X162316965Y-85530315D01*
X162307724Y-85513026D01*
X162275054Y-85464130D01*
X162262618Y-85448976D01*
X162221024Y-85407382D01*
X162205870Y-85394946D01*
X162156974Y-85362276D01*
X162139685Y-85353035D01*
X162085361Y-85330532D01*
X162066602Y-85324841D01*
X162008907Y-85313365D01*
X161989398Y-85311444D01*
X161930602Y-85311444D01*
X161911093Y-85313365D01*
X161853398Y-85324841D01*
X161834639Y-85330532D01*
X161780315Y-85353035D01*
X161763026Y-85362276D01*
X161714130Y-85394946D01*
X161698976Y-85407382D01*
X161657382Y-85448976D01*
X161644946Y-85464130D01*
X161612276Y-85513026D01*
X161603035Y-85530315D01*
X161580532Y-85584639D01*
X161574841Y-85603398D01*
X161563365Y-85661093D01*
X161561444Y-85680602D01*
X161560000Y-85710000D01*
X161560000Y-87808579D01*
X161560925Y-87832114D01*
X161562156Y-87847757D01*
X161569519Y-87894253D01*
X161573182Y-87909511D01*
X161587728Y-87954281D01*
X161593733Y-87968779D01*
X161615110Y-88010732D01*
X161623309Y-88024111D01*
X161650977Y-88062193D01*
X161661168Y-88074125D01*
X161677157Y-88091421D01*
X162730000Y-89144264D01*
X162730000Y-99228579D01*
X162730925Y-99252114D01*
X162732156Y-99267757D01*
X162739519Y-99314253D01*
X162743182Y-99329511D01*
X162757728Y-99374281D01*
X162763733Y-99388779D01*
X162785110Y-99430732D01*
X162793309Y-99444111D01*
X162820977Y-99482193D01*
X162831168Y-99494125D01*
X162847157Y-99511421D01*
X163200000Y-99864264D01*
X163200000Y-101480000D01*
X162500000Y-101480000D01*
X162500000Y-100321421D01*
X162499075Y-100297886D01*
X162497844Y-100282243D01*
X162490481Y-100235747D01*
X162486818Y-100220489D01*
X162472272Y-100175719D01*
X162466267Y-100161221D01*
X162444890Y-100119268D01*
X162436691Y-100105889D01*
X162409023Y-100067807D01*
X162398832Y-100055875D01*
X162382843Y-100038579D01*
X162030000Y-99685736D01*
X162030000Y-89601421D01*
X162029075Y-89577886D01*
X162027844Y-89562243D01*
X162020481Y-89515747D01*
X162016818Y-89500489D01*
X162002272Y-89455719D01*
X161996267Y-89441221D01*
X161974890Y-89399268D01*
X161966691Y-89385889D01*
X161939023Y-89347807D01*
X161928832Y-89335875D01*
X161912843Y-89318579D01*
X161330000Y-88735736D01*
X161330000Y-85440000D01*
X161322793Y-85366494D01*
X161316349Y-85292839D01*
X161315174Y-85288795D01*
X161314764Y-85284613D01*
X161293420Y-85213919D01*
X161272789Y-85142906D01*
X161270853Y-85139170D01*
X161269637Y-85135144D01*
X161234938Y-85069884D01*
X161200936Y-85004289D01*
X161198313Y-85001003D01*
X161196337Y-84997287D01*
X161149631Y-84940019D01*
X161103529Y-84882268D01*
X161097758Y-84876417D01*
X161097657Y-84876293D01*
X161097542Y-84876198D01*
X161095685Y-84874315D01*
X160591458Y-84370088D01*
X160638526Y-84325266D01*
X160728962Y-84197066D01*
X160792774Y-84053741D01*
X160816343Y-83950000D01*
X162580000Y-83950000D01*
X162580000Y-84770000D01*
X162600517Y-84879037D01*
X162664958Y-84979181D01*
X162763283Y-85046364D01*
X162880000Y-85070000D01*
X163700000Y-85070000D01*
X163825000Y-84945000D01*
X163825000Y-83825000D01*
X162705000Y-83825000D01*
X162580000Y-83950000D01*
X160816343Y-83950000D01*
X160827532Y-83900752D01*
X160828621Y-83822770D01*
X160829922Y-83811170D01*
X160830000Y-83800000D01*
X160830000Y-83795000D01*
X160930000Y-83795000D01*
X160959398Y-83793556D01*
X160968827Y-83792628D01*
X160980754Y-83795000D01*
X161400000Y-83795000D01*
X161525000Y-83670000D01*
X161525000Y-82825000D01*
X161535000Y-82825000D01*
X161535000Y-83670000D01*
X161660000Y-83795000D01*
X162230000Y-83795000D01*
X162339037Y-83774483D01*
X162439181Y-83710042D01*
X162506364Y-83611717D01*
X162530000Y-83495000D01*
X162530000Y-82950000D01*
X162450000Y-82870000D01*
X162580000Y-82870000D01*
X162580000Y-83690000D01*
X162705000Y-83815000D01*
X163825000Y-83815000D01*
X163825000Y-82695000D01*
X163700000Y-82570000D01*
X162880000Y-82570000D01*
X162770963Y-82590517D01*
X162670819Y-82654958D01*
X162603636Y-82753283D01*
X162580000Y-82870000D01*
X162450000Y-82870000D01*
X162405000Y-82825000D01*
X161535000Y-82825000D01*
X161525000Y-82825000D01*
X161505000Y-82825000D01*
X161505000Y-82815000D01*
X161525000Y-82815000D01*
X161525000Y-82795000D01*
X161535000Y-82795000D01*
X161535000Y-82815000D01*
X162405000Y-82815000D01*
X162530000Y-82690000D01*
X162530000Y-82474264D01*
X162984264Y-82020000D01*
X164230000Y-82020000D01*
X164230000Y-82570000D01*
D34*
G36*
X154505000Y-83775000D02*
X154030000Y-83775000D01*
X154017751Y-83775602D01*
X153998242Y-83777523D01*
X153974202Y-83782304D01*
X153955443Y-83787995D01*
X153932808Y-83797371D01*
X153915519Y-83806612D01*
X153895146Y-83820225D01*
X153879992Y-83832661D01*
X153862661Y-83849992D01*
X153850225Y-83865146D01*
X153836612Y-83885519D01*
X153827371Y-83902808D01*
X153817995Y-83925443D01*
X153812304Y-83944202D01*
X153807523Y-83968242D01*
X153805602Y-83987751D01*
X153805602Y-84012249D01*
X153807523Y-84031758D01*
X153812304Y-84055798D01*
X153817995Y-84074557D01*
X153827371Y-84097192D01*
X153836612Y-84114481D01*
X153850225Y-84134854D01*
X153862661Y-84150008D01*
X153879992Y-84167339D01*
X153895146Y-84179775D01*
X153915519Y-84193388D01*
X153932808Y-84202629D01*
X153955443Y-84212005D01*
X153974202Y-84217696D01*
X153998242Y-84222477D01*
X154017751Y-84224398D01*
X154030000Y-84225000D01*
X158428224Y-84225000D01*
X159905000Y-85701776D01*
X159905000Y-89238579D01*
X159905385Y-89248385D01*
X159906616Y-89264028D01*
X159909685Y-89283402D01*
X159913348Y-89298660D01*
X159919408Y-89317314D01*
X159925413Y-89331812D01*
X159934320Y-89349292D01*
X159942519Y-89362671D01*
X159954048Y-89378539D01*
X159964239Y-89390471D01*
X159970901Y-89397677D01*
X160605000Y-90031776D01*
X160605000Y-97118224D01*
X158818224Y-98905000D01*
X157511421Y-98905000D01*
X157499172Y-98905602D01*
X157479663Y-98907523D01*
X157455623Y-98912304D01*
X157436864Y-98917995D01*
X157414229Y-98927371D01*
X157396940Y-98936612D01*
X157376564Y-98950227D01*
X157361411Y-98962663D01*
X157352323Y-98970901D01*
X156618224Y-99705000D01*
X155778884Y-99705000D01*
X155461942Y-99388058D01*
X155417312Y-99351399D01*
X155373104Y-99314304D01*
X155370225Y-99312721D01*
X155367685Y-99310635D01*
X155316853Y-99283379D01*
X155266214Y-99255540D01*
X155263076Y-99254544D01*
X155260184Y-99252994D01*
X155204990Y-99236119D01*
X155149945Y-99218658D01*
X155146683Y-99218292D01*
X155143536Y-99217330D01*
X155086063Y-99211492D01*
X155028726Y-99205061D01*
X155022301Y-99205016D01*
X155022182Y-99205004D01*
X155022071Y-99205014D01*
X155020000Y-99205000D01*
X154230000Y-99205000D01*
X154172487Y-99210639D01*
X154115030Y-99215666D01*
X154111877Y-99216582D01*
X154108604Y-99216903D01*
X154053350Y-99233585D01*
X153997895Y-99249696D01*
X153994974Y-99251210D01*
X153991831Y-99252159D01*
X153940856Y-99279263D01*
X153889601Y-99305831D01*
X153887035Y-99307879D01*
X153884130Y-99309424D01*
X153839351Y-99345945D01*
X153794271Y-99381932D01*
X153789700Y-99386440D01*
X153789604Y-99386518D01*
X153789530Y-99386607D01*
X153788058Y-99388059D01*
X153238058Y-99938058D01*
X153201399Y-99982688D01*
X153164304Y-100026896D01*
X153162721Y-100029775D01*
X153160635Y-100032315D01*
X153133379Y-100083147D01*
X153105540Y-100133786D01*
X153104544Y-100136924D01*
X153102994Y-100139816D01*
X153086119Y-100195010D01*
X153068658Y-100250055D01*
X153068529Y-100251204D01*
X152972197Y-100199118D01*
X152855674Y-100163047D01*
X152734363Y-100150297D01*
X152612887Y-100161352D01*
X152495871Y-100195792D01*
X152387773Y-100252304D01*
X152292710Y-100328737D01*
X152214304Y-100422178D01*
X152168772Y-100505000D01*
X151880000Y-100505000D01*
X151821514Y-100510735D01*
X151762887Y-100516070D01*
X151760782Y-100516689D01*
X151758604Y-100516903D01*
X151702348Y-100533888D01*
X151645871Y-100550510D01*
X151643928Y-100551526D01*
X151641831Y-100552159D01*
X151616457Y-100565650D01*
X151607841Y-100537113D01*
X151550576Y-100429412D01*
X151473482Y-100334886D01*
X151379496Y-100257134D01*
X151272197Y-100199118D01*
X151155674Y-100163047D01*
X151034363Y-100150297D01*
X150912887Y-100161352D01*
X150795871Y-100195792D01*
X150687773Y-100252304D01*
X150592710Y-100328737D01*
X150514304Y-100422178D01*
X150468772Y-100505000D01*
X150086012Y-100505000D01*
X150023081Y-100504561D01*
X149902683Y-100527528D01*
X149789039Y-100573443D01*
X149730396Y-100611818D01*
X149707841Y-100537113D01*
X149650576Y-100429412D01*
X149573482Y-100334886D01*
X149479496Y-100257134D01*
X149372197Y-100199118D01*
X149255674Y-100163047D01*
X149134363Y-100150297D01*
X149012887Y-100161352D01*
X148895871Y-100195792D01*
X148787773Y-100252304D01*
X148692710Y-100328737D01*
X148614304Y-100422178D01*
X148555540Y-100529068D01*
X148518658Y-100645337D01*
X148514770Y-100680000D01*
X147116396Y-100680000D01*
X146856396Y-100420000D01*
X147130000Y-100420000D01*
X147171339Y-100415947D01*
X147212778Y-100412321D01*
X147215050Y-100411661D01*
X147217405Y-100411430D01*
X147257204Y-100399414D01*
X147297115Y-100387819D01*
X147299215Y-100386730D01*
X147301482Y-100386046D01*
X147338251Y-100366495D01*
X147375087Y-100347401D01*
X147376931Y-100345929D01*
X147379026Y-100344815D01*
X147411276Y-100318512D01*
X147443724Y-100292610D01*
X147447018Y-100289362D01*
X147447085Y-100289307D01*
X147447136Y-100289245D01*
X147448198Y-100288198D01*
X149168198Y-98568198D01*
X149194586Y-98536073D01*
X149221301Y-98504235D01*
X149222439Y-98502165D01*
X149223943Y-98500334D01*
X149243605Y-98463665D01*
X149263611Y-98427274D01*
X149264326Y-98425020D01*
X149265445Y-98422933D01*
X149277610Y-98383143D01*
X149290166Y-98343560D01*
X149290429Y-98341211D01*
X149291122Y-98338946D01*
X149295324Y-98297576D01*
X149299956Y-98256283D01*
X149299988Y-98251656D01*
X149299997Y-98251571D01*
X149299990Y-98251492D01*
X149300000Y-98250000D01*
X149300000Y-98220763D01*
X149314484Y-98232745D01*
X149417491Y-98288440D01*
X149529353Y-98323067D01*
X149645811Y-98335307D01*
X149762429Y-98324694D01*
X149874764Y-98291632D01*
X149978538Y-98237381D01*
X150050322Y-98179665D01*
X150114484Y-98232745D01*
X150217491Y-98288440D01*
X150329353Y-98323067D01*
X150445811Y-98335307D01*
X150562429Y-98324694D01*
X150674764Y-98291632D01*
X150778538Y-98237381D01*
X150869798Y-98164006D01*
X150945068Y-98074302D01*
X151001481Y-97971687D01*
X151036889Y-97860069D01*
X151049942Y-97743699D01*
X151050000Y-97735322D01*
X151050000Y-97673439D01*
X151052197Y-97673247D01*
X151081425Y-97747068D01*
X151147822Y-97850096D01*
X151232965Y-97938264D01*
X151333612Y-98008216D01*
X151445930Y-98057286D01*
X151565639Y-98083606D01*
X151628527Y-98084923D01*
X152261802Y-98718198D01*
X152293905Y-98744568D01*
X152325765Y-98771301D01*
X152327838Y-98772441D01*
X152329667Y-98773943D01*
X152366314Y-98793593D01*
X152402726Y-98813611D01*
X152404980Y-98814326D01*
X152407067Y-98815445D01*
X152446857Y-98827610D01*
X152486440Y-98840166D01*
X152488789Y-98840429D01*
X152491054Y-98841122D01*
X152532424Y-98845324D01*
X152573717Y-98849956D01*
X152578344Y-98849988D01*
X152578429Y-98849997D01*
X152578508Y-98849990D01*
X152580000Y-98850000D01*
X155586558Y-98850000D01*
X155596305Y-98903107D01*
X155641425Y-99017068D01*
X155707822Y-99120096D01*
X155792965Y-99208264D01*
X155893612Y-99278216D01*
X156005930Y-99327286D01*
X156125639Y-99353606D01*
X156248181Y-99356173D01*
X156368888Y-99334889D01*
X156483162Y-99290565D01*
X156586650Y-99224890D01*
X156675411Y-99140364D01*
X156746064Y-99040207D01*
X156795917Y-98928235D01*
X156823072Y-98808712D01*
X156825027Y-98668716D01*
X156801220Y-98548481D01*
X156754512Y-98435161D01*
X156686684Y-98333070D01*
X156600318Y-98246099D01*
X156498703Y-98177560D01*
X156385712Y-98130062D01*
X156265646Y-98105416D01*
X156211434Y-98105038D01*
X156188198Y-98081802D01*
X156156095Y-98055432D01*
X156124235Y-98028699D01*
X156122162Y-98027559D01*
X156120333Y-98026057D01*
X156083686Y-98006407D01*
X156047274Y-97986389D01*
X156045020Y-97985674D01*
X156042933Y-97984555D01*
X156003143Y-97972390D01*
X155963560Y-97959834D01*
X155961211Y-97959571D01*
X155958946Y-97958878D01*
X155917576Y-97954676D01*
X155876283Y-97950044D01*
X155871656Y-97950012D01*
X155871571Y-97950003D01*
X155871492Y-97950010D01*
X155870000Y-97950000D01*
X152766396Y-97950000D01*
X152264340Y-97447944D01*
X152265027Y-97398716D01*
X152241521Y-97280000D01*
X154070000Y-97280000D01*
X154111339Y-97275947D01*
X154152778Y-97272321D01*
X154155050Y-97271661D01*
X154157405Y-97271430D01*
X154197204Y-97259414D01*
X154237115Y-97247819D01*
X154239215Y-97246730D01*
X154241482Y-97246046D01*
X154278251Y-97226495D01*
X154315087Y-97207401D01*
X154316931Y-97205929D01*
X154319026Y-97204815D01*
X154351276Y-97178512D01*
X154383724Y-97152610D01*
X154387018Y-97149362D01*
X154387085Y-97149307D01*
X154387136Y-97149245D01*
X154388198Y-97148198D01*
X156738198Y-94798198D01*
X156764568Y-94766095D01*
X156791301Y-94734235D01*
X156792441Y-94732162D01*
X156793943Y-94730333D01*
X156813593Y-94693686D01*
X156833611Y-94657274D01*
X156834326Y-94655020D01*
X156835445Y-94652933D01*
X156847610Y-94613143D01*
X156860166Y-94573560D01*
X156860429Y-94571211D01*
X156861122Y-94568946D01*
X156865324Y-94527576D01*
X156869956Y-94486283D01*
X156869988Y-94481656D01*
X156869997Y-94481571D01*
X156869990Y-94481492D01*
X156870000Y-94480000D01*
X156870000Y-89879621D01*
X156891301Y-89854235D01*
X156892439Y-89852165D01*
X156893943Y-89850334D01*
X156913605Y-89813665D01*
X156933611Y-89777274D01*
X156934326Y-89775020D01*
X156935445Y-89772933D01*
X156947614Y-89733131D01*
X156960166Y-89693560D01*
X156960429Y-89691213D01*
X156961122Y-89688947D01*
X156965325Y-89647571D01*
X156969956Y-89606283D01*
X156969988Y-89601656D01*
X156969997Y-89601571D01*
X156969990Y-89601492D01*
X156970000Y-89600000D01*
X156970000Y-86590000D01*
X156965942Y-86548611D01*
X156962320Y-86507222D01*
X156961661Y-86504955D01*
X156961430Y-86502595D01*
X156949406Y-86462768D01*
X156937819Y-86422884D01*
X156936730Y-86420783D01*
X156936046Y-86418518D01*
X156916516Y-86381788D01*
X156897401Y-86344912D01*
X156895927Y-86343066D01*
X156894815Y-86340974D01*
X156868505Y-86308715D01*
X156842609Y-86276276D01*
X156839363Y-86272984D01*
X156839307Y-86272915D01*
X156839244Y-86272863D01*
X156838198Y-86271802D01*
X155628198Y-85061802D01*
X155596095Y-85035432D01*
X155564235Y-85008699D01*
X155562162Y-85007559D01*
X155560333Y-85006057D01*
X155523686Y-84986407D01*
X155487274Y-84966389D01*
X155485020Y-84965674D01*
X155482933Y-84964555D01*
X155443143Y-84952390D01*
X155403560Y-84939834D01*
X155401211Y-84939571D01*
X155398946Y-84938878D01*
X155357576Y-84934676D01*
X155316283Y-84930044D01*
X155311656Y-84930012D01*
X155311571Y-84930003D01*
X155311492Y-84930010D01*
X155310000Y-84930000D01*
X153816396Y-84930000D01*
X153111396Y-84225000D01*
X153230000Y-84225000D01*
X153242249Y-84224398D01*
X153261758Y-84222477D01*
X153285798Y-84217696D01*
X153304557Y-84212005D01*
X153327192Y-84202629D01*
X153344481Y-84193388D01*
X153364854Y-84179775D01*
X153380008Y-84167339D01*
X153397339Y-84150008D01*
X153409775Y-84134854D01*
X153423388Y-84114481D01*
X153432629Y-84097192D01*
X153442005Y-84074557D01*
X153447696Y-84055798D01*
X153452477Y-84031758D01*
X153454398Y-84012249D01*
X153454398Y-83987751D01*
X153452477Y-83968242D01*
X153447696Y-83944202D01*
X153442005Y-83925443D01*
X153432629Y-83902808D01*
X153423388Y-83885519D01*
X153409775Y-83865146D01*
X153397339Y-83849992D01*
X153380008Y-83832661D01*
X153364854Y-83820225D01*
X153344481Y-83806612D01*
X153327192Y-83797371D01*
X153304557Y-83787995D01*
X153285798Y-83782304D01*
X153261758Y-83777523D01*
X153242249Y-83775602D01*
X153230000Y-83775000D01*
X153125000Y-83775000D01*
X153125000Y-83425000D01*
X154505000Y-83425000D01*
X154505000Y-83775000D01*
X154505000Y-83775000D01*
G37*
X154505000Y-83775000D02*
X154030000Y-83775000D01*
X154017751Y-83775602D01*
X153998242Y-83777523D01*
X153974202Y-83782304D01*
X153955443Y-83787995D01*
X153932808Y-83797371D01*
X153915519Y-83806612D01*
X153895146Y-83820225D01*
X153879992Y-83832661D01*
X153862661Y-83849992D01*
X153850225Y-83865146D01*
X153836612Y-83885519D01*
X153827371Y-83902808D01*
X153817995Y-83925443D01*
X153812304Y-83944202D01*
X153807523Y-83968242D01*
X153805602Y-83987751D01*
X153805602Y-84012249D01*
X153807523Y-84031758D01*
X153812304Y-84055798D01*
X153817995Y-84074557D01*
X153827371Y-84097192D01*
X153836612Y-84114481D01*
X153850225Y-84134854D01*
X153862661Y-84150008D01*
X153879992Y-84167339D01*
X153895146Y-84179775D01*
X153915519Y-84193388D01*
X153932808Y-84202629D01*
X153955443Y-84212005D01*
X153974202Y-84217696D01*
X153998242Y-84222477D01*
X154017751Y-84224398D01*
X154030000Y-84225000D01*
X158428224Y-84225000D01*
X159905000Y-85701776D01*
X159905000Y-89238579D01*
X159905385Y-89248385D01*
X159906616Y-89264028D01*
X159909685Y-89283402D01*
X159913348Y-89298660D01*
X159919408Y-89317314D01*
X159925413Y-89331812D01*
X159934320Y-89349292D01*
X159942519Y-89362671D01*
X159954048Y-89378539D01*
X159964239Y-89390471D01*
X159970901Y-89397677D01*
X160605000Y-90031776D01*
X160605000Y-97118224D01*
X158818224Y-98905000D01*
X157511421Y-98905000D01*
X157499172Y-98905602D01*
X157479663Y-98907523D01*
X157455623Y-98912304D01*
X157436864Y-98917995D01*
X157414229Y-98927371D01*
X157396940Y-98936612D01*
X157376564Y-98950227D01*
X157361411Y-98962663D01*
X157352323Y-98970901D01*
X156618224Y-99705000D01*
X155778884Y-99705000D01*
X155461942Y-99388058D01*
X155417312Y-99351399D01*
X155373104Y-99314304D01*
X155370225Y-99312721D01*
X155367685Y-99310635D01*
X155316853Y-99283379D01*
X155266214Y-99255540D01*
X155263076Y-99254544D01*
X155260184Y-99252994D01*
X155204990Y-99236119D01*
X155149945Y-99218658D01*
X155146683Y-99218292D01*
X155143536Y-99217330D01*
X155086063Y-99211492D01*
X155028726Y-99205061D01*
X155022301Y-99205016D01*
X155022182Y-99205004D01*
X155022071Y-99205014D01*
X155020000Y-99205000D01*
X154230000Y-99205000D01*
X154172487Y-99210639D01*
X154115030Y-99215666D01*
X154111877Y-99216582D01*
X154108604Y-99216903D01*
X154053350Y-99233585D01*
X153997895Y-99249696D01*
X153994974Y-99251210D01*
X153991831Y-99252159D01*
X153940856Y-99279263D01*
X153889601Y-99305831D01*
X153887035Y-99307879D01*
X153884130Y-99309424D01*
X153839351Y-99345945D01*
X153794271Y-99381932D01*
X153789700Y-99386440D01*
X153789604Y-99386518D01*
X153789530Y-99386607D01*
X153788058Y-99388059D01*
X153238058Y-99938058D01*
X153201399Y-99982688D01*
X153164304Y-100026896D01*
X153162721Y-100029775D01*
X153160635Y-100032315D01*
X153133379Y-100083147D01*
X153105540Y-100133786D01*
X153104544Y-100136924D01*
X153102994Y-100139816D01*
X153086119Y-100195010D01*
X153068658Y-100250055D01*
X153068529Y-100251204D01*
X152972197Y-100199118D01*
X152855674Y-100163047D01*
X152734363Y-100150297D01*
X152612887Y-100161352D01*
X152495871Y-100195792D01*
X152387773Y-100252304D01*
X152292710Y-100328737D01*
X152214304Y-100422178D01*
X152168772Y-100505000D01*
X151880000Y-100505000D01*
X151821514Y-100510735D01*
X151762887Y-100516070D01*
X151760782Y-100516689D01*
X151758604Y-100516903D01*
X151702348Y-100533888D01*
X151645871Y-100550510D01*
X151643928Y-100551526D01*
X151641831Y-100552159D01*
X151616457Y-100565650D01*
X151607841Y-100537113D01*
X151550576Y-100429412D01*
X151473482Y-100334886D01*
X151379496Y-100257134D01*
X151272197Y-100199118D01*
X151155674Y-100163047D01*
X151034363Y-100150297D01*
X150912887Y-100161352D01*
X150795871Y-100195792D01*
X150687773Y-100252304D01*
X150592710Y-100328737D01*
X150514304Y-100422178D01*
X150468772Y-100505000D01*
X150086012Y-100505000D01*
X150023081Y-100504561D01*
X149902683Y-100527528D01*
X149789039Y-100573443D01*
X149730396Y-100611818D01*
X149707841Y-100537113D01*
X149650576Y-100429412D01*
X149573482Y-100334886D01*
X149479496Y-100257134D01*
X149372197Y-100199118D01*
X149255674Y-100163047D01*
X149134363Y-100150297D01*
X149012887Y-100161352D01*
X148895871Y-100195792D01*
X148787773Y-100252304D01*
X148692710Y-100328737D01*
X148614304Y-100422178D01*
X148555540Y-100529068D01*
X148518658Y-100645337D01*
X148514770Y-100680000D01*
X147116396Y-100680000D01*
X146856396Y-100420000D01*
X147130000Y-100420000D01*
X147171339Y-100415947D01*
X147212778Y-100412321D01*
X147215050Y-100411661D01*
X147217405Y-100411430D01*
X147257204Y-100399414D01*
X147297115Y-100387819D01*
X147299215Y-100386730D01*
X147301482Y-100386046D01*
X147338251Y-100366495D01*
X147375087Y-100347401D01*
X147376931Y-100345929D01*
X147379026Y-100344815D01*
X147411276Y-100318512D01*
X147443724Y-100292610D01*
X147447018Y-100289362D01*
X147447085Y-100289307D01*
X147447136Y-100289245D01*
X147448198Y-100288198D01*
X149168198Y-98568198D01*
X149194586Y-98536073D01*
X149221301Y-98504235D01*
X149222439Y-98502165D01*
X149223943Y-98500334D01*
X149243605Y-98463665D01*
X149263611Y-98427274D01*
X149264326Y-98425020D01*
X149265445Y-98422933D01*
X149277610Y-98383143D01*
X149290166Y-98343560D01*
X149290429Y-98341211D01*
X149291122Y-98338946D01*
X149295324Y-98297576D01*
X149299956Y-98256283D01*
X149299988Y-98251656D01*
X149299997Y-98251571D01*
X149299990Y-98251492D01*
X149300000Y-98250000D01*
X149300000Y-98220763D01*
X149314484Y-98232745D01*
X149417491Y-98288440D01*
X149529353Y-98323067D01*
X149645811Y-98335307D01*
X149762429Y-98324694D01*
X149874764Y-98291632D01*
X149978538Y-98237381D01*
X150050322Y-98179665D01*
X150114484Y-98232745D01*
X150217491Y-98288440D01*
X150329353Y-98323067D01*
X150445811Y-98335307D01*
X150562429Y-98324694D01*
X150674764Y-98291632D01*
X150778538Y-98237381D01*
X150869798Y-98164006D01*
X150945068Y-98074302D01*
X151001481Y-97971687D01*
X151036889Y-97860069D01*
X151049942Y-97743699D01*
X151050000Y-97735322D01*
X151050000Y-97673439D01*
X151052197Y-97673247D01*
X151081425Y-97747068D01*
X151147822Y-97850096D01*
X151232965Y-97938264D01*
X151333612Y-98008216D01*
X151445930Y-98057286D01*
X151565639Y-98083606D01*
X151628527Y-98084923D01*
X152261802Y-98718198D01*
X152293905Y-98744568D01*
X152325765Y-98771301D01*
X152327838Y-98772441D01*
X152329667Y-98773943D01*
X152366314Y-98793593D01*
X152402726Y-98813611D01*
X152404980Y-98814326D01*
X152407067Y-98815445D01*
X152446857Y-98827610D01*
X152486440Y-98840166D01*
X152488789Y-98840429D01*
X152491054Y-98841122D01*
X152532424Y-98845324D01*
X152573717Y-98849956D01*
X152578344Y-98849988D01*
X152578429Y-98849997D01*
X152578508Y-98849990D01*
X152580000Y-98850000D01*
X155586558Y-98850000D01*
X155596305Y-98903107D01*
X155641425Y-99017068D01*
X155707822Y-99120096D01*
X155792965Y-99208264D01*
X155893612Y-99278216D01*
X156005930Y-99327286D01*
X156125639Y-99353606D01*
X156248181Y-99356173D01*
X156368888Y-99334889D01*
X156483162Y-99290565D01*
X156586650Y-99224890D01*
X156675411Y-99140364D01*
X156746064Y-99040207D01*
X156795917Y-98928235D01*
X156823072Y-98808712D01*
X156825027Y-98668716D01*
X156801220Y-98548481D01*
X156754512Y-98435161D01*
X156686684Y-98333070D01*
X156600318Y-98246099D01*
X156498703Y-98177560D01*
X156385712Y-98130062D01*
X156265646Y-98105416D01*
X156211434Y-98105038D01*
X156188198Y-98081802D01*
X156156095Y-98055432D01*
X156124235Y-98028699D01*
X156122162Y-98027559D01*
X156120333Y-98026057D01*
X156083686Y-98006407D01*
X156047274Y-97986389D01*
X156045020Y-97985674D01*
X156042933Y-97984555D01*
X156003143Y-97972390D01*
X155963560Y-97959834D01*
X155961211Y-97959571D01*
X155958946Y-97958878D01*
X155917576Y-97954676D01*
X155876283Y-97950044D01*
X155871656Y-97950012D01*
X155871571Y-97950003D01*
X155871492Y-97950010D01*
X155870000Y-97950000D01*
X152766396Y-97950000D01*
X152264340Y-97447944D01*
X152265027Y-97398716D01*
X152241521Y-97280000D01*
X154070000Y-97280000D01*
X154111339Y-97275947D01*
X154152778Y-97272321D01*
X154155050Y-97271661D01*
X154157405Y-97271430D01*
X154197204Y-97259414D01*
X154237115Y-97247819D01*
X154239215Y-97246730D01*
X154241482Y-97246046D01*
X154278251Y-97226495D01*
X154315087Y-97207401D01*
X154316931Y-97205929D01*
X154319026Y-97204815D01*
X154351276Y-97178512D01*
X154383724Y-97152610D01*
X154387018Y-97149362D01*
X154387085Y-97149307D01*
X154387136Y-97149245D01*
X154388198Y-97148198D01*
X156738198Y-94798198D01*
X156764568Y-94766095D01*
X156791301Y-94734235D01*
X156792441Y-94732162D01*
X156793943Y-94730333D01*
X156813593Y-94693686D01*
X156833611Y-94657274D01*
X156834326Y-94655020D01*
X156835445Y-94652933D01*
X156847610Y-94613143D01*
X156860166Y-94573560D01*
X156860429Y-94571211D01*
X156861122Y-94568946D01*
X156865324Y-94527576D01*
X156869956Y-94486283D01*
X156869988Y-94481656D01*
X156869997Y-94481571D01*
X156869990Y-94481492D01*
X156870000Y-94480000D01*
X156870000Y-89879621D01*
X156891301Y-89854235D01*
X156892439Y-89852165D01*
X156893943Y-89850334D01*
X156913605Y-89813665D01*
X156933611Y-89777274D01*
X156934326Y-89775020D01*
X156935445Y-89772933D01*
X156947614Y-89733131D01*
X156960166Y-89693560D01*
X156960429Y-89691213D01*
X156961122Y-89688947D01*
X156965325Y-89647571D01*
X156969956Y-89606283D01*
X156969988Y-89601656D01*
X156969997Y-89601571D01*
X156969990Y-89601492D01*
X156970000Y-89600000D01*
X156970000Y-86590000D01*
X156965942Y-86548611D01*
X156962320Y-86507222D01*
X156961661Y-86504955D01*
X156961430Y-86502595D01*
X156949406Y-86462768D01*
X156937819Y-86422884D01*
X156936730Y-86420783D01*
X156936046Y-86418518D01*
X156916516Y-86381788D01*
X156897401Y-86344912D01*
X156895927Y-86343066D01*
X156894815Y-86340974D01*
X156868505Y-86308715D01*
X156842609Y-86276276D01*
X156839363Y-86272984D01*
X156839307Y-86272915D01*
X156839244Y-86272863D01*
X156838198Y-86271802D01*
X155628198Y-85061802D01*
X155596095Y-85035432D01*
X155564235Y-85008699D01*
X155562162Y-85007559D01*
X155560333Y-85006057D01*
X155523686Y-84986407D01*
X155487274Y-84966389D01*
X155485020Y-84965674D01*
X155482933Y-84964555D01*
X155443143Y-84952390D01*
X155403560Y-84939834D01*
X155401211Y-84939571D01*
X155398946Y-84938878D01*
X155357576Y-84934676D01*
X155316283Y-84930044D01*
X155311656Y-84930012D01*
X155311571Y-84930003D01*
X155311492Y-84930010D01*
X155310000Y-84930000D01*
X153816396Y-84930000D01*
X153111396Y-84225000D01*
X153230000Y-84225000D01*
X153242249Y-84224398D01*
X153261758Y-84222477D01*
X153285798Y-84217696D01*
X153304557Y-84212005D01*
X153327192Y-84202629D01*
X153344481Y-84193388D01*
X153364854Y-84179775D01*
X153380008Y-84167339D01*
X153397339Y-84150008D01*
X153409775Y-84134854D01*
X153423388Y-84114481D01*
X153432629Y-84097192D01*
X153442005Y-84074557D01*
X153447696Y-84055798D01*
X153452477Y-84031758D01*
X153454398Y-84012249D01*
X153454398Y-83987751D01*
X153452477Y-83968242D01*
X153447696Y-83944202D01*
X153442005Y-83925443D01*
X153432629Y-83902808D01*
X153423388Y-83885519D01*
X153409775Y-83865146D01*
X153397339Y-83849992D01*
X153380008Y-83832661D01*
X153364854Y-83820225D01*
X153344481Y-83806612D01*
X153327192Y-83797371D01*
X153304557Y-83787995D01*
X153285798Y-83782304D01*
X153261758Y-83777523D01*
X153242249Y-83775602D01*
X153230000Y-83775000D01*
X153125000Y-83775000D01*
X153125000Y-83425000D01*
X154505000Y-83425000D01*
X154505000Y-83775000D01*
M02*
