G04 #@! TF.FileFunction,Legend,Top*
%FSLAX46Y46*%
G04 Gerber Fmt 4.6, Leading zero omitted, Abs format (unit mm)*
G04 Created by KiCad (PCBNEW 4.0.3-stable) date 04/12/17 00:36:20*
%MOMM*%
%LPD*%
G01*
G04 APERTURE LIST*
%ADD10C,0.100000*%
%ADD11C,0.200000*%
%ADD12C,0.300000*%
%ADD13C,0.250000*%
%ADD14C,0.150000*%
%ADD15C,1.250000*%
%ADD16C,0.010000*%
G04 APERTURE END LIST*
D10*
D11*
X163830000Y-82050000D02*
X163830000Y-81050000D01*
X163330000Y-81550000D02*
X164330000Y-81550000D01*
X163330000Y-88630000D02*
X164330000Y-88630000D01*
X119707619Y-103642381D02*
X119374285Y-103166190D01*
X119136190Y-103642381D02*
X119136190Y-102642381D01*
X119517143Y-102642381D01*
X119612381Y-102690000D01*
X119660000Y-102737619D01*
X119707619Y-102832857D01*
X119707619Y-102975714D01*
X119660000Y-103070952D01*
X119612381Y-103118571D01*
X119517143Y-103166190D01*
X119136190Y-103166190D01*
X120136190Y-103118571D02*
X120469524Y-103118571D01*
X120612381Y-103642381D02*
X120136190Y-103642381D01*
X120136190Y-102642381D01*
X120612381Y-102642381D01*
X120993333Y-103594762D02*
X121136190Y-103642381D01*
X121374286Y-103642381D01*
X121469524Y-103594762D01*
X121517143Y-103547143D01*
X121564762Y-103451905D01*
X121564762Y-103356667D01*
X121517143Y-103261429D01*
X121469524Y-103213810D01*
X121374286Y-103166190D01*
X121183809Y-103118571D01*
X121088571Y-103070952D01*
X121040952Y-103023333D01*
X120993333Y-102928095D01*
X120993333Y-102832857D01*
X121040952Y-102737619D01*
X121088571Y-102690000D01*
X121183809Y-102642381D01*
X121421905Y-102642381D01*
X121564762Y-102690000D01*
X121993333Y-103118571D02*
X122326667Y-103118571D01*
X122469524Y-103642381D02*
X121993333Y-103642381D01*
X121993333Y-102642381D01*
X122469524Y-102642381D01*
X122755238Y-102642381D02*
X123326667Y-102642381D01*
X123040952Y-103642381D02*
X123040952Y-102642381D01*
D12*
X147832856Y-95058571D02*
X148118570Y-95058571D01*
X148261428Y-95130000D01*
X148404285Y-95272857D01*
X148475713Y-95558571D01*
X148475713Y-96058571D01*
X148404285Y-96344286D01*
X148261428Y-96487143D01*
X148118570Y-96558571D01*
X147832856Y-96558571D01*
X147689999Y-96487143D01*
X147547142Y-96344286D01*
X147475713Y-96058571D01*
X147475713Y-95558571D01*
X147547142Y-95272857D01*
X147689999Y-95130000D01*
X147832856Y-95058571D01*
X149118571Y-95058571D02*
X149118571Y-96272857D01*
X149189999Y-96415714D01*
X149261428Y-96487143D01*
X149404285Y-96558571D01*
X149689999Y-96558571D01*
X149832857Y-96487143D01*
X149904285Y-96415714D01*
X149975714Y-96272857D01*
X149975714Y-95058571D01*
X150475714Y-95058571D02*
X151332857Y-95058571D01*
X150904286Y-96558571D02*
X150904286Y-95058571D01*
X151832857Y-96558571D02*
X151832857Y-95058571D01*
X152404285Y-95058571D01*
X152547143Y-95130000D01*
X152618571Y-95201429D01*
X152690000Y-95344286D01*
X152690000Y-95558571D01*
X152618571Y-95701429D01*
X152547143Y-95772857D01*
X152404285Y-95844286D01*
X151832857Y-95844286D01*
X153332857Y-95058571D02*
X153332857Y-96272857D01*
X153404285Y-96415714D01*
X153475714Y-96487143D01*
X153618571Y-96558571D01*
X153904285Y-96558571D01*
X154047143Y-96487143D01*
X154118571Y-96415714D01*
X154190000Y-96272857D01*
X154190000Y-95058571D01*
X154690000Y-95058571D02*
X155547143Y-95058571D01*
X155118572Y-96558571D02*
X155118572Y-95058571D01*
D13*
X144030000Y-97130000D02*
X155690000Y-97130000D01*
D12*
X136847142Y-96558571D02*
X136847142Y-95058571D01*
X137561428Y-96558571D02*
X137561428Y-95058571D01*
X138418571Y-96558571D01*
X138418571Y-95058571D01*
X139132857Y-96558571D02*
X139132857Y-95058571D01*
X139704285Y-95058571D01*
X139847143Y-95130000D01*
X139918571Y-95201429D01*
X139990000Y-95344286D01*
X139990000Y-95558571D01*
X139918571Y-95701429D01*
X139847143Y-95772857D01*
X139704285Y-95844286D01*
X139132857Y-95844286D01*
X140632857Y-95058571D02*
X140632857Y-96272857D01*
X140704285Y-96415714D01*
X140775714Y-96487143D01*
X140918571Y-96558571D01*
X141204285Y-96558571D01*
X141347143Y-96487143D01*
X141418571Y-96415714D01*
X141490000Y-96272857D01*
X141490000Y-95058571D01*
X141990000Y-95058571D02*
X142847143Y-95058571D01*
X142418572Y-96558571D02*
X142418572Y-95058571D01*
D13*
X125990000Y-97130000D02*
X142990000Y-97130000D01*
D11*
X129732381Y-101415714D02*
X129732381Y-101891905D01*
X128732381Y-101891905D01*
X128732381Y-100891905D02*
X128732381Y-100701428D01*
X128780000Y-100606190D01*
X128875238Y-100510952D01*
X129065714Y-100463333D01*
X129399048Y-100463333D01*
X129589524Y-100510952D01*
X129684762Y-100606190D01*
X129732381Y-100701428D01*
X129732381Y-100891905D01*
X129684762Y-100987143D01*
X129589524Y-101082381D01*
X129399048Y-101130000D01*
X129065714Y-101130000D01*
X128875238Y-101082381D01*
X128780000Y-100987143D01*
X128732381Y-100891905D01*
X129684762Y-100082381D02*
X129732381Y-99939524D01*
X129732381Y-99701428D01*
X129684762Y-99606190D01*
X129637143Y-99558571D01*
X129541905Y-99510952D01*
X129446667Y-99510952D01*
X129351429Y-99558571D01*
X129303810Y-99606190D01*
X129256190Y-99701428D01*
X129208571Y-99891905D01*
X129160952Y-99987143D01*
X129113333Y-100034762D01*
X129018095Y-100082381D01*
X128922857Y-100082381D01*
X128827619Y-100034762D01*
X128780000Y-99987143D01*
X128732381Y-99891905D01*
X128732381Y-99653809D01*
X128780000Y-99510952D01*
X129208571Y-99082381D02*
X129208571Y-98749047D01*
X129732381Y-98606190D02*
X129732381Y-99082381D01*
X128732381Y-99082381D01*
X128732381Y-98606190D01*
X155344762Y-104469524D02*
X155392381Y-104326667D01*
X155392381Y-104088571D01*
X155344762Y-103993333D01*
X155297143Y-103945714D01*
X155201905Y-103898095D01*
X155106667Y-103898095D01*
X155011429Y-103945714D01*
X154963810Y-103993333D01*
X154916190Y-104088571D01*
X154868571Y-104279048D01*
X154820952Y-104374286D01*
X154773333Y-104421905D01*
X154678095Y-104469524D01*
X154582857Y-104469524D01*
X154487619Y-104421905D01*
X154440000Y-104374286D01*
X154392381Y-104279048D01*
X154392381Y-104040952D01*
X154440000Y-103898095D01*
X155392381Y-103469524D02*
X154392381Y-103469524D01*
X154392381Y-103088571D01*
X154440000Y-102993333D01*
X154487619Y-102945714D01*
X154582857Y-102898095D01*
X154725714Y-102898095D01*
X154820952Y-102945714D01*
X154868571Y-102993333D01*
X154916190Y-103088571D01*
X154916190Y-103469524D01*
X154868571Y-102469524D02*
X154868571Y-102136190D01*
X155392381Y-101993333D02*
X155392381Y-102469524D01*
X154392381Y-102469524D01*
X154392381Y-101993333D01*
X155106667Y-101612381D02*
X155106667Y-101136190D01*
X155392381Y-101707619D02*
X154392381Y-101374286D01*
X155392381Y-101040952D01*
X155392381Y-100707619D02*
X154392381Y-100707619D01*
X155392381Y-100136190D02*
X154820952Y-100564762D01*
X154392381Y-100136190D02*
X154963810Y-100707619D01*
X154868571Y-99707619D02*
X154868571Y-99374285D01*
X155392381Y-99231428D02*
X155392381Y-99707619D01*
X154392381Y-99707619D01*
X154392381Y-99231428D01*
X155392381Y-98231428D02*
X154916190Y-98564762D01*
X155392381Y-98802857D02*
X154392381Y-98802857D01*
X154392381Y-98421904D01*
X154440000Y-98326666D01*
X154487619Y-98279047D01*
X154582857Y-98231428D01*
X154725714Y-98231428D01*
X154820952Y-98279047D01*
X154868571Y-98326666D01*
X154916190Y-98421904D01*
X154916190Y-98802857D01*
X152852381Y-104421905D02*
X151852381Y-104421905D01*
X152566667Y-104088571D01*
X151852381Y-103755238D01*
X152852381Y-103755238D01*
X151852381Y-103088572D02*
X151852381Y-102898095D01*
X151900000Y-102802857D01*
X151995238Y-102707619D01*
X152185714Y-102660000D01*
X152519048Y-102660000D01*
X152709524Y-102707619D01*
X152804762Y-102802857D01*
X152852381Y-102898095D01*
X152852381Y-103088572D01*
X152804762Y-103183810D01*
X152709524Y-103279048D01*
X152519048Y-103326667D01*
X152185714Y-103326667D01*
X151995238Y-103279048D01*
X151900000Y-103183810D01*
X151852381Y-103088572D01*
X151852381Y-102374286D02*
X151852381Y-101802857D01*
X152852381Y-102088572D02*
X151852381Y-102088572D01*
X151852381Y-101279048D02*
X151852381Y-101088571D01*
X151900000Y-100993333D01*
X151995238Y-100898095D01*
X152185714Y-100850476D01*
X152519048Y-100850476D01*
X152709524Y-100898095D01*
X152804762Y-100993333D01*
X152852381Y-101088571D01*
X152852381Y-101279048D01*
X152804762Y-101374286D01*
X152709524Y-101469524D01*
X152519048Y-101517143D01*
X152185714Y-101517143D01*
X151995238Y-101469524D01*
X151900000Y-101374286D01*
X151852381Y-101279048D01*
X152852381Y-99850476D02*
X152376190Y-100183810D01*
X152852381Y-100421905D02*
X151852381Y-100421905D01*
X151852381Y-100040952D01*
X151900000Y-99945714D01*
X151947619Y-99898095D01*
X152042857Y-99850476D01*
X152185714Y-99850476D01*
X152280952Y-99898095D01*
X152328571Y-99945714D01*
X152376190Y-100040952D01*
X152376190Y-100421905D01*
X149788571Y-104088571D02*
X149836190Y-103945714D01*
X149883810Y-103898095D01*
X149979048Y-103850476D01*
X150121905Y-103850476D01*
X150217143Y-103898095D01*
X150264762Y-103945714D01*
X150312381Y-104040952D01*
X150312381Y-104421905D01*
X149312381Y-104421905D01*
X149312381Y-104088571D01*
X149360000Y-103993333D01*
X149407619Y-103945714D01*
X149502857Y-103898095D01*
X149598095Y-103898095D01*
X149693333Y-103945714D01*
X149740952Y-103993333D01*
X149788571Y-104088571D01*
X149788571Y-104421905D01*
X149312381Y-103421905D02*
X150121905Y-103421905D01*
X150217143Y-103374286D01*
X150264762Y-103326667D01*
X150312381Y-103231429D01*
X150312381Y-103040952D01*
X150264762Y-102945714D01*
X150217143Y-102898095D01*
X150121905Y-102850476D01*
X149312381Y-102850476D01*
X150312381Y-102374286D02*
X149312381Y-102374286D01*
X150026667Y-102040952D01*
X149312381Y-101707619D01*
X150312381Y-101707619D01*
X150312381Y-101231429D02*
X149312381Y-101231429D01*
X149312381Y-100850476D01*
X149360000Y-100755238D01*
X149407619Y-100707619D01*
X149502857Y-100660000D01*
X149645714Y-100660000D01*
X149740952Y-100707619D01*
X149788571Y-100755238D01*
X149836190Y-100850476D01*
X149836190Y-101231429D01*
X150407619Y-100469524D02*
X150407619Y-99707619D01*
X149407619Y-99517143D02*
X149360000Y-99469524D01*
X149312381Y-99374286D01*
X149312381Y-99136190D01*
X149360000Y-99040952D01*
X149407619Y-98993333D01*
X149502857Y-98945714D01*
X149598095Y-98945714D01*
X149740952Y-98993333D01*
X150312381Y-99564762D01*
X150312381Y-98945714D01*
X147248571Y-104088571D02*
X147296190Y-103945714D01*
X147343810Y-103898095D01*
X147439048Y-103850476D01*
X147581905Y-103850476D01*
X147677143Y-103898095D01*
X147724762Y-103945714D01*
X147772381Y-104040952D01*
X147772381Y-104421905D01*
X146772381Y-104421905D01*
X146772381Y-104088571D01*
X146820000Y-103993333D01*
X146867619Y-103945714D01*
X146962857Y-103898095D01*
X147058095Y-103898095D01*
X147153333Y-103945714D01*
X147200952Y-103993333D01*
X147248571Y-104088571D01*
X147248571Y-104421905D01*
X146772381Y-103421905D02*
X147581905Y-103421905D01*
X147677143Y-103374286D01*
X147724762Y-103326667D01*
X147772381Y-103231429D01*
X147772381Y-103040952D01*
X147724762Y-102945714D01*
X147677143Y-102898095D01*
X147581905Y-102850476D01*
X146772381Y-102850476D01*
X147772381Y-102374286D02*
X146772381Y-102374286D01*
X147486667Y-102040952D01*
X146772381Y-101707619D01*
X147772381Y-101707619D01*
X147772381Y-101231429D02*
X146772381Y-101231429D01*
X146772381Y-100850476D01*
X146820000Y-100755238D01*
X146867619Y-100707619D01*
X146962857Y-100660000D01*
X147105714Y-100660000D01*
X147200952Y-100707619D01*
X147248571Y-100755238D01*
X147296190Y-100850476D01*
X147296190Y-101231429D01*
X147867619Y-100469524D02*
X147867619Y-99707619D01*
X147772381Y-98945714D02*
X147772381Y-99517143D01*
X147772381Y-99231429D02*
X146772381Y-99231429D01*
X146915238Y-99326667D01*
X147010476Y-99421905D01*
X147058095Y-99517143D01*
X144708571Y-104088571D02*
X144756190Y-103945714D01*
X144803810Y-103898095D01*
X144899048Y-103850476D01*
X145041905Y-103850476D01*
X145137143Y-103898095D01*
X145184762Y-103945714D01*
X145232381Y-104040952D01*
X145232381Y-104421905D01*
X144232381Y-104421905D01*
X144232381Y-104088571D01*
X144280000Y-103993333D01*
X144327619Y-103945714D01*
X144422857Y-103898095D01*
X144518095Y-103898095D01*
X144613333Y-103945714D01*
X144660952Y-103993333D01*
X144708571Y-104088571D01*
X144708571Y-104421905D01*
X144232381Y-103421905D02*
X145041905Y-103421905D01*
X145137143Y-103374286D01*
X145184762Y-103326667D01*
X145232381Y-103231429D01*
X145232381Y-103040952D01*
X145184762Y-102945714D01*
X145137143Y-102898095D01*
X145041905Y-102850476D01*
X144232381Y-102850476D01*
X145232381Y-102374286D02*
X144232381Y-102374286D01*
X144946667Y-102040952D01*
X144232381Y-101707619D01*
X145232381Y-101707619D01*
X145232381Y-101231429D02*
X144232381Y-101231429D01*
X144232381Y-100850476D01*
X144280000Y-100755238D01*
X144327619Y-100707619D01*
X144422857Y-100660000D01*
X144565714Y-100660000D01*
X144660952Y-100707619D01*
X144708571Y-100755238D01*
X144756190Y-100850476D01*
X144756190Y-101231429D01*
X145327619Y-100469524D02*
X145327619Y-99707619D01*
X144232381Y-99279048D02*
X144232381Y-99183809D01*
X144280000Y-99088571D01*
X144327619Y-99040952D01*
X144422857Y-98993333D01*
X144613333Y-98945714D01*
X144851429Y-98945714D01*
X145041905Y-98993333D01*
X145137143Y-99040952D01*
X145184762Y-99088571D01*
X145232381Y-99183809D01*
X145232381Y-99279048D01*
X145184762Y-99374286D01*
X145137143Y-99421905D01*
X145041905Y-99469524D01*
X144851429Y-99517143D01*
X144613333Y-99517143D01*
X144422857Y-99469524D01*
X144327619Y-99421905D01*
X144280000Y-99374286D01*
X144232381Y-99279048D01*
X142168571Y-104088571D02*
X142216190Y-103945714D01*
X142263810Y-103898095D01*
X142359048Y-103850476D01*
X142501905Y-103850476D01*
X142597143Y-103898095D01*
X142644762Y-103945714D01*
X142692381Y-104040952D01*
X142692381Y-104421905D01*
X141692381Y-104421905D01*
X141692381Y-104088571D01*
X141740000Y-103993333D01*
X141787619Y-103945714D01*
X141882857Y-103898095D01*
X141978095Y-103898095D01*
X142073333Y-103945714D01*
X142120952Y-103993333D01*
X142168571Y-104088571D01*
X142168571Y-104421905D01*
X141692381Y-103421905D02*
X142501905Y-103421905D01*
X142597143Y-103374286D01*
X142644762Y-103326667D01*
X142692381Y-103231429D01*
X142692381Y-103040952D01*
X142644762Y-102945714D01*
X142597143Y-102898095D01*
X142501905Y-102850476D01*
X141692381Y-102850476D01*
X142692381Y-102374286D02*
X141692381Y-102374286D01*
X142406667Y-102040952D01*
X141692381Y-101707619D01*
X142692381Y-101707619D01*
X142692381Y-101231429D02*
X141692381Y-101231429D01*
X141692381Y-100850476D01*
X141740000Y-100755238D01*
X141787619Y-100707619D01*
X141882857Y-100660000D01*
X142025714Y-100660000D01*
X142120952Y-100707619D01*
X142168571Y-100755238D01*
X142216190Y-100850476D01*
X142216190Y-101231429D01*
X142787619Y-100469524D02*
X142787619Y-99707619D01*
X141787619Y-99517143D02*
X141740000Y-99469524D01*
X141692381Y-99374286D01*
X141692381Y-99136190D01*
X141740000Y-99040952D01*
X141787619Y-98993333D01*
X141882857Y-98945714D01*
X141978095Y-98945714D01*
X142120952Y-98993333D01*
X142692381Y-99564762D01*
X142692381Y-98945714D01*
X139628571Y-104088571D02*
X139676190Y-103945714D01*
X139723810Y-103898095D01*
X139819048Y-103850476D01*
X139961905Y-103850476D01*
X140057143Y-103898095D01*
X140104762Y-103945714D01*
X140152381Y-104040952D01*
X140152381Y-104421905D01*
X139152381Y-104421905D01*
X139152381Y-104088571D01*
X139200000Y-103993333D01*
X139247619Y-103945714D01*
X139342857Y-103898095D01*
X139438095Y-103898095D01*
X139533333Y-103945714D01*
X139580952Y-103993333D01*
X139628571Y-104088571D01*
X139628571Y-104421905D01*
X139152381Y-103421905D02*
X139961905Y-103421905D01*
X140057143Y-103374286D01*
X140104762Y-103326667D01*
X140152381Y-103231429D01*
X140152381Y-103040952D01*
X140104762Y-102945714D01*
X140057143Y-102898095D01*
X139961905Y-102850476D01*
X139152381Y-102850476D01*
X140152381Y-102374286D02*
X139152381Y-102374286D01*
X139866667Y-102040952D01*
X139152381Y-101707619D01*
X140152381Y-101707619D01*
X140152381Y-101231429D02*
X139152381Y-101231429D01*
X139152381Y-100850476D01*
X139200000Y-100755238D01*
X139247619Y-100707619D01*
X139342857Y-100660000D01*
X139485714Y-100660000D01*
X139580952Y-100707619D01*
X139628571Y-100755238D01*
X139676190Y-100850476D01*
X139676190Y-101231429D01*
X140247619Y-100469524D02*
X140247619Y-99707619D01*
X140152381Y-98945714D02*
X140152381Y-99517143D01*
X140152381Y-99231429D02*
X139152381Y-99231429D01*
X139295238Y-99326667D01*
X139390476Y-99421905D01*
X139438095Y-99517143D01*
X137088571Y-104088571D02*
X137136190Y-103945714D01*
X137183810Y-103898095D01*
X137279048Y-103850476D01*
X137421905Y-103850476D01*
X137517143Y-103898095D01*
X137564762Y-103945714D01*
X137612381Y-104040952D01*
X137612381Y-104421905D01*
X136612381Y-104421905D01*
X136612381Y-104088571D01*
X136660000Y-103993333D01*
X136707619Y-103945714D01*
X136802857Y-103898095D01*
X136898095Y-103898095D01*
X136993333Y-103945714D01*
X137040952Y-103993333D01*
X137088571Y-104088571D01*
X137088571Y-104421905D01*
X136612381Y-103421905D02*
X137421905Y-103421905D01*
X137517143Y-103374286D01*
X137564762Y-103326667D01*
X137612381Y-103231429D01*
X137612381Y-103040952D01*
X137564762Y-102945714D01*
X137517143Y-102898095D01*
X137421905Y-102850476D01*
X136612381Y-102850476D01*
X137612381Y-102374286D02*
X136612381Y-102374286D01*
X137326667Y-102040952D01*
X136612381Y-101707619D01*
X137612381Y-101707619D01*
X137612381Y-101231429D02*
X136612381Y-101231429D01*
X136612381Y-100850476D01*
X136660000Y-100755238D01*
X136707619Y-100707619D01*
X136802857Y-100660000D01*
X136945714Y-100660000D01*
X137040952Y-100707619D01*
X137088571Y-100755238D01*
X137136190Y-100850476D01*
X137136190Y-101231429D01*
X137707619Y-100469524D02*
X137707619Y-99707619D01*
X136612381Y-99279048D02*
X136612381Y-99183809D01*
X136660000Y-99088571D01*
X136707619Y-99040952D01*
X136802857Y-98993333D01*
X136993333Y-98945714D01*
X137231429Y-98945714D01*
X137421905Y-98993333D01*
X137517143Y-99040952D01*
X137564762Y-99088571D01*
X137612381Y-99183809D01*
X137612381Y-99279048D01*
X137564762Y-99374286D01*
X137517143Y-99421905D01*
X137421905Y-99469524D01*
X137231429Y-99517143D01*
X136993333Y-99517143D01*
X136802857Y-99469524D01*
X136707619Y-99421905D01*
X136660000Y-99374286D01*
X136612381Y-99279048D01*
X134548571Y-104088571D02*
X134548571Y-104421905D01*
X135072381Y-104421905D02*
X134072381Y-104421905D01*
X134072381Y-103945714D01*
X135072381Y-103088571D02*
X135072381Y-103564762D01*
X134072381Y-103564762D01*
X135072381Y-102755238D02*
X134072381Y-102755238D01*
X135072381Y-102279048D02*
X134072381Y-102279048D01*
X134072381Y-101898095D01*
X134120000Y-101802857D01*
X134167619Y-101755238D01*
X134262857Y-101707619D01*
X134405714Y-101707619D01*
X134500952Y-101755238D01*
X134548571Y-101802857D01*
X134596190Y-101898095D01*
X134596190Y-102279048D01*
X135167619Y-101517143D02*
X135167619Y-100755238D01*
X135072381Y-99945714D02*
X134596190Y-100279048D01*
X135072381Y-100517143D02*
X134072381Y-100517143D01*
X134072381Y-100136190D01*
X134120000Y-100040952D01*
X134167619Y-99993333D01*
X134262857Y-99945714D01*
X134405714Y-99945714D01*
X134500952Y-99993333D01*
X134548571Y-100040952D01*
X134596190Y-100136190D01*
X134596190Y-100517143D01*
X132008571Y-104088571D02*
X132008571Y-104421905D01*
X132532381Y-104421905D02*
X131532381Y-104421905D01*
X131532381Y-103945714D01*
X132532381Y-103088571D02*
X132532381Y-103564762D01*
X131532381Y-103564762D01*
X132532381Y-102755238D02*
X131532381Y-102755238D01*
X132532381Y-102279048D02*
X131532381Y-102279048D01*
X131532381Y-101898095D01*
X131580000Y-101802857D01*
X131627619Y-101755238D01*
X131722857Y-101707619D01*
X131865714Y-101707619D01*
X131960952Y-101755238D01*
X132008571Y-101802857D01*
X132056190Y-101898095D01*
X132056190Y-102279048D01*
X132627619Y-101517143D02*
X132627619Y-100755238D01*
X132532381Y-100040952D02*
X132532381Y-100517143D01*
X131532381Y-100517143D01*
X127192381Y-101320476D02*
X126716190Y-101653810D01*
X127192381Y-101891905D02*
X126192381Y-101891905D01*
X126192381Y-101510952D01*
X126240000Y-101415714D01*
X126287619Y-101368095D01*
X126382857Y-101320476D01*
X126525714Y-101320476D01*
X126620952Y-101368095D01*
X126668571Y-101415714D01*
X126716190Y-101510952D01*
X126716190Y-101891905D01*
X126906667Y-100939524D02*
X126906667Y-100463333D01*
X127192381Y-101034762D02*
X126192381Y-100701429D01*
X127192381Y-100368095D01*
X127192381Y-100034762D02*
X126192381Y-100034762D01*
X126906667Y-99701428D01*
X126192381Y-99368095D01*
X127192381Y-99368095D01*
X127192381Y-98891905D02*
X126192381Y-98891905D01*
X126192381Y-98510952D01*
X126240000Y-98415714D01*
X126287619Y-98368095D01*
X126382857Y-98320476D01*
X126525714Y-98320476D01*
X126620952Y-98368095D01*
X126668571Y-98415714D01*
X126716190Y-98510952D01*
X126716190Y-98891905D01*
D14*
X164750000Y-108260000D02*
G75*
G03X164750000Y-108260000I-3150000J0D01*
G01*
X164750000Y-101130000D02*
G75*
G03X164750000Y-101130000I-3150000J0D01*
G01*
D15*
X132130000Y-85106000D02*
G75*
G03X132130000Y-85106000I-50000J0D01*
G01*
D14*
X120870000Y-75150000D02*
X161070000Y-75150000D01*
X161070000Y-75150000D02*
X161070000Y-87950000D01*
X161070000Y-87950000D02*
X120870000Y-87950000D01*
X120870000Y-87950000D02*
X120870000Y-75150000D01*
X156210000Y-110490000D02*
X130810000Y-110490000D01*
X130810000Y-105410000D02*
X156210000Y-105410000D01*
X156210000Y-110490000D02*
X156210000Y-105410000D01*
X130810000Y-105410000D02*
X130810000Y-110490000D01*
X128010000Y-102880000D02*
X125470000Y-102880000D01*
X125470000Y-102880000D02*
X125470000Y-110500000D01*
X125470000Y-110500000D02*
X128010000Y-110500000D01*
X128010000Y-110500000D02*
X128010000Y-102880000D01*
X130540000Y-102880000D02*
X128000000Y-102880000D01*
X128000000Y-102880000D02*
X128000000Y-110500000D01*
X128000000Y-110500000D02*
X130540000Y-110500000D01*
X130540000Y-110500000D02*
X130540000Y-102880000D01*
X120890000Y-98800000D02*
X120890000Y-99000000D01*
X120890000Y-99000000D02*
X119690000Y-99000000D01*
X120890000Y-91700000D02*
X120890000Y-91500000D01*
X120890000Y-91500000D02*
X119690000Y-91500000D01*
X165100000Y-82550000D02*
X165100000Y-87630000D01*
X165100000Y-87630000D02*
X162560000Y-87630000D01*
X162560000Y-87630000D02*
X162560000Y-82550000D01*
X162560000Y-82550000D02*
X165100000Y-82550000D01*
X123760000Y-104440000D02*
X118560000Y-104440000D01*
X123760000Y-110440000D02*
X118560000Y-110440000D01*
X118160000Y-108640000D02*
X118160000Y-106240000D01*
X124160000Y-108640000D02*
X124160000Y-106240000D01*
D16*
G36*
X153668787Y-89529196D02*
X153838378Y-89537230D01*
X153982996Y-89551850D01*
X154080875Y-89571376D01*
X154176970Y-89605514D01*
X154233985Y-89644861D01*
X154270767Y-89703430D01*
X154276619Y-89716917D01*
X154308050Y-89841017D01*
X154316818Y-89989845D01*
X154302355Y-90133863D01*
X154285843Y-90195965D01*
X154255604Y-90258494D01*
X154208818Y-90306411D01*
X154137413Y-90342412D01*
X154033315Y-90369191D01*
X153888452Y-90389446D01*
X153694748Y-90405870D01*
X153647641Y-90409050D01*
X153449163Y-90424360D01*
X153302202Y-90442206D01*
X153199685Y-90464940D01*
X153134536Y-90494912D01*
X153099681Y-90534473D01*
X153088046Y-90585973D01*
X153087866Y-90595041D01*
X153087866Y-90667024D01*
X153710415Y-90674931D01*
X154332964Y-90682837D01*
X154342057Y-90792699D01*
X154351149Y-90902561D01*
X152818368Y-90902561D01*
X152828608Y-90641215D01*
X152836469Y-90506516D01*
X152852935Y-90403227D01*
X152885193Y-90326473D01*
X152940432Y-90271379D01*
X153025839Y-90233072D01*
X153148604Y-90206676D01*
X153315914Y-90187316D01*
X153521934Y-90171055D01*
X153710560Y-90154064D01*
X153847714Y-90132466D01*
X153940489Y-90103449D01*
X153995977Y-90064202D01*
X154021272Y-90011915D01*
X154024903Y-89971724D01*
X154011607Y-89881146D01*
X153964541Y-89824821D01*
X153877003Y-89788761D01*
X153781727Y-89771864D01*
X153654354Y-89762740D01*
X153514893Y-89761315D01*
X153383353Y-89767514D01*
X153279743Y-89781263D01*
X153244176Y-89791129D01*
X153160627Y-89837353D01*
X153123155Y-89902748D01*
X153117611Y-89957751D01*
X153110535Y-89998618D01*
X153079714Y-90017971D01*
X153009658Y-90023529D01*
X152985329Y-90023668D01*
X152853495Y-90023668D01*
X152853540Y-89913806D01*
X152875752Y-89766495D01*
X152939024Y-89651925D01*
X153038509Y-89577791D01*
X153073218Y-89565020D01*
X153176437Y-89545660D01*
X153321189Y-89533306D01*
X153490848Y-89527853D01*
X153668787Y-89529196D01*
X153668787Y-89529196D01*
G37*
X153668787Y-89529196D02*
X153838378Y-89537230D01*
X153982996Y-89551850D01*
X154080875Y-89571376D01*
X154176970Y-89605514D01*
X154233985Y-89644861D01*
X154270767Y-89703430D01*
X154276619Y-89716917D01*
X154308050Y-89841017D01*
X154316818Y-89989845D01*
X154302355Y-90133863D01*
X154285843Y-90195965D01*
X154255604Y-90258494D01*
X154208818Y-90306411D01*
X154137413Y-90342412D01*
X154033315Y-90369191D01*
X153888452Y-90389446D01*
X153694748Y-90405870D01*
X153647641Y-90409050D01*
X153449163Y-90424360D01*
X153302202Y-90442206D01*
X153199685Y-90464940D01*
X153134536Y-90494912D01*
X153099681Y-90534473D01*
X153088046Y-90585973D01*
X153087866Y-90595041D01*
X153087866Y-90667024D01*
X153710415Y-90674931D01*
X154332964Y-90682837D01*
X154342057Y-90792699D01*
X154351149Y-90902561D01*
X152818368Y-90902561D01*
X152828608Y-90641215D01*
X152836469Y-90506516D01*
X152852935Y-90403227D01*
X152885193Y-90326473D01*
X152940432Y-90271379D01*
X153025839Y-90233072D01*
X153148604Y-90206676D01*
X153315914Y-90187316D01*
X153521934Y-90171055D01*
X153710560Y-90154064D01*
X153847714Y-90132466D01*
X153940489Y-90103449D01*
X153995977Y-90064202D01*
X154021272Y-90011915D01*
X154024903Y-89971724D01*
X154011607Y-89881146D01*
X153964541Y-89824821D01*
X153877003Y-89788761D01*
X153781727Y-89771864D01*
X153654354Y-89762740D01*
X153514893Y-89761315D01*
X153383353Y-89767514D01*
X153279743Y-89781263D01*
X153244176Y-89791129D01*
X153160627Y-89837353D01*
X153123155Y-89902748D01*
X153117611Y-89957751D01*
X153110535Y-89998618D01*
X153079714Y-90017971D01*
X153009658Y-90023529D01*
X152985329Y-90023668D01*
X152853495Y-90023668D01*
X152853540Y-89913806D01*
X152875752Y-89766495D01*
X152939024Y-89651925D01*
X153038509Y-89577791D01*
X153073218Y-89565020D01*
X153176437Y-89545660D01*
X153321189Y-89533306D01*
X153490848Y-89527853D01*
X153668787Y-89529196D01*
G36*
X135542345Y-88628346D02*
X135747562Y-88645494D01*
X135909459Y-88673731D01*
X136032854Y-88713501D01*
X136057464Y-88724905D01*
X136164017Y-88793129D01*
X136234221Y-88880064D01*
X136275525Y-88998848D01*
X136294023Y-89142096D01*
X136308888Y-89349850D01*
X136099876Y-89349850D01*
X135991450Y-89348768D01*
X135928973Y-89342644D01*
X135899807Y-89327166D01*
X135891312Y-89298020D01*
X135890865Y-89278516D01*
X135884678Y-89188970D01*
X135861932Y-89119255D01*
X135816352Y-89066989D01*
X135741663Y-89029791D01*
X135631591Y-89005278D01*
X135479858Y-88991067D01*
X135280191Y-88984778D01*
X135114510Y-88983810D01*
X134902689Y-88985092D01*
X134740573Y-88990115D01*
X134619301Y-89000869D01*
X134530010Y-89019344D01*
X134463839Y-89047529D01*
X134411927Y-89087413D01*
X134365411Y-89140988D01*
X134355437Y-89154248D01*
X134331487Y-89191423D01*
X134314706Y-89234493D01*
X134303840Y-89294055D01*
X134297638Y-89380705D01*
X134294846Y-89505040D01*
X134294210Y-89672111D01*
X134294888Y-89843243D01*
X134297759Y-89966387D01*
X134304074Y-90052140D01*
X134315087Y-90111100D01*
X134332051Y-90153863D01*
X134355437Y-90189974D01*
X134401947Y-90246696D01*
X134451980Y-90289307D01*
X134514400Y-90319799D01*
X134598067Y-90340159D01*
X134711844Y-90352379D01*
X134864592Y-90358447D01*
X135065172Y-90360354D01*
X135114510Y-90360412D01*
X135343162Y-90358768D01*
X135520431Y-90352649D01*
X135653453Y-90340518D01*
X135749365Y-90320836D01*
X135815301Y-90292065D01*
X135858398Y-90252668D01*
X135885793Y-90201105D01*
X135888521Y-90193576D01*
X135911377Y-90106646D01*
X135920161Y-90033944D01*
X135923750Y-89997935D01*
X135943009Y-89977322D01*
X135990673Y-89967829D01*
X136079479Y-89965178D01*
X136125236Y-89965075D01*
X136330311Y-89965075D01*
X136330311Y-90104426D01*
X136310819Y-90298218D01*
X136250947Y-90450830D01*
X136148600Y-90565435D01*
X136001686Y-90645207D01*
X135965289Y-90657732D01*
X135872431Y-90676917D01*
X135733017Y-90692793D01*
X135559001Y-90705151D01*
X135362339Y-90713785D01*
X135154986Y-90718485D01*
X134948895Y-90719045D01*
X134756023Y-90715255D01*
X134588323Y-90706910D01*
X134457750Y-90693800D01*
X134407545Y-90684816D01*
X134230722Y-90634899D01*
X134101399Y-90574344D01*
X134008713Y-90497724D01*
X133990852Y-90476517D01*
X133944115Y-90409105D01*
X133909178Y-90335717D01*
X133884428Y-90246828D01*
X133868254Y-90132912D01*
X133859045Y-89984443D01*
X133855188Y-89791897D01*
X133854764Y-89672111D01*
X133855746Y-89474960D01*
X133859263Y-89325926D01*
X133866173Y-89214558D01*
X133877331Y-89130405D01*
X133893596Y-89063014D01*
X133908137Y-89021098D01*
X133959557Y-88913056D01*
X134025906Y-88826498D01*
X134113756Y-88759006D01*
X134229676Y-88708162D01*
X134380238Y-88671546D01*
X134572013Y-88646740D01*
X134811570Y-88631325D01*
X134982676Y-88625533D01*
X135288989Y-88621841D01*
X135542345Y-88628346D01*
X135542345Y-88628346D01*
G37*
X135542345Y-88628346D02*
X135747562Y-88645494D01*
X135909459Y-88673731D01*
X136032854Y-88713501D01*
X136057464Y-88724905D01*
X136164017Y-88793129D01*
X136234221Y-88880064D01*
X136275525Y-88998848D01*
X136294023Y-89142096D01*
X136308888Y-89349850D01*
X136099876Y-89349850D01*
X135991450Y-89348768D01*
X135928973Y-89342644D01*
X135899807Y-89327166D01*
X135891312Y-89298020D01*
X135890865Y-89278516D01*
X135884678Y-89188970D01*
X135861932Y-89119255D01*
X135816352Y-89066989D01*
X135741663Y-89029791D01*
X135631591Y-89005278D01*
X135479858Y-88991067D01*
X135280191Y-88984778D01*
X135114510Y-88983810D01*
X134902689Y-88985092D01*
X134740573Y-88990115D01*
X134619301Y-89000869D01*
X134530010Y-89019344D01*
X134463839Y-89047529D01*
X134411927Y-89087413D01*
X134365411Y-89140988D01*
X134355437Y-89154248D01*
X134331487Y-89191423D01*
X134314706Y-89234493D01*
X134303840Y-89294055D01*
X134297638Y-89380705D01*
X134294846Y-89505040D01*
X134294210Y-89672111D01*
X134294888Y-89843243D01*
X134297759Y-89966387D01*
X134304074Y-90052140D01*
X134315087Y-90111100D01*
X134332051Y-90153863D01*
X134355437Y-90189974D01*
X134401947Y-90246696D01*
X134451980Y-90289307D01*
X134514400Y-90319799D01*
X134598067Y-90340159D01*
X134711844Y-90352379D01*
X134864592Y-90358447D01*
X135065172Y-90360354D01*
X135114510Y-90360412D01*
X135343162Y-90358768D01*
X135520431Y-90352649D01*
X135653453Y-90340518D01*
X135749365Y-90320836D01*
X135815301Y-90292065D01*
X135858398Y-90252668D01*
X135885793Y-90201105D01*
X135888521Y-90193576D01*
X135911377Y-90106646D01*
X135920161Y-90033944D01*
X135923750Y-89997935D01*
X135943009Y-89977322D01*
X135990673Y-89967829D01*
X136079479Y-89965178D01*
X136125236Y-89965075D01*
X136330311Y-89965075D01*
X136330311Y-90104426D01*
X136310819Y-90298218D01*
X136250947Y-90450830D01*
X136148600Y-90565435D01*
X136001686Y-90645207D01*
X135965289Y-90657732D01*
X135872431Y-90676917D01*
X135733017Y-90692793D01*
X135559001Y-90705151D01*
X135362339Y-90713785D01*
X135154986Y-90718485D01*
X134948895Y-90719045D01*
X134756023Y-90715255D01*
X134588323Y-90706910D01*
X134457750Y-90693800D01*
X134407545Y-90684816D01*
X134230722Y-90634899D01*
X134101399Y-90574344D01*
X134008713Y-90497724D01*
X133990852Y-90476517D01*
X133944115Y-90409105D01*
X133909178Y-90335717D01*
X133884428Y-90246828D01*
X133868254Y-90132912D01*
X133859045Y-89984443D01*
X133855188Y-89791897D01*
X133854764Y-89672111D01*
X133855746Y-89474960D01*
X133859263Y-89325926D01*
X133866173Y-89214558D01*
X133877331Y-89130405D01*
X133893596Y-89063014D01*
X133908137Y-89021098D01*
X133959557Y-88913056D01*
X134025906Y-88826498D01*
X134113756Y-88759006D01*
X134229676Y-88708162D01*
X134380238Y-88671546D01*
X134572013Y-88646740D01*
X134811570Y-88631325D01*
X134982676Y-88625533D01*
X135288989Y-88621841D01*
X135542345Y-88628346D01*
G36*
X141079480Y-88632368D02*
X141310669Y-88656736D01*
X141485468Y-88694885D01*
X141572889Y-88729158D01*
X141675406Y-88811474D01*
X141753881Y-88934357D01*
X141800017Y-89081935D01*
X141808743Y-89180279D01*
X141808743Y-89320554D01*
X141380550Y-89320554D01*
X141352951Y-89196044D01*
X141334142Y-89128804D01*
X141306430Y-89077391D01*
X141262446Y-89039707D01*
X141194819Y-89013650D01*
X141096179Y-88997120D01*
X140959157Y-88988018D01*
X140776381Y-88984243D01*
X140607589Y-88983645D01*
X140393417Y-88984780D01*
X140229086Y-88989468D01*
X140105869Y-88999634D01*
X140015039Y-89017202D01*
X139947866Y-89044096D01*
X139895622Y-89082242D01*
X139849581Y-89133564D01*
X139833869Y-89154248D01*
X139809820Y-89191608D01*
X139793003Y-89234909D01*
X139782147Y-89294813D01*
X139775982Y-89381983D01*
X139773237Y-89507083D01*
X139772641Y-89668223D01*
X139774545Y-89861396D01*
X139782233Y-90005598D01*
X139798671Y-90110380D01*
X139826826Y-90185296D01*
X139869663Y-90239900D01*
X139930148Y-90283743D01*
X139970668Y-90306036D01*
X140043707Y-90328130D01*
X140162172Y-90346417D01*
X140312991Y-90360396D01*
X140483090Y-90369566D01*
X140659397Y-90373426D01*
X140828838Y-90371474D01*
X140978341Y-90363208D01*
X141090423Y-90348972D01*
X141226774Y-90313109D01*
X141315378Y-90260132D01*
X141366664Y-90179877D01*
X141391063Y-90062182D01*
X141391738Y-90055409D01*
X141406048Y-89906482D01*
X140461107Y-89906482D01*
X140461107Y-89584222D01*
X141844064Y-89584222D01*
X141833696Y-89943103D01*
X141827205Y-90107200D01*
X141817444Y-90225998D01*
X141802415Y-90312775D01*
X141780118Y-90380813D01*
X141762079Y-90418814D01*
X141671144Y-90532834D01*
X141531700Y-90618963D01*
X141342061Y-90678095D01*
X141237462Y-90696481D01*
X141118216Y-90708056D01*
X140957694Y-90716137D01*
X140770270Y-90720756D01*
X140570315Y-90721942D01*
X140372203Y-90719725D01*
X140190305Y-90714136D01*
X140038994Y-90705204D01*
X139937309Y-90693757D01*
X139760911Y-90653818D01*
X139618958Y-90594999D01*
X139508513Y-90511833D01*
X139426639Y-90398850D01*
X139370397Y-90250581D01*
X139336852Y-90061558D01*
X139323064Y-89826313D01*
X139325595Y-89554925D01*
X139336004Y-89336703D01*
X139353512Y-89167547D01*
X139380657Y-89038108D01*
X139419976Y-88939036D01*
X139474008Y-88860983D01*
X139528236Y-88808480D01*
X139605919Y-88753344D01*
X139697685Y-88710421D01*
X139811938Y-88678039D01*
X139957085Y-88654522D01*
X140141534Y-88638197D01*
X140373691Y-88627391D01*
X140449281Y-88625101D01*
X140792238Y-88621813D01*
X141079480Y-88632368D01*
X141079480Y-88632368D01*
G37*
X141079480Y-88632368D02*
X141310669Y-88656736D01*
X141485468Y-88694885D01*
X141572889Y-88729158D01*
X141675406Y-88811474D01*
X141753881Y-88934357D01*
X141800017Y-89081935D01*
X141808743Y-89180279D01*
X141808743Y-89320554D01*
X141380550Y-89320554D01*
X141352951Y-89196044D01*
X141334142Y-89128804D01*
X141306430Y-89077391D01*
X141262446Y-89039707D01*
X141194819Y-89013650D01*
X141096179Y-88997120D01*
X140959157Y-88988018D01*
X140776381Y-88984243D01*
X140607589Y-88983645D01*
X140393417Y-88984780D01*
X140229086Y-88989468D01*
X140105869Y-88999634D01*
X140015039Y-89017202D01*
X139947866Y-89044096D01*
X139895622Y-89082242D01*
X139849581Y-89133564D01*
X139833869Y-89154248D01*
X139809820Y-89191608D01*
X139793003Y-89234909D01*
X139782147Y-89294813D01*
X139775982Y-89381983D01*
X139773237Y-89507083D01*
X139772641Y-89668223D01*
X139774545Y-89861396D01*
X139782233Y-90005598D01*
X139798671Y-90110380D01*
X139826826Y-90185296D01*
X139869663Y-90239900D01*
X139930148Y-90283743D01*
X139970668Y-90306036D01*
X140043707Y-90328130D01*
X140162172Y-90346417D01*
X140312991Y-90360396D01*
X140483090Y-90369566D01*
X140659397Y-90373426D01*
X140828838Y-90371474D01*
X140978341Y-90363208D01*
X141090423Y-90348972D01*
X141226774Y-90313109D01*
X141315378Y-90260132D01*
X141366664Y-90179877D01*
X141391063Y-90062182D01*
X141391738Y-90055409D01*
X141406048Y-89906482D01*
X140461107Y-89906482D01*
X140461107Y-89584222D01*
X141844064Y-89584222D01*
X141833696Y-89943103D01*
X141827205Y-90107200D01*
X141817444Y-90225998D01*
X141802415Y-90312775D01*
X141780118Y-90380813D01*
X141762079Y-90418814D01*
X141671144Y-90532834D01*
X141531700Y-90618963D01*
X141342061Y-90678095D01*
X141237462Y-90696481D01*
X141118216Y-90708056D01*
X140957694Y-90716137D01*
X140770270Y-90720756D01*
X140570315Y-90721942D01*
X140372203Y-90719725D01*
X140190305Y-90714136D01*
X140038994Y-90705204D01*
X139937309Y-90693757D01*
X139760911Y-90653818D01*
X139618958Y-90594999D01*
X139508513Y-90511833D01*
X139426639Y-90398850D01*
X139370397Y-90250581D01*
X139336852Y-90061558D01*
X139323064Y-89826313D01*
X139325595Y-89554925D01*
X139336004Y-89336703D01*
X139353512Y-89167547D01*
X139380657Y-89038108D01*
X139419976Y-88939036D01*
X139474008Y-88860983D01*
X139528236Y-88808480D01*
X139605919Y-88753344D01*
X139697685Y-88710421D01*
X139811938Y-88678039D01*
X139957085Y-88654522D01*
X140141534Y-88638197D01*
X140373691Y-88627391D01*
X140449281Y-88625101D01*
X140792238Y-88621813D01*
X141079480Y-88632368D01*
G36*
X148546920Y-88654033D02*
X148814680Y-88664557D01*
X149029754Y-88682226D01*
X149197879Y-88709708D01*
X149324791Y-88749676D01*
X149416226Y-88804798D01*
X149477920Y-88877746D01*
X149515610Y-88971190D01*
X149535032Y-89087800D01*
X149537298Y-89115085D01*
X149550041Y-89291257D01*
X149326797Y-89291257D01*
X149213900Y-89290292D01*
X149147363Y-89284838D01*
X149114952Y-89271062D01*
X149104439Y-89245129D01*
X149103552Y-89221262D01*
X149076232Y-89124321D01*
X149000533Y-89046719D01*
X148885846Y-88998019D01*
X148883829Y-88997546D01*
X148794898Y-88985110D01*
X148663636Y-88976723D01*
X148506165Y-88972400D01*
X148338607Y-88972156D01*
X148177085Y-88976006D01*
X148037722Y-88983967D01*
X147936639Y-88996051D01*
X147933432Y-88996657D01*
X147819932Y-89033861D01*
X147754212Y-89097793D01*
X147728010Y-89198078D01*
X147726620Y-89237588D01*
X147729820Y-89298507D01*
X147743697Y-89346448D01*
X147774673Y-89383277D01*
X147829169Y-89410858D01*
X147913603Y-89431055D01*
X148034396Y-89445734D01*
X148197968Y-89456760D01*
X148410740Y-89465996D01*
X148527416Y-89470175D01*
X148724111Y-89478317D01*
X148907635Y-89488405D01*
X149067578Y-89499673D01*
X149193535Y-89511353D01*
X149275095Y-89522677D01*
X149291671Y-89526544D01*
X149418421Y-89582505D01*
X149509886Y-89668351D01*
X149568529Y-89789606D01*
X149596816Y-89951793D01*
X149597212Y-90160436D01*
X149594403Y-90204880D01*
X149568121Y-90372616D01*
X149512129Y-90499022D01*
X149419812Y-90590510D01*
X149284553Y-90653491D01*
X149099736Y-90694378D01*
X149087406Y-90696199D01*
X148971142Y-90707485D01*
X148810759Y-90715508D01*
X148620640Y-90720287D01*
X148415168Y-90721840D01*
X148208725Y-90720183D01*
X148015693Y-90715335D01*
X147850456Y-90707313D01*
X147727395Y-90696135D01*
X147715717Y-90694520D01*
X147532948Y-90649792D01*
X147398939Y-90574325D01*
X147310795Y-90465034D01*
X147265622Y-90318833D01*
X147257923Y-90206771D01*
X147257878Y-90052964D01*
X147697324Y-90052964D01*
X147697324Y-90137608D01*
X147723952Y-90245297D01*
X147800030Y-90327030D01*
X147917047Y-90375972D01*
X148002850Y-90387856D01*
X148131844Y-90396108D01*
X148288740Y-90400717D01*
X148458251Y-90401671D01*
X148625085Y-90398958D01*
X148773955Y-90392568D01*
X148889571Y-90382488D01*
X148926711Y-90376738D01*
X149052968Y-90330872D01*
X149131363Y-90251328D01*
X149161733Y-90138283D01*
X149162145Y-90121034D01*
X149158437Y-90038873D01*
X149143060Y-89974257D01*
X149109638Y-89924777D01*
X149051796Y-89888028D01*
X148963158Y-89861603D01*
X148837346Y-89843095D01*
X148667985Y-89830097D01*
X148448698Y-89820204D01*
X148356494Y-89816944D01*
X148162618Y-89808872D01*
X147979799Y-89798484D01*
X147819383Y-89786641D01*
X147692712Y-89774201D01*
X147611131Y-89762022D01*
X147601702Y-89759818D01*
X147459773Y-89696483D01*
X147357495Y-89593703D01*
X147300999Y-89457780D01*
X147299238Y-89448916D01*
X147288513Y-89337561D01*
X147290453Y-89205039D01*
X147303144Y-89070693D01*
X147324674Y-88953863D01*
X147353127Y-88873890D01*
X147356713Y-88867998D01*
X147420649Y-88797750D01*
X147513616Y-88742244D01*
X147640501Y-88700602D01*
X147806194Y-88671944D01*
X148015581Y-88655393D01*
X148273552Y-88650069D01*
X148546920Y-88654033D01*
X148546920Y-88654033D01*
G37*
X148546920Y-88654033D02*
X148814680Y-88664557D01*
X149029754Y-88682226D01*
X149197879Y-88709708D01*
X149324791Y-88749676D01*
X149416226Y-88804798D01*
X149477920Y-88877746D01*
X149515610Y-88971190D01*
X149535032Y-89087800D01*
X149537298Y-89115085D01*
X149550041Y-89291257D01*
X149326797Y-89291257D01*
X149213900Y-89290292D01*
X149147363Y-89284838D01*
X149114952Y-89271062D01*
X149104439Y-89245129D01*
X149103552Y-89221262D01*
X149076232Y-89124321D01*
X149000533Y-89046719D01*
X148885846Y-88998019D01*
X148883829Y-88997546D01*
X148794898Y-88985110D01*
X148663636Y-88976723D01*
X148506165Y-88972400D01*
X148338607Y-88972156D01*
X148177085Y-88976006D01*
X148037722Y-88983967D01*
X147936639Y-88996051D01*
X147933432Y-88996657D01*
X147819932Y-89033861D01*
X147754212Y-89097793D01*
X147728010Y-89198078D01*
X147726620Y-89237588D01*
X147729820Y-89298507D01*
X147743697Y-89346448D01*
X147774673Y-89383277D01*
X147829169Y-89410858D01*
X147913603Y-89431055D01*
X148034396Y-89445734D01*
X148197968Y-89456760D01*
X148410740Y-89465996D01*
X148527416Y-89470175D01*
X148724111Y-89478317D01*
X148907635Y-89488405D01*
X149067578Y-89499673D01*
X149193535Y-89511353D01*
X149275095Y-89522677D01*
X149291671Y-89526544D01*
X149418421Y-89582505D01*
X149509886Y-89668351D01*
X149568529Y-89789606D01*
X149596816Y-89951793D01*
X149597212Y-90160436D01*
X149594403Y-90204880D01*
X149568121Y-90372616D01*
X149512129Y-90499022D01*
X149419812Y-90590510D01*
X149284553Y-90653491D01*
X149099736Y-90694378D01*
X149087406Y-90696199D01*
X148971142Y-90707485D01*
X148810759Y-90715508D01*
X148620640Y-90720287D01*
X148415168Y-90721840D01*
X148208725Y-90720183D01*
X148015693Y-90715335D01*
X147850456Y-90707313D01*
X147727395Y-90696135D01*
X147715717Y-90694520D01*
X147532948Y-90649792D01*
X147398939Y-90574325D01*
X147310795Y-90465034D01*
X147265622Y-90318833D01*
X147257923Y-90206771D01*
X147257878Y-90052964D01*
X147697324Y-90052964D01*
X147697324Y-90137608D01*
X147723952Y-90245297D01*
X147800030Y-90327030D01*
X147917047Y-90375972D01*
X148002850Y-90387856D01*
X148131844Y-90396108D01*
X148288740Y-90400717D01*
X148458251Y-90401671D01*
X148625085Y-90398958D01*
X148773955Y-90392568D01*
X148889571Y-90382488D01*
X148926711Y-90376738D01*
X149052968Y-90330872D01*
X149131363Y-90251328D01*
X149161733Y-90138283D01*
X149162145Y-90121034D01*
X149158437Y-90038873D01*
X149143060Y-89974257D01*
X149109638Y-89924777D01*
X149051796Y-89888028D01*
X148963158Y-89861603D01*
X148837346Y-89843095D01*
X148667985Y-89830097D01*
X148448698Y-89820204D01*
X148356494Y-89816944D01*
X148162618Y-89808872D01*
X147979799Y-89798484D01*
X147819383Y-89786641D01*
X147692712Y-89774201D01*
X147611131Y-89762022D01*
X147601702Y-89759818D01*
X147459773Y-89696483D01*
X147357495Y-89593703D01*
X147300999Y-89457780D01*
X147299238Y-89448916D01*
X147288513Y-89337561D01*
X147290453Y-89205039D01*
X147303144Y-89070693D01*
X147324674Y-88953863D01*
X147353127Y-88873890D01*
X147356713Y-88867998D01*
X147420649Y-88797750D01*
X147513616Y-88742244D01*
X147640501Y-88700602D01*
X147806194Y-88671944D01*
X148015581Y-88655393D01*
X148273552Y-88650069D01*
X148546920Y-88654033D01*
G36*
X151330081Y-88654033D02*
X151597840Y-88664557D01*
X151812915Y-88682226D01*
X151981039Y-88709708D01*
X152107951Y-88749676D01*
X152199386Y-88804798D01*
X152261081Y-88877746D01*
X152298771Y-88971190D01*
X152318192Y-89087800D01*
X152320458Y-89115085D01*
X152333201Y-89291257D01*
X152109957Y-89291257D01*
X151997061Y-89290292D01*
X151930523Y-89284838D01*
X151898113Y-89271062D01*
X151887599Y-89245129D01*
X151886713Y-89221262D01*
X151859392Y-89124321D01*
X151783693Y-89046719D01*
X151669007Y-88998019D01*
X151666990Y-88997546D01*
X151578059Y-88985110D01*
X151446796Y-88976723D01*
X151289325Y-88972400D01*
X151121768Y-88972156D01*
X150960246Y-88976006D01*
X150820882Y-88983967D01*
X150719800Y-88996051D01*
X150716592Y-88996657D01*
X150603092Y-89033861D01*
X150537372Y-89097793D01*
X150511171Y-89198078D01*
X150509781Y-89237588D01*
X150512980Y-89298507D01*
X150526858Y-89346448D01*
X150557834Y-89383277D01*
X150612329Y-89410858D01*
X150696763Y-89431055D01*
X150817556Y-89445734D01*
X150981129Y-89456760D01*
X151193901Y-89465996D01*
X151310577Y-89470175D01*
X151507271Y-89478317D01*
X151690795Y-89488405D01*
X151850739Y-89499673D01*
X151976695Y-89511353D01*
X152058256Y-89522677D01*
X152074831Y-89526544D01*
X152201581Y-89582505D01*
X152293046Y-89668351D01*
X152351689Y-89789606D01*
X152379977Y-89951793D01*
X152380373Y-90160436D01*
X152377563Y-90204880D01*
X152351281Y-90372616D01*
X152295289Y-90499022D01*
X152202972Y-90590510D01*
X152067713Y-90653491D01*
X151882896Y-90694378D01*
X151870567Y-90696199D01*
X151754302Y-90707485D01*
X151593919Y-90715508D01*
X151403800Y-90720287D01*
X151198328Y-90721840D01*
X150991885Y-90720183D01*
X150798853Y-90715335D01*
X150633616Y-90707313D01*
X150510555Y-90696135D01*
X150498878Y-90694520D01*
X150316108Y-90649792D01*
X150182099Y-90574325D01*
X150093956Y-90465034D01*
X150048783Y-90318833D01*
X150041084Y-90206771D01*
X150041038Y-90052964D01*
X150480484Y-90052964D01*
X150480484Y-90137608D01*
X150507112Y-90245297D01*
X150583190Y-90327030D01*
X150700208Y-90375972D01*
X150786010Y-90387856D01*
X150915004Y-90396108D01*
X151071901Y-90400717D01*
X151241411Y-90401671D01*
X151408246Y-90398958D01*
X151557115Y-90392568D01*
X151672731Y-90382488D01*
X151709871Y-90376738D01*
X151836128Y-90330872D01*
X151914524Y-90251328D01*
X151944894Y-90138283D01*
X151945306Y-90121034D01*
X151941597Y-90038873D01*
X151926220Y-89974257D01*
X151892799Y-89924777D01*
X151834957Y-89888028D01*
X151746318Y-89861603D01*
X151620506Y-89843095D01*
X151451145Y-89830097D01*
X151231859Y-89820204D01*
X151139654Y-89816944D01*
X150945778Y-89808872D01*
X150762960Y-89798484D01*
X150602543Y-89786641D01*
X150475873Y-89774201D01*
X150394291Y-89762022D01*
X150384862Y-89759818D01*
X150242934Y-89696483D01*
X150140656Y-89593703D01*
X150084160Y-89457780D01*
X150082399Y-89448916D01*
X150071673Y-89337561D01*
X150073613Y-89205039D01*
X150086305Y-89070693D01*
X150107834Y-88953863D01*
X150136288Y-88873890D01*
X150139873Y-88867998D01*
X150203809Y-88797750D01*
X150296776Y-88742244D01*
X150423662Y-88700602D01*
X150589354Y-88671944D01*
X150798742Y-88655393D01*
X151056712Y-88650069D01*
X151330081Y-88654033D01*
X151330081Y-88654033D01*
G37*
X151330081Y-88654033D02*
X151597840Y-88664557D01*
X151812915Y-88682226D01*
X151981039Y-88709708D01*
X152107951Y-88749676D01*
X152199386Y-88804798D01*
X152261081Y-88877746D01*
X152298771Y-88971190D01*
X152318192Y-89087800D01*
X152320458Y-89115085D01*
X152333201Y-89291257D01*
X152109957Y-89291257D01*
X151997061Y-89290292D01*
X151930523Y-89284838D01*
X151898113Y-89271062D01*
X151887599Y-89245129D01*
X151886713Y-89221262D01*
X151859392Y-89124321D01*
X151783693Y-89046719D01*
X151669007Y-88998019D01*
X151666990Y-88997546D01*
X151578059Y-88985110D01*
X151446796Y-88976723D01*
X151289325Y-88972400D01*
X151121768Y-88972156D01*
X150960246Y-88976006D01*
X150820882Y-88983967D01*
X150719800Y-88996051D01*
X150716592Y-88996657D01*
X150603092Y-89033861D01*
X150537372Y-89097793D01*
X150511171Y-89198078D01*
X150509781Y-89237588D01*
X150512980Y-89298507D01*
X150526858Y-89346448D01*
X150557834Y-89383277D01*
X150612329Y-89410858D01*
X150696763Y-89431055D01*
X150817556Y-89445734D01*
X150981129Y-89456760D01*
X151193901Y-89465996D01*
X151310577Y-89470175D01*
X151507271Y-89478317D01*
X151690795Y-89488405D01*
X151850739Y-89499673D01*
X151976695Y-89511353D01*
X152058256Y-89522677D01*
X152074831Y-89526544D01*
X152201581Y-89582505D01*
X152293046Y-89668351D01*
X152351689Y-89789606D01*
X152379977Y-89951793D01*
X152380373Y-90160436D01*
X152377563Y-90204880D01*
X152351281Y-90372616D01*
X152295289Y-90499022D01*
X152202972Y-90590510D01*
X152067713Y-90653491D01*
X151882896Y-90694378D01*
X151870567Y-90696199D01*
X151754302Y-90707485D01*
X151593919Y-90715508D01*
X151403800Y-90720287D01*
X151198328Y-90721840D01*
X150991885Y-90720183D01*
X150798853Y-90715335D01*
X150633616Y-90707313D01*
X150510555Y-90696135D01*
X150498878Y-90694520D01*
X150316108Y-90649792D01*
X150182099Y-90574325D01*
X150093956Y-90465034D01*
X150048783Y-90318833D01*
X150041084Y-90206771D01*
X150041038Y-90052964D01*
X150480484Y-90052964D01*
X150480484Y-90137608D01*
X150507112Y-90245297D01*
X150583190Y-90327030D01*
X150700208Y-90375972D01*
X150786010Y-90387856D01*
X150915004Y-90396108D01*
X151071901Y-90400717D01*
X151241411Y-90401671D01*
X151408246Y-90398958D01*
X151557115Y-90392568D01*
X151672731Y-90382488D01*
X151709871Y-90376738D01*
X151836128Y-90330872D01*
X151914524Y-90251328D01*
X151944894Y-90138283D01*
X151945306Y-90121034D01*
X151941597Y-90038873D01*
X151926220Y-89974257D01*
X151892799Y-89924777D01*
X151834957Y-89888028D01*
X151746318Y-89861603D01*
X151620506Y-89843095D01*
X151451145Y-89830097D01*
X151231859Y-89820204D01*
X151139654Y-89816944D01*
X150945778Y-89808872D01*
X150762960Y-89798484D01*
X150602543Y-89786641D01*
X150475873Y-89774201D01*
X150394291Y-89762022D01*
X150384862Y-89759818D01*
X150242934Y-89696483D01*
X150140656Y-89593703D01*
X150084160Y-89457780D01*
X150082399Y-89448916D01*
X150071673Y-89337561D01*
X150073613Y-89205039D01*
X150086305Y-89070693D01*
X150107834Y-88953863D01*
X150136288Y-88873890D01*
X150139873Y-88867998D01*
X150203809Y-88797750D01*
X150296776Y-88742244D01*
X150423662Y-88700602D01*
X150589354Y-88671944D01*
X150798742Y-88655393D01*
X151056712Y-88650069D01*
X151330081Y-88654033D01*
G36*
X129306494Y-88652267D02*
X129571924Y-88654893D01*
X129785462Y-88657576D01*
X129953806Y-88660764D01*
X130083657Y-88664907D01*
X130181713Y-88670455D01*
X130254673Y-88677858D01*
X130309237Y-88687565D01*
X130352103Y-88700026D01*
X130389971Y-88715691D01*
X130412434Y-88726495D01*
X130515074Y-88787906D01*
X130580825Y-88859767D01*
X130618544Y-88957300D01*
X130637090Y-89095726D01*
X130638383Y-89114780D01*
X130632346Y-89291218D01*
X130587111Y-89429028D01*
X130499654Y-89535672D01*
X130453920Y-89570115D01*
X130363572Y-89630417D01*
X130472975Y-89677139D01*
X130572427Y-89735489D01*
X130638987Y-89817268D01*
X130678705Y-89933647D01*
X130697378Y-90091328D01*
X130689658Y-90288378D01*
X130640639Y-90444799D01*
X130549564Y-90562270D01*
X130456378Y-90624245D01*
X130421457Y-90640074D01*
X130382247Y-90652884D01*
X130332261Y-90663067D01*
X130265011Y-90671014D01*
X130174011Y-90677117D01*
X130052774Y-90681768D01*
X129894812Y-90685358D01*
X129693638Y-90688279D01*
X129442764Y-90690923D01*
X129335790Y-90691912D01*
X128332388Y-90700987D01*
X128332388Y-90375225D01*
X128771834Y-90375225D01*
X129365086Y-90374526D01*
X129553613Y-90373022D01*
X129729162Y-90369243D01*
X129880652Y-90363612D01*
X129997003Y-90356553D01*
X130067133Y-90348491D01*
X130071783Y-90347507D01*
X130163407Y-90320091D01*
X130217186Y-90280623D01*
X130245148Y-90213535D01*
X130259178Y-90104948D01*
X130262151Y-90000544D01*
X130246565Y-89930056D01*
X130213040Y-89876870D01*
X130154036Y-89803945D01*
X129462935Y-89795116D01*
X128771834Y-89786286D01*
X128771834Y-90375225D01*
X128332388Y-90375225D01*
X128332388Y-89499448D01*
X128771834Y-89499448D01*
X129433641Y-89490566D01*
X129646917Y-89487550D01*
X129809332Y-89484419D01*
X129928612Y-89480332D01*
X130012486Y-89474449D01*
X130068680Y-89465929D01*
X130104921Y-89453934D01*
X130128937Y-89437622D01*
X130148455Y-89416153D01*
X130151403Y-89412521D01*
X130196728Y-89315241D01*
X130204734Y-89199135D01*
X130175421Y-89090551D01*
X130151403Y-89052807D01*
X130131896Y-89030512D01*
X130109023Y-89013496D01*
X130075058Y-89000921D01*
X130022273Y-88991944D01*
X129942941Y-88985727D01*
X129829335Y-88981430D01*
X129673728Y-88978211D01*
X129468393Y-88975230D01*
X129433641Y-88974763D01*
X128771834Y-88965881D01*
X128771834Y-89499448D01*
X128332388Y-89499448D01*
X128332388Y-88643150D01*
X129306494Y-88652267D01*
X129306494Y-88652267D01*
G37*
X129306494Y-88652267D02*
X129571924Y-88654893D01*
X129785462Y-88657576D01*
X129953806Y-88660764D01*
X130083657Y-88664907D01*
X130181713Y-88670455D01*
X130254673Y-88677858D01*
X130309237Y-88687565D01*
X130352103Y-88700026D01*
X130389971Y-88715691D01*
X130412434Y-88726495D01*
X130515074Y-88787906D01*
X130580825Y-88859767D01*
X130618544Y-88957300D01*
X130637090Y-89095726D01*
X130638383Y-89114780D01*
X130632346Y-89291218D01*
X130587111Y-89429028D01*
X130499654Y-89535672D01*
X130453920Y-89570115D01*
X130363572Y-89630417D01*
X130472975Y-89677139D01*
X130572427Y-89735489D01*
X130638987Y-89817268D01*
X130678705Y-89933647D01*
X130697378Y-90091328D01*
X130689658Y-90288378D01*
X130640639Y-90444799D01*
X130549564Y-90562270D01*
X130456378Y-90624245D01*
X130421457Y-90640074D01*
X130382247Y-90652884D01*
X130332261Y-90663067D01*
X130265011Y-90671014D01*
X130174011Y-90677117D01*
X130052774Y-90681768D01*
X129894812Y-90685358D01*
X129693638Y-90688279D01*
X129442764Y-90690923D01*
X129335790Y-90691912D01*
X128332388Y-90700987D01*
X128332388Y-90375225D01*
X128771834Y-90375225D01*
X129365086Y-90374526D01*
X129553613Y-90373022D01*
X129729162Y-90369243D01*
X129880652Y-90363612D01*
X129997003Y-90356553D01*
X130067133Y-90348491D01*
X130071783Y-90347507D01*
X130163407Y-90320091D01*
X130217186Y-90280623D01*
X130245148Y-90213535D01*
X130259178Y-90104948D01*
X130262151Y-90000544D01*
X130246565Y-89930056D01*
X130213040Y-89876870D01*
X130154036Y-89803945D01*
X129462935Y-89795116D01*
X128771834Y-89786286D01*
X128771834Y-90375225D01*
X128332388Y-90375225D01*
X128332388Y-89499448D01*
X128771834Y-89499448D01*
X129433641Y-89490566D01*
X129646917Y-89487550D01*
X129809332Y-89484419D01*
X129928612Y-89480332D01*
X130012486Y-89474449D01*
X130068680Y-89465929D01*
X130104921Y-89453934D01*
X130128937Y-89437622D01*
X130148455Y-89416153D01*
X130151403Y-89412521D01*
X130196728Y-89315241D01*
X130204734Y-89199135D01*
X130175421Y-89090551D01*
X130151403Y-89052807D01*
X130131896Y-89030512D01*
X130109023Y-89013496D01*
X130075058Y-89000921D01*
X130022273Y-88991944D01*
X129942941Y-88985727D01*
X129829335Y-88981430D01*
X129673728Y-88978211D01*
X129468393Y-88975230D01*
X129433641Y-88974763D01*
X128771834Y-88965881D01*
X128771834Y-89499448D01*
X128332388Y-89499448D01*
X128332388Y-88643150D01*
X129306494Y-88652267D01*
G36*
X132565721Y-88647178D02*
X132946574Y-89356103D01*
X133057739Y-89563034D01*
X133169797Y-89771640D01*
X133276760Y-89970774D01*
X133372640Y-90149286D01*
X133451448Y-90296028D01*
X133497213Y-90381257D01*
X133666999Y-90697486D01*
X133167034Y-90697486D01*
X132960486Y-90287336D01*
X131585027Y-90287336D01*
X131378479Y-90697486D01*
X131144476Y-90697486D01*
X131035727Y-90695257D01*
X130953871Y-90689335D01*
X130912783Y-90680866D01*
X130910473Y-90678155D01*
X130924041Y-90649003D01*
X130962734Y-90574098D01*
X131023535Y-90459080D01*
X131103427Y-90309590D01*
X131199393Y-90131268D01*
X131301562Y-89942415D01*
X131764952Y-89942415D01*
X131789427Y-89949719D01*
X131863374Y-89956045D01*
X131977676Y-89960982D01*
X132123213Y-89964122D01*
X132270315Y-89965075D01*
X132436698Y-89964028D01*
X132580707Y-89961121D01*
X132692989Y-89956708D01*
X132764192Y-89951142D01*
X132785444Y-89945623D01*
X132772557Y-89914531D01*
X132737428Y-89841935D01*
X132685354Y-89738048D01*
X132621633Y-89613082D01*
X132551562Y-89477250D01*
X132480439Y-89340765D01*
X132413562Y-89213840D01*
X132356227Y-89106688D01*
X132313734Y-89029522D01*
X132291379Y-88992554D01*
X132290571Y-88991586D01*
X132273358Y-89011050D01*
X132234178Y-89072975D01*
X132178249Y-89167919D01*
X132110793Y-89286438D01*
X132037028Y-89419090D01*
X131962175Y-89556433D01*
X131891454Y-89689024D01*
X131830085Y-89807420D01*
X131783286Y-89902180D01*
X131764952Y-89942415D01*
X131301562Y-89942415D01*
X131308414Y-89929751D01*
X131427475Y-89710682D01*
X131459029Y-89652780D01*
X132007585Y-88646736D01*
X132565721Y-88647178D01*
X132565721Y-88647178D01*
G37*
X132565721Y-88647178D02*
X132946574Y-89356103D01*
X133057739Y-89563034D01*
X133169797Y-89771640D01*
X133276760Y-89970774D01*
X133372640Y-90149286D01*
X133451448Y-90296028D01*
X133497213Y-90381257D01*
X133666999Y-90697486D01*
X133167034Y-90697486D01*
X132960486Y-90287336D01*
X131585027Y-90287336D01*
X131378479Y-90697486D01*
X131144476Y-90697486D01*
X131035727Y-90695257D01*
X130953871Y-90689335D01*
X130912783Y-90680866D01*
X130910473Y-90678155D01*
X130924041Y-90649003D01*
X130962734Y-90574098D01*
X131023535Y-90459080D01*
X131103427Y-90309590D01*
X131199393Y-90131268D01*
X131301562Y-89942415D01*
X131764952Y-89942415D01*
X131789427Y-89949719D01*
X131863374Y-89956045D01*
X131977676Y-89960982D01*
X132123213Y-89964122D01*
X132270315Y-89965075D01*
X132436698Y-89964028D01*
X132580707Y-89961121D01*
X132692989Y-89956708D01*
X132764192Y-89951142D01*
X132785444Y-89945623D01*
X132772557Y-89914531D01*
X132737428Y-89841935D01*
X132685354Y-89738048D01*
X132621633Y-89613082D01*
X132551562Y-89477250D01*
X132480439Y-89340765D01*
X132413562Y-89213840D01*
X132356227Y-89106688D01*
X132313734Y-89029522D01*
X132291379Y-88992554D01*
X132290571Y-88991586D01*
X132273358Y-89011050D01*
X132234178Y-89072975D01*
X132178249Y-89167919D01*
X132110793Y-89286438D01*
X132037028Y-89419090D01*
X131962175Y-89556433D01*
X131891454Y-89689024D01*
X131830085Y-89807420D01*
X131783286Y-89902180D01*
X131764952Y-89942415D01*
X131301562Y-89942415D01*
X131308414Y-89929751D01*
X131427475Y-89710682D01*
X131459029Y-89652780D01*
X132007585Y-88646736D01*
X132565721Y-88647178D01*
G36*
X137238501Y-89496332D02*
X137575409Y-89496050D01*
X138567347Y-88646736D01*
X138860917Y-88646736D01*
X138983840Y-88649026D01*
X139074383Y-88655273D01*
X139122722Y-88664547D01*
X139126655Y-88671944D01*
X139099454Y-88694624D01*
X139034433Y-88748089D01*
X138938950Y-88826329D01*
X138820367Y-88923340D01*
X138686043Y-89033112D01*
X138543339Y-89149640D01*
X138399613Y-89266916D01*
X138262227Y-89378932D01*
X138138540Y-89479683D01*
X138035913Y-89563160D01*
X137961706Y-89623357D01*
X137923277Y-89654267D01*
X137919824Y-89656932D01*
X137940258Y-89675281D01*
X138001516Y-89724621D01*
X138097816Y-89800432D01*
X138223376Y-89898195D01*
X138372412Y-90013391D01*
X138539143Y-90141500D01*
X138571669Y-90166410D01*
X138741530Y-90296883D01*
X138895159Y-90415755D01*
X139026684Y-90518412D01*
X139130235Y-90600244D01*
X139199940Y-90656636D01*
X139229930Y-90682977D01*
X139230657Y-90684161D01*
X139203395Y-90689670D01*
X139129741Y-90694070D01*
X139021892Y-90696823D01*
X138927785Y-90697486D01*
X138624913Y-90697486D01*
X138090102Y-90272687D01*
X137555291Y-89847889D01*
X137238501Y-89847889D01*
X137238501Y-90697486D01*
X136799054Y-90697486D01*
X136799054Y-88646736D01*
X137238501Y-88646736D01*
X137238501Y-89496332D01*
X137238501Y-89496332D01*
G37*
X137238501Y-89496332D02*
X137575409Y-89496050D01*
X138567347Y-88646736D01*
X138860917Y-88646736D01*
X138983840Y-88649026D01*
X139074383Y-88655273D01*
X139122722Y-88664547D01*
X139126655Y-88671944D01*
X139099454Y-88694624D01*
X139034433Y-88748089D01*
X138938950Y-88826329D01*
X138820367Y-88923340D01*
X138686043Y-89033112D01*
X138543339Y-89149640D01*
X138399613Y-89266916D01*
X138262227Y-89378932D01*
X138138540Y-89479683D01*
X138035913Y-89563160D01*
X137961706Y-89623357D01*
X137923277Y-89654267D01*
X137919824Y-89656932D01*
X137940258Y-89675281D01*
X138001516Y-89724621D01*
X138097816Y-89800432D01*
X138223376Y-89898195D01*
X138372412Y-90013391D01*
X138539143Y-90141500D01*
X138571669Y-90166410D01*
X138741530Y-90296883D01*
X138895159Y-90415755D01*
X139026684Y-90518412D01*
X139130235Y-90600244D01*
X139199940Y-90656636D01*
X139229930Y-90682977D01*
X139230657Y-90684161D01*
X139203395Y-90689670D01*
X139129741Y-90694070D01*
X139021892Y-90696823D01*
X138927785Y-90697486D01*
X138624913Y-90697486D01*
X138090102Y-90272687D01*
X137555291Y-89847889D01*
X137238501Y-89847889D01*
X137238501Y-90697486D01*
X136799054Y-90697486D01*
X136799054Y-88646736D01*
X137238501Y-88646736D01*
X137238501Y-89496332D01*
G36*
X142716932Y-90345929D02*
X143346805Y-90345929D01*
X143531739Y-90346901D01*
X143695146Y-90349622D01*
X143828580Y-90353796D01*
X143923594Y-90359129D01*
X143971742Y-90365326D01*
X143975994Y-90367901D01*
X143962571Y-90403792D01*
X143928636Y-90473467D01*
X143895329Y-90536355D01*
X143815348Y-90682837D01*
X143046417Y-90690648D01*
X142277486Y-90698458D01*
X142277486Y-88646736D01*
X142716932Y-88646736D01*
X142716932Y-90345929D01*
X142716932Y-90345929D01*
G37*
X142716932Y-90345929D02*
X143346805Y-90345929D01*
X143531739Y-90346901D01*
X143695146Y-90349622D01*
X143828580Y-90353796D01*
X143923594Y-90359129D01*
X143971742Y-90365326D01*
X143975994Y-90367901D01*
X143962571Y-90403792D01*
X143928636Y-90473467D01*
X143895329Y-90536355D01*
X143815348Y-90682837D01*
X143046417Y-90690648D01*
X142277486Y-90698458D01*
X142277486Y-88646736D01*
X142716932Y-88646736D01*
X142716932Y-90345929D01*
G36*
X145645823Y-88646957D02*
X145924890Y-88647178D01*
X146305744Y-89356103D01*
X146416908Y-89563034D01*
X146528966Y-89771640D01*
X146635930Y-89970774D01*
X146731809Y-90149286D01*
X146810617Y-90296028D01*
X146856383Y-90381257D01*
X147026168Y-90697486D01*
X146526204Y-90697486D01*
X146422930Y-90492411D01*
X146319655Y-90287336D01*
X144944197Y-90287336D01*
X144737649Y-90697486D01*
X144503645Y-90697486D01*
X144394897Y-90695257D01*
X144313041Y-90689335D01*
X144271952Y-90680866D01*
X144269642Y-90678155D01*
X144283211Y-90649003D01*
X144321904Y-90574098D01*
X144382705Y-90459080D01*
X144462597Y-90309590D01*
X144558562Y-90131268D01*
X144660732Y-89942415D01*
X145124121Y-89942415D01*
X145148597Y-89949719D01*
X145222544Y-89956045D01*
X145336845Y-89960982D01*
X145482382Y-89964122D01*
X145629485Y-89965075D01*
X145795867Y-89964028D01*
X145939876Y-89961121D01*
X146052159Y-89956708D01*
X146123362Y-89951142D01*
X146144614Y-89945623D01*
X146131727Y-89914531D01*
X146096597Y-89841935D01*
X146044523Y-89738048D01*
X145980802Y-89613082D01*
X145910731Y-89477250D01*
X145839609Y-89340765D01*
X145772731Y-89213840D01*
X145715397Y-89106688D01*
X145672904Y-89029522D01*
X145650548Y-88992554D01*
X145649741Y-88991586D01*
X145632528Y-89011050D01*
X145593347Y-89072975D01*
X145537419Y-89167919D01*
X145469962Y-89286438D01*
X145396198Y-89419090D01*
X145321345Y-89556433D01*
X145250624Y-89689024D01*
X145189254Y-89807420D01*
X145142456Y-89902180D01*
X145124121Y-89942415D01*
X144660732Y-89942415D01*
X144667584Y-89929751D01*
X144786645Y-89710682D01*
X144818199Y-89652780D01*
X145366755Y-88646736D01*
X145645823Y-88646957D01*
X145645823Y-88646957D01*
G37*
X145645823Y-88646957D02*
X145924890Y-88647178D01*
X146305744Y-89356103D01*
X146416908Y-89563034D01*
X146528966Y-89771640D01*
X146635930Y-89970774D01*
X146731809Y-90149286D01*
X146810617Y-90296028D01*
X146856383Y-90381257D01*
X147026168Y-90697486D01*
X146526204Y-90697486D01*
X146422930Y-90492411D01*
X146319655Y-90287336D01*
X144944197Y-90287336D01*
X144737649Y-90697486D01*
X144503645Y-90697486D01*
X144394897Y-90695257D01*
X144313041Y-90689335D01*
X144271952Y-90680866D01*
X144269642Y-90678155D01*
X144283211Y-90649003D01*
X144321904Y-90574098D01*
X144382705Y-90459080D01*
X144462597Y-90309590D01*
X144558562Y-90131268D01*
X144660732Y-89942415D01*
X145124121Y-89942415D01*
X145148597Y-89949719D01*
X145222544Y-89956045D01*
X145336845Y-89960982D01*
X145482382Y-89964122D01*
X145629485Y-89965075D01*
X145795867Y-89964028D01*
X145939876Y-89961121D01*
X146052159Y-89956708D01*
X146123362Y-89951142D01*
X146144614Y-89945623D01*
X146131727Y-89914531D01*
X146096597Y-89841935D01*
X146044523Y-89738048D01*
X145980802Y-89613082D01*
X145910731Y-89477250D01*
X145839609Y-89340765D01*
X145772731Y-89213840D01*
X145715397Y-89106688D01*
X145672904Y-89029522D01*
X145650548Y-88992554D01*
X145649741Y-88991586D01*
X145632528Y-89011050D01*
X145593347Y-89072975D01*
X145537419Y-89167919D01*
X145469962Y-89286438D01*
X145396198Y-89419090D01*
X145321345Y-89556433D01*
X145250624Y-89689024D01*
X145189254Y-89807420D01*
X145142456Y-89902180D01*
X145124121Y-89942415D01*
X144660732Y-89942415D01*
X144667584Y-89929751D01*
X144786645Y-89710682D01*
X144818199Y-89652780D01*
X145366755Y-88646736D01*
X145645823Y-88646957D01*
M02*
