G04 #@! TF.FileFunction,Soldermask,Bot*
%FSLAX46Y46*%
G04 Gerber Fmt 4.6, Leading zero omitted, Abs format (unit mm)*
G04 Created by KiCad (PCBNEW 4.0.3-stable) date 05/01/17 03:43:23*
%MOMM*%
%LPD*%
G01*
G04 APERTURE LIST*
%ADD10C,0.100000*%
%ADD11O,1.850000X0.850000*%
%ADD12O,0.850000X1.850000*%
%ADD13R,1.250000X1.300000*%
%ADD14R,1.300000X1.250000*%
%ADD15R,1.350000X1.700000*%
%ADD16R,1.600000X1.600000*%
%ADD17C,1.600000*%
%ADD18O,0.900000X1.600000*%
%ADD19O,1.600000X0.900000*%
%ADD20R,1.550000X3.000000*%
%ADD21R,1.800000X1.800000*%
%ADD22C,1.800000*%
%ADD23C,2.400000*%
%ADD24R,1.100000X1.100000*%
%ADD25C,1.100000*%
%ADD26O,0.700000X1.250000*%
%ADD27R,1.200000X2.250000*%
%ADD28R,3.500000X2.250000*%
%ADD29R,1.100000X1.200000*%
%ADD30R,0.850000X1.200000*%
%ADD31R,1.700000X1.600000*%
%ADD32R,3.000000X1.550000*%
G04 APERTURE END LIST*
D10*
D11*
X124450000Y-99170000D03*
X124450000Y-98370000D03*
X124450000Y-97570000D03*
X124450000Y-96770000D03*
X124450000Y-95970000D03*
X124450000Y-95170000D03*
X124450000Y-94370000D03*
X124450000Y-93570000D03*
D12*
X125900000Y-92120000D03*
X126700000Y-92120000D03*
X127500000Y-92120000D03*
X128300000Y-92120000D03*
X129100000Y-92120000D03*
X129900000Y-92120000D03*
X130700000Y-92120000D03*
X131500000Y-92120000D03*
D11*
X132950000Y-93570000D03*
X132950000Y-94370000D03*
X132950000Y-95170000D03*
X132950000Y-95970000D03*
X132950000Y-96770000D03*
X132950000Y-97570000D03*
X132950000Y-98370000D03*
X132950000Y-99170000D03*
D12*
X131500000Y-100620000D03*
X130700000Y-100620000D03*
X129900000Y-100620000D03*
X129100000Y-100620000D03*
X128300000Y-100620000D03*
X127500000Y-100620000D03*
X126700000Y-100620000D03*
X125900000Y-100620000D03*
D13*
X117710000Y-84980000D03*
X117710000Y-86480000D03*
X121160000Y-106690000D03*
X121160000Y-108190000D03*
D14*
X153690000Y-104980000D03*
X152190000Y-104980000D03*
X126680000Y-78430000D03*
X128180000Y-78430000D03*
D13*
X135210000Y-96320000D03*
X135210000Y-94820000D03*
X122290000Y-95620000D03*
X122290000Y-97120000D03*
X154160000Y-92930000D03*
X154160000Y-91430000D03*
X141240000Y-92230000D03*
X141240000Y-93730000D03*
D14*
X160030000Y-82820000D03*
X161530000Y-82820000D03*
D13*
X159580000Y-72170000D03*
X159580000Y-73670000D03*
D15*
X158030000Y-81300000D03*
X156230000Y-81300000D03*
D16*
X162850000Y-108260000D03*
D17*
X160350000Y-108260000D03*
D14*
X121880000Y-73970000D03*
X120380000Y-73970000D03*
D13*
X124580000Y-76020000D03*
X124580000Y-77520000D03*
D18*
X157190000Y-104170000D03*
X155290000Y-104170000D03*
X156240000Y-101870000D03*
D19*
X161520000Y-74420000D03*
X161520000Y-72520000D03*
X163820000Y-73470000D03*
D18*
X152680000Y-81300000D03*
X154580000Y-81300000D03*
X153630000Y-83600000D03*
D16*
X132080000Y-86630000D03*
D17*
X134620000Y-86630000D03*
X137160000Y-86630000D03*
X139700000Y-86630000D03*
X142240000Y-86630000D03*
X144780000Y-86630000D03*
X147320000Y-86630000D03*
X149860000Y-86630000D03*
X149860000Y-76470000D03*
X147320000Y-76470000D03*
X144780000Y-76470000D03*
X142240000Y-76470000D03*
X139700000Y-76470000D03*
X137160000Y-76470000D03*
X134620000Y-76470000D03*
X132080000Y-76470000D03*
D20*
X161230000Y-76870000D03*
X164130000Y-76870000D03*
D21*
X132080000Y-109220000D03*
D22*
X134620000Y-109220000D03*
X137160000Y-109220000D03*
X139700000Y-109220000D03*
X142240000Y-109220000D03*
X144780000Y-109220000D03*
X147320000Y-109220000D03*
X149860000Y-109220000D03*
X152400000Y-109220000D03*
X154940000Y-109220000D03*
X154940000Y-106680000D03*
X152400000Y-106680000D03*
X149860000Y-106680000D03*
X147320000Y-106680000D03*
X144780000Y-106680000D03*
X142240000Y-106680000D03*
X139700000Y-106680000D03*
X137160000Y-106680000D03*
X134620000Y-106680000D03*
X132080000Y-106680000D03*
D21*
X126740000Y-104150000D03*
D22*
X126740000Y-106690000D03*
X126740000Y-109230000D03*
D21*
X129270000Y-104150000D03*
D22*
X129270000Y-106690000D03*
X129270000Y-109230000D03*
D23*
X118290000Y-91300000D03*
X118290000Y-99200000D03*
D21*
X163830000Y-83820000D03*
D22*
X163830000Y-86360000D03*
D24*
X129740000Y-79410000D03*
D25*
X129740000Y-80680000D03*
X131010000Y-79410000D03*
X131010000Y-80680000D03*
X132280000Y-79410000D03*
X132280000Y-80680000D03*
D24*
X132950000Y-90850000D03*
D25*
X132950000Y-92120000D03*
X134220000Y-90850000D03*
X134220000Y-92120000D03*
X135490000Y-90850000D03*
X135490000Y-92120000D03*
D24*
X151900000Y-87460000D03*
D25*
X151900000Y-88730000D03*
X153170000Y-87460000D03*
X153170000Y-88730000D03*
X154440000Y-87460000D03*
X154440000Y-88730000D03*
D26*
X134880000Y-82800000D03*
X135530000Y-82800000D03*
X136180000Y-82800000D03*
X136180000Y-85000000D03*
X134880000Y-85000000D03*
X135530000Y-85000000D03*
X148300000Y-82800000D03*
X148950000Y-82800000D03*
X149600000Y-82800000D03*
X149600000Y-85000000D03*
X148300000Y-85000000D03*
X148950000Y-85000000D03*
D14*
X128180000Y-76470000D03*
X126680000Y-76470000D03*
X146310000Y-74690000D03*
X144810000Y-74690000D03*
D13*
X119660000Y-106690000D03*
X119660000Y-108190000D03*
X122660000Y-106690000D03*
X122660000Y-108190000D03*
D14*
X148330000Y-74690000D03*
X149830000Y-74690000D03*
X158090000Y-100320000D03*
X156590000Y-100320000D03*
X161590000Y-100320000D03*
X160090000Y-100320000D03*
D13*
X159580000Y-75670000D03*
X159580000Y-77170000D03*
X159580000Y-79170000D03*
X159580000Y-80670000D03*
D22*
X124410000Y-105190000D03*
X117910000Y-105190000D03*
X117910000Y-109690000D03*
X124410000Y-109690000D03*
D12*
X121630000Y-80680000D03*
X122430000Y-80680000D03*
X123230000Y-80680000D03*
X124030000Y-80680000D03*
X124830000Y-80680000D03*
X125630000Y-80680000D03*
X126430000Y-80680000D03*
X127230000Y-80680000D03*
D11*
X128680000Y-82130000D03*
X128680000Y-82930000D03*
X128680000Y-83730000D03*
X128680000Y-84530000D03*
X128680000Y-85330000D03*
X128680000Y-86130000D03*
X128680000Y-86930000D03*
X128680000Y-87730000D03*
D12*
X127230000Y-89180000D03*
X126430000Y-89180000D03*
X125630000Y-89180000D03*
X124830000Y-89180000D03*
X124030000Y-89180000D03*
X123230000Y-89180000D03*
X122430000Y-89180000D03*
X121630000Y-89180000D03*
D11*
X120180000Y-87730000D03*
X120180000Y-86930000D03*
X120180000Y-86130000D03*
X120180000Y-85330000D03*
X120180000Y-84530000D03*
X120180000Y-83730000D03*
X120180000Y-82930000D03*
X120180000Y-82130000D03*
X143400000Y-95780000D03*
X143400000Y-94980000D03*
X143400000Y-94180000D03*
X143400000Y-93380000D03*
X143400000Y-92580000D03*
X143400000Y-91780000D03*
X143400000Y-90980000D03*
X143400000Y-90180000D03*
D12*
X144850000Y-88730000D03*
X145650000Y-88730000D03*
X146450000Y-88730000D03*
X147250000Y-88730000D03*
X148050000Y-88730000D03*
X148850000Y-88730000D03*
X149650000Y-88730000D03*
X150450000Y-88730000D03*
D11*
X151900000Y-90180000D03*
X151900000Y-90980000D03*
X151900000Y-91780000D03*
X151900000Y-92580000D03*
X151900000Y-93380000D03*
X151900000Y-94180000D03*
X151900000Y-94980000D03*
X151900000Y-95780000D03*
D12*
X150450000Y-97230000D03*
X149650000Y-97230000D03*
X148850000Y-97230000D03*
X148050000Y-97230000D03*
X147250000Y-97230000D03*
X146450000Y-97230000D03*
X145650000Y-97230000D03*
X144850000Y-97230000D03*
D19*
X163830000Y-79320000D03*
X163830000Y-81220000D03*
X163830000Y-80270000D03*
X161530000Y-81220000D03*
X161530000Y-79320000D03*
D27*
X152930000Y-73000000D03*
D28*
X155230000Y-79100000D03*
D27*
X155230000Y-73000000D03*
X157530000Y-73000000D03*
D29*
X145005000Y-102280000D03*
D30*
X146730000Y-102280000D03*
X145930000Y-102280000D03*
D29*
X147655000Y-102280000D03*
D30*
X145930000Y-104080000D03*
D29*
X145005000Y-104080000D03*
D30*
X146730000Y-104080000D03*
D29*
X147655000Y-104080000D03*
X143455000Y-83000000D03*
D30*
X145180000Y-83000000D03*
X144380000Y-83000000D03*
D29*
X146105000Y-83000000D03*
D30*
X144380000Y-84800000D03*
D29*
X143455000Y-84800000D03*
D30*
X145180000Y-84800000D03*
D29*
X146105000Y-84800000D03*
X138375000Y-83000000D03*
D30*
X140100000Y-83000000D03*
X139300000Y-83000000D03*
D29*
X141025000Y-83000000D03*
D30*
X139300000Y-84800000D03*
D29*
X138375000Y-84800000D03*
D30*
X140100000Y-84800000D03*
D29*
X141025000Y-84800000D03*
D31*
X122880000Y-75620000D03*
X120380000Y-75620000D03*
X120380000Y-77520000D03*
X122880000Y-77520000D03*
D18*
X158890000Y-101870000D03*
X160790000Y-101870000D03*
X159840000Y-104170000D03*
X159840000Y-101870000D03*
X160790000Y-104170000D03*
X158890000Y-104170000D03*
D32*
X157690000Y-109345000D03*
X157690000Y-106445000D03*
M02*
