G04 #@! TF.FileFunction,Legend,Bot*
%FSLAX46Y46*%
G04 Gerber Fmt 4.6, Leading zero omitted, Abs format (unit mm)*
G04 Created by KiCad (PCBNEW 4.0.3-stable) date 05/01/17 03:43:23*
%MOMM*%
%LPD*%
G01*
G04 APERTURE LIST*
%ADD10C,0.100000*%
%ADD11C,0.200000*%
%ADD12C,0.150000*%
%ADD13C,0.400000*%
G04 APERTURE END LIST*
D10*
D11*
X164222381Y-102632857D02*
X163555714Y-102632857D01*
X163746190Y-102632857D02*
X163650952Y-102680476D01*
X163603333Y-102728095D01*
X163555714Y-102823333D01*
X163555714Y-102918572D01*
X164174762Y-103632858D02*
X164222381Y-103537620D01*
X164222381Y-103347143D01*
X164174762Y-103251905D01*
X164079524Y-103204286D01*
X163698571Y-103204286D01*
X163603333Y-103251905D01*
X163555714Y-103347143D01*
X163555714Y-103537620D01*
X163603333Y-103632858D01*
X163698571Y-103680477D01*
X163793810Y-103680477D01*
X163889048Y-103204286D01*
X163555714Y-104013810D02*
X164222381Y-104251905D01*
X163555714Y-104490001D01*
X163317619Y-104823334D02*
X163270000Y-104870953D01*
X163222381Y-104966191D01*
X163222381Y-105204287D01*
X163270000Y-105299525D01*
X163317619Y-105347144D01*
X163412857Y-105394763D01*
X163508095Y-105394763D01*
X163650952Y-105347144D01*
X164222381Y-104775715D01*
X164222381Y-105394763D01*
X163555714Y-89978572D02*
X164365238Y-89978572D01*
X164460476Y-89930953D01*
X164508095Y-89883334D01*
X164555714Y-89788095D01*
X164555714Y-89645238D01*
X164508095Y-89550000D01*
X164174762Y-89978572D02*
X164222381Y-89883334D01*
X164222381Y-89692857D01*
X164174762Y-89597619D01*
X164127143Y-89550000D01*
X164031905Y-89502381D01*
X163746190Y-89502381D01*
X163650952Y-89550000D01*
X163603333Y-89597619D01*
X163555714Y-89692857D01*
X163555714Y-89883334D01*
X163603333Y-89978572D01*
X164222381Y-90454762D02*
X163555714Y-90454762D01*
X163222381Y-90454762D02*
X163270000Y-90407143D01*
X163317619Y-90454762D01*
X163270000Y-90502381D01*
X163222381Y-90454762D01*
X163317619Y-90454762D01*
X163555714Y-90788095D02*
X163555714Y-91169047D01*
X163222381Y-90930952D02*
X164079524Y-90930952D01*
X164174762Y-90978571D01*
X164222381Y-91073809D01*
X164222381Y-91169047D01*
X164127143Y-91502381D02*
X164174762Y-91550000D01*
X164222381Y-91502381D01*
X164174762Y-91454762D01*
X164127143Y-91502381D01*
X164222381Y-91502381D01*
X164222381Y-91978571D02*
X163555714Y-91978571D01*
X163222381Y-91978571D02*
X163270000Y-91930952D01*
X163317619Y-91978571D01*
X163270000Y-92026190D01*
X163222381Y-91978571D01*
X163317619Y-91978571D01*
X164222381Y-92597618D02*
X164174762Y-92502380D01*
X164127143Y-92454761D01*
X164031905Y-92407142D01*
X163746190Y-92407142D01*
X163650952Y-92454761D01*
X163603333Y-92502380D01*
X163555714Y-92597618D01*
X163555714Y-92740476D01*
X163603333Y-92835714D01*
X163650952Y-92883333D01*
X163746190Y-92930952D01*
X164031905Y-92930952D01*
X164127143Y-92883333D01*
X164174762Y-92835714D01*
X164222381Y-92740476D01*
X164222381Y-92597618D01*
X163174762Y-94073809D02*
X164460476Y-93216666D01*
X163555714Y-94311904D02*
X164222381Y-94549999D01*
X163555714Y-94788095D01*
X164222381Y-95216666D02*
X164222381Y-95407142D01*
X164174762Y-95502381D01*
X164127143Y-95550000D01*
X163984286Y-95645238D01*
X163793810Y-95692857D01*
X163412857Y-95692857D01*
X163317619Y-95645238D01*
X163270000Y-95597619D01*
X163222381Y-95502381D01*
X163222381Y-95311904D01*
X163270000Y-95216666D01*
X163317619Y-95169047D01*
X163412857Y-95121428D01*
X163650952Y-95121428D01*
X163746190Y-95169047D01*
X163793810Y-95216666D01*
X163841429Y-95311904D01*
X163841429Y-95502381D01*
X163793810Y-95597619D01*
X163746190Y-95645238D01*
X163650952Y-95692857D01*
X164222381Y-96264285D02*
X164174762Y-96169047D01*
X164079524Y-96121428D01*
X163222381Y-96121428D01*
X163555714Y-96502381D02*
X163555714Y-96883333D01*
X164222381Y-96645238D02*
X163365238Y-96645238D01*
X163270000Y-96692857D01*
X163222381Y-96788095D01*
X163222381Y-96883333D01*
X164222381Y-97121429D02*
X163555714Y-97645239D01*
X163555714Y-97121429D02*
X164222381Y-97645239D01*
D12*
X125800000Y-99520000D02*
X125550000Y-99270000D01*
X125550000Y-99070000D02*
X126000000Y-99520000D01*
X126200000Y-99520000D02*
X125550000Y-98870000D01*
X126400000Y-99520000D02*
X125550000Y-98670000D01*
X125550000Y-98470000D02*
X126600000Y-99520000D01*
D13*
X124000000Y-99920000D02*
G75*
G03X124000000Y-99920000I-50000J0D01*
G01*
D12*
X125550000Y-99520000D02*
X131850000Y-99520000D01*
X131850000Y-99520000D02*
X131850000Y-93220000D01*
X131850000Y-93220000D02*
X125550000Y-93220000D01*
X125550000Y-93220000D02*
X125550000Y-99520000D01*
X157130000Y-80750000D02*
X157130000Y-81850000D01*
X157690000Y-103370000D02*
X154790000Y-103370000D01*
X154790000Y-103370000D02*
X154790000Y-102670000D01*
X154790000Y-102670000D02*
X157690000Y-102670000D01*
X157690000Y-102670000D02*
X157690000Y-103370000D01*
X162320000Y-74920000D02*
X162320000Y-72020000D01*
X162320000Y-72020000D02*
X163020000Y-72020000D01*
X163020000Y-72020000D02*
X163020000Y-74920000D01*
X163020000Y-74920000D02*
X162320000Y-74920000D01*
X152180000Y-82100000D02*
X155080000Y-82100000D01*
X155080000Y-82100000D02*
X155080000Y-82800000D01*
X155080000Y-82800000D02*
X152180000Y-82800000D01*
X152180000Y-82800000D02*
X152180000Y-82100000D01*
X162180000Y-75620000D02*
X163180000Y-75620000D01*
X162180000Y-78120000D02*
X163180000Y-78120000D01*
D13*
X134230000Y-82600000D02*
G75*
G03X134230000Y-82600000I-50000J0D01*
G01*
D12*
X134530000Y-84250000D02*
X136530000Y-84250000D01*
X136530000Y-84250000D02*
X136530000Y-83550000D01*
X136530000Y-83550000D02*
X134530000Y-83550000D01*
X134530000Y-83550000D02*
X134530000Y-84250000D01*
D13*
X147650000Y-82600000D02*
G75*
G03X147650000Y-82600000I-50000J0D01*
G01*
D12*
X147950000Y-84250000D02*
X149950000Y-84250000D01*
X149950000Y-84250000D02*
X149950000Y-83550000D01*
X149950000Y-83550000D02*
X147950000Y-83550000D01*
X147950000Y-83550000D02*
X147950000Y-84250000D01*
X121280000Y-82030000D02*
X121530000Y-81780000D01*
X121730000Y-81780000D02*
X121280000Y-82230000D01*
X121280000Y-82430000D02*
X121930000Y-81780000D01*
X121280000Y-82630000D02*
X122130000Y-81780000D01*
X122330000Y-81780000D02*
X121280000Y-82830000D01*
D13*
X120930000Y-80180000D02*
G75*
G03X120930000Y-80180000I-50000J0D01*
G01*
D12*
X121280000Y-81780000D02*
X121280000Y-88080000D01*
X121280000Y-88080000D02*
X127580000Y-88080000D01*
X127580000Y-88080000D02*
X127580000Y-81780000D01*
X127580000Y-81780000D02*
X121280000Y-81780000D01*
X144750000Y-96130000D02*
X144500000Y-95880000D01*
X144500000Y-95680000D02*
X144950000Y-96130000D01*
X145150000Y-96130000D02*
X144500000Y-95480000D01*
X145350000Y-96130000D02*
X144500000Y-95280000D01*
X144500000Y-95080000D02*
X145550000Y-96130000D01*
D13*
X142950000Y-96530000D02*
G75*
G03X142950000Y-96530000I-50000J0D01*
G01*
D12*
X144500000Y-96130000D02*
X150800000Y-96130000D01*
X150800000Y-96130000D02*
X150800000Y-89830000D01*
X150800000Y-89830000D02*
X144500000Y-89830000D01*
X144500000Y-89830000D02*
X144500000Y-96130000D01*
X163030000Y-78820000D02*
X163030000Y-81720000D01*
X163030000Y-81720000D02*
X162330000Y-81720000D01*
X162330000Y-81720000D02*
X162330000Y-78820000D01*
X162330000Y-78820000D02*
X163030000Y-78820000D01*
X151980000Y-77800000D02*
X158480000Y-77800000D01*
X158480000Y-77800000D02*
X158480000Y-74300000D01*
X158480000Y-74300000D02*
X151980000Y-74300000D01*
X151980000Y-74300000D02*
X151980000Y-77800000D01*
X144630000Y-103180000D02*
X148030000Y-103180000D01*
X143080000Y-83900000D02*
X146480000Y-83900000D01*
X138000000Y-83900000D02*
X141400000Y-83900000D01*
X121830000Y-77820000D02*
X121430000Y-77820000D01*
X121830000Y-75320000D02*
X121430000Y-75320000D01*
D13*
X158140000Y-101620000D02*
G75*
G03X158140000Y-101620000I-50000J0D01*
G01*
D12*
X158390000Y-102670000D02*
X161290000Y-102670000D01*
X161290000Y-102670000D02*
X161290000Y-103370000D01*
X161290000Y-103370000D02*
X158390000Y-103370000D01*
X158390000Y-103370000D02*
X158390000Y-102670000D01*
X156440000Y-108395000D02*
X156440000Y-107395000D01*
X158940000Y-108395000D02*
X158940000Y-107395000D01*
M02*
